<?xml version="1.0" encoding="UTF-8"?>
<!DOCTYPE svg PUBLIC "-//W3C//DTD SVG 1.1//EN" "http://www.w3.org/Graphics/SVG/1.1/DTD/svg11.dtd">
<!-- Creator: CorelDRAW -->
<svg xmlns="http://www.w3.org/2000/svg" xml:space="preserve" width="600px" height="115px" style="shape-rendering:geometricPrecision; text-rendering:geometricPrecision; image-rendering:optimizeQuality; fill-rule:evenodd; clip-rule:evenodd"
viewBox="0 0 600 115"
 xmlns:xlink="http://www.w3.org/1999/xlink">
 <defs>
  <style type="text/css">
   <![CDATA[
    .fil3 {fill:black}
    .fil1 {fill:#00CCFF}
    .fil0 {fill:black;fill-rule:nonzero}
    .fil2 {fill:#00CCFF;fill-rule:nonzero}
   ]]>
  </style>
 </defs>
 <g id="Layer_x0020_1">
  <metadata id="CorelCorpID_0Corel-Layer"/>
  <path class="fil0" d="M-1 18.2354l0 7.05866 29.5587 0 0 82.2055 20.4413 0 0 -82.2055 29.5587 0 0 -17.7937 -69.2646 0c-1.93622,0.0244094 -3.67638,0.538976 -5.22047,1.49488 -1.54409,0.980315 -2.76969,2.27953 -3.67638,3.89724 -0.906693,1.61732 -1.37244,3.40669 -1.39724,5.34291zm88.9701 89.2642l20.4413 0 0 -99.9992 -10.1472 0c-3.45591,0 -6.02913,0.906693 -7.74488,2.72047 -1.69134,1.81378 -2.54921,4.48504 -2.54921,8.01457l0 89.2642zm89.8528 -54.5587l0 -6.61732 -39.1173 0 0 -21.4705 52.2055 0 0 -17.3528 -62.0587 0c-1.93622,0.0244094 -3.67638,0.538976 -5.22047,1.49488 -1.54409,0.980315 -2.76969,2.27953 -3.67638,3.89724 -0.906693,1.61732 -1.37244,3.40669 -1.39724,5.34291l0 89.2642 20.1472 0 0 -44.2646 28.3819 0c1.93622,-0.0244094 3.72559,-0.490157 5.34331,-1.39685 1.59291,-0.907087 2.89213,-2.13228 3.87244,-3.67638 0.980315,-1.54409 1.49528,-3.28425 1.51969,-5.22087z"/>
  <g id="_515215656">
   <path id="_515250024" class="fil1" d="M460.156 60.9508c-0.565748,-0.301575 -1.04252,-0.72126 -1.36535,-1.30472 -0.379921,-0.685433 -0.54252,-1.4752 -0.359055,-2.24606 0.401181,-1.68583 1.75551,-2.54331 3.41339,-2.64685 0.0874016,-0.00551181 0.192913,-0.0129921 0.281102,-0.030315 0.0141732,-0.00433071 0.0283465,-0.00905512 0.042126,-0.0137795 0.294094,-0.131102 0.586614,-0.185039 0.897638,-0.259449 0.984252,-0.235433 1.95669,-0.138189 2.81457,0.418504 0.721654,0.46811 1.28307,1.11102 1.54134,1.94016 0.50748,1.62795 -0.193307,3.08819 -1.62402,3.94291 -0.794882,0.474803 -1.67165,0.727165 -2.59449,0.788976 -0.131496,0.00866142 -0.262598,0.0137795 -0.393701,0.0153543 1.02913,0.694094 1.73937,1.69094 1.81102,2.96772 0.0818898,1.45354 -0.428346,2.75669 -1.46299,3.73346 -0.924409,1.87559 -1.57244,3.92913 -2.05512,5.95512 -0.244094,1.02283 -0.659449,2.94449 -0.484252,4.24882 0.940551,-0.229528 1.92638,-0.664961 2.7878,-1.08071 1.15354,-0.556693 2.24882,-1.19528 3.36024,-1.82795 0.301969,-0.172047 0.627953,-0.324016 0.922047,-0.502756 2.73228,-1.66063 5.41535,-3.42126 8.10354,-5.15276 2.67913,-1.72638 5.20157,-3.61181 7.67913,-5.61299 0.969291,-0.782677 2.12165,-1.07756 3.26378,-0.772441 0.674409,-0.578346 1.40394,-1.09331 2.19213,-1.50236 0.916142,-0.475197 2.92362,-1.6374 4.1685,-1.65276 0.0547244,-0.0287402 0.112598,-0.0653543 0.154724,-0.092126 0.85,-0.543307 1.81693,-0.698819 2.80472,-0.501181 1.17717,0.235827 2.07677,0.972441 2.4685,2.11811 0.558268,1.63189 0.838189,3.3185 0.902756,5.03189 1.56024,1.1252 3.86929,1.40984 5.68661,1.45472 3.39331,0.084252 6.76614,-0.36811 10.0528,-1.19843 3.51732,-0.888583 6.85276,-2.46299 9.93898,-4.3563 0.27126,-0.555512 0.568504,-1.11417 0.902362,-1.62283 0.687008,-1.04764 1.69213,-1.70669 2.95787,-1.78701 1.15315,-0.073622 2.22087,0.283071 3.00039,1.15157 0.846457,0.942126 1.01654,2.14528 0.548031,3.31378 -0.268898,0.669685 -0.535827,1.33976 -0.800394,2.01102 0.100394,-0.101969 0.201181,-0.20315 0.301969,-0.303937 1.3689,-1.3689 3.18976,-3.08386 5.01457,-3.79134 1.77717,-0.688583 3.6878,-0.563386 5.13976,0.75748 1.04055,0.94685 1.80197,2.1189 2.18268,3.47559 0.385039,1.37087 0.662992,2.77047 0.871654,4.17874 0.188583,1.27205 0.429528,2.54055 0.793307,3.77559 1.08504,3.68543 3.36024,4.77756 7.01417,3.72874 2.84134,-0.815354 5.53189,-2.32953 7.96142,-3.9874 3.35984,-2.29291 6.58504,-4.89252 9.83701,-7.34252 1.15236,-0.86811 2.55,-1.1126 3.85157,-0.431496 1.03701,0.54252 1.77402,1.40709 2.00551,2.56457 0.250394,1.25354 -0.241339,2.38031 -1.15354,3.23976 -3.10039,2.92087 -6.67756,5.46535 -10.2362,7.79488 -3.57047,2.33701 -7.59961,4.49409 -11.8024,5.39606 -3.05118,0.654724 -6.18307,0.47874 -8.95866,-1.04055 -2.60591,-1.42638 -4.39685,-3.67244 -5.42717,-6.44882 -0.731102,-1.97047 -1.20906,-4.0311 -1.50197,-6.11063 -0.0318898,-0.227559 -0.076378,-0.570472 -0.131496,-0.95315 -0.942126,0.979528 -1.91969,2.10906 -2.38543,2.63661 -2.31969,2.62756 -4.55945,5.3248 -6.7248,8.0815 -1.56457,1.99173 -3.07323,4.02362 -4.63228,6.01614 -0.855118,1.09213 -2.08071,1.72087 -3.47756,1.54449 -1.14134,-0.144488 -2.13386,-0.667323 -2.77559,-1.63701 -0.626772,-0.947244 -0.798031,-2.07717 -0.427953,-3.15906 0.790551,-2.31142 1.71575,-4.57402 2.51496,-6.88228 0.517323,-1.49331 1.05433,-2.97953 1.60591,-4.46024 -3.63228,1.44291 -7.48583,2.28898 -11.3732,2.71969 -3.68543,0.408268 -7.79961,0.438976 -11.4287,-0.698819 -1.01496,3.19646 -2.68504,6.0622 -4.97323,8.5874 -2.09961,2.31693 -5.05354,4.95197 -8.36496,5.01614 -4.11654,0.0799213 -6.04449,-2.93819 -6.22598,-6.74803 -0.0799213,-1.68031 0.136614,-3.37205 0.544488,-5.02323 -0.111417,0.0708661 -0.222835,0.142126 -0.334646,0.212598 -3.26063,2.06693 -6.57559,4.07913 -9.96063,5.93701 -2.03346,1.11575 -4.30236,2.28504 -6.52205,2.97441 -1.87913,0.583465 -3.8248,0.658268 -5.62717,-0.211417 -2.20315,-1.06299 -3.41654,-2.99646 -3.72677,-5.39449 -0.294094,-2.27323 -0.109055,-4.58701 0.369291,-6.82205 0.476772,-2.22717 1.13661,-4.4189 2.04055,-6.51142 0.632677,-1.46378 1.48819,-3.42008 2.63425,-4.54528 0.573228,-0.562992 1.23701,-0.925591 1.93268,-1.0626zm-46.4929 0c-0.565748,-0.301575 -1.04252,-0.72126 -1.36535,-1.30472 -0.379921,-0.685433 -0.54252,-1.4752 -0.359055,-2.24606 0.401181,-1.68583 1.75551,-2.54331 3.41339,-2.64685 0.0874016,-0.00551181 0.192913,-0.0129921 0.281102,-0.030315 0.0141732,-0.00433071 0.0283465,-0.00905512 0.042126,-0.0137795 0.294094,-0.131102 0.586614,-0.185039 0.897638,-0.259449 0.984252,-0.235433 1.95669,-0.138189 2.81457,0.418504 0.721654,0.46811 1.28307,1.11102 1.54134,1.94016 0.50748,1.62795 -0.193307,3.08819 -1.62402,3.94291 -0.794882,0.474803 -1.67165,0.727165 -2.59449,0.788976 -0.131496,0.00866142 -0.262598,0.0137795 -0.393701,0.0153543 1.02913,0.694094 1.73937,1.69094 1.81102,2.96772 0.0818898,1.45354 -0.428346,2.75669 -1.46299,3.73346 -0.924409,1.87559 -1.57244,3.92913 -2.05512,5.95512 -0.244094,1.02283 -0.659449,2.94449 -0.484252,4.24882 0.940551,-0.229528 1.92638,-0.664961 2.7878,-1.08071 1.15354,-0.556693 2.24882,-1.19528 3.36024,-1.82795 0.301969,-0.172047 0.627953,-0.324016 0.922047,-0.502756 2.73228,-1.66063 5.41535,-3.42126 8.10315,-5.15276 2.48228,-1.59921 4.96102,-3.3185 7.2248,-5.22598 1.8622,-7.08898 3.76142,-14.1689 5.71535,-21.2331 -4.51102,0.144094 -9.07362,0.32126 -13.5496,0.706299 -1.43937,0.124016 -2.89291,0.234252 -4.3374,0.276378 -1.00197,0.0295276 -2.07953,-0.0385827 -3.03701,-0.353543 -0.959449,-0.315748 -1.71417,-0.929528 -2.30984,-1.73661 -1,-1.35512 -1.2874,-2.97913 -0.0625984,-4.30354 0.777165,-0.839764 1.70906,-1.52874 2.71181,-2.07598 0.324016,-0.177165 0.638583,-0.384646 0.953937,-0.577165 1.10433,-0.673228 2.37874,-0.766929 3.52441,-0.149213 0.73937,0.398819 1.3185,0.965354 1.65157,1.70039 5.49134,-0.430709 11.0071,-0.675591 16.513,-0.82874 0.75315,-2.63504 1.51024,-5.27087 2.30472,-7.89291 0.529921,-1.74803 1.07992,-3.5185 1.7189,-5.23031 0.425197,-1.13858 0.866535,-2.31417 1.46142,-3.37598 0.643701,-1.14961 1.72795,-1.80709 3.03701,-1.8874 1.15315,-0.0708661 2.20709,0.26063 3.09016,1.00866 0.931496,0.78937 1.45866,1.87874 1.44724,3.10787 -0.00748031,0.788583 -0.23189,1.54252 -0.550787,2.25787 -0.283858,0.636614 -0.638189,1.23031 -1.04843,1.79291 -0.172835,0.237402 -0.371654,0.502362 -0.590551,0.739764 -1.03228,3.09134 -1.9874,6.2122 -2.9,9.34213 8.0315,0.0110236 16.061,0.630709 24.0969,0.630709l0.0901575 0c1.46378,0 2.72362,0.779134 3.31575,2.12362 0.464567,1.05512 0.468504,2.17087 -0.00590551,3.22283 -0.633071,1.40236 -2.02402,1.95827 -3.49646,1.91299 -8.67953,-0.266929 -17.3598,-0.707874 -26.0457,-0.591732 -3.59961,12.9713 -7.04252,25.987 -10.3705,39.0303 -1.57047,6.15472 -3.09882,12.3185 -4.62638,18.4839 -0.957874,3.86575 -1.89646,7.76417 -2.96693,11.5996 -0.394094,1.41181 -1.44016,2.37087 -2.88268,2.62323 -1.22008,0.213386 -2.38465,-0.0791339 -3.34843,-0.855512 -1.07795,-0.868504 -1.53307,-2.11378 -1.22795,-3.46969 0.951181,-4.22441 2.03386,-8.43425 3.10827,-12.6287 1.56299,-6.1 3.14921,-12.1941 4.7122,-18.2941 0.329528,-1.28465 0.658661,-2.56929 0.988976,-3.85394 -0.36063,0.233465 -0.722441,0.464961 -1.08504,0.694882 -3.26063,2.06693 -6.57559,4.07913 -9.96063,5.93701 -2.03346,1.11575 -4.30236,2.28504 -6.52205,2.97441 -1.87913,0.583465 -3.8248,0.658268 -5.62717,-0.211417 -2.20315,-1.06299 -3.41654,-2.99646 -3.72677,-5.39449 -0.294094,-2.27323 -0.109055,-4.58701 0.369291,-6.82205 0.23189,-1.08386 0.507087,-2.15945 0.833071,-3.21929 -7.93898,2.26772 -15.663,5.35354 -23.0996,8.91575 -1.64016,2.27283 -3.64567,4.23937 -5.89055,5.91772 -2.68071,2.00394 -5.76575,3.04331 -9.10984,2.42559 -1.42913,-0.264173 -2.5185,-1.21614 -2.8185,-2.65236 -0.0704724,-0.338976 -0.101181,-0.677953 -0.0893701,-1.00984 -0.343701,0.174409 -0.725591,0.296457 -1.14055,0.360236 -1.21378,0.186614 -2.36457,-0.0858268 -3.32756,-0.859055 -1.07874,-0.866535 -1.50276,-2.10906 -1.21969,-3.46142 0.237402,-1.13425 0.505118,-2.26772 0.78937,-3.39803 -0.259055,0.166929 -0.518504,0.332677 -0.77874,0.497244 -3.26102,2.06693 -6.57559,4.07913 -9.96063,5.93701 -2.03346,1.11575 -4.30236,2.28504 -6.52205,2.97441 -1.87913,0.583465 -3.8248,0.658268 -5.62717,-0.211417 -2.20315,-1.06299 -3.41654,-2.99646 -3.72677,-5.39449 -0.208268,-1.60866 -0.176378,-3.2378 0.0295276,-4.84528 -2.21181,1.49094 -4.48307,2.90512 -6.75787,4.27008 -3.42087,2.05236 -11.0917,6.58858 -15.2291,6.09331 -2.23268,-0.267323 -4.74843,-0.980709 -6.0748,-2.95079 -0.906693,-1.34724 -1.55039,-2.83031 -1.70551,-4.45866 -0.290157,-3.0437 0.0330709,-6.10669 0.59252,-9.10079 0.183071,-0.979528 0.324016,-1.96535 0.471654,-2.95079 0.0251969,-0.169291 0.065748,-0.442913 0.102362,-0.744094 -2.44331,1.56181 -5.15039,4.84173 -6.67165,6.76496 -3.20512,4.05276 -5.61378,8.5563 -7.3685,13.4059 -0.142126,0.393701 -0.238976,1.09882 -0.324803,1.52362 -0.287008,1.41811 -1.14843,2.53346 -2.53583,2.99606 -1.18386,0.394488 -2.40315,0.301575 -3.4689,-0.361417 -1.14685,-0.713386 -1.78031,-1.87244 -1.59921,-3.23031 0.542913,-4.0689 1.46693,-8.04724 2.50472,-12.0039 -2.44409,1.63661 -4.9374,3.20039 -7.46339,4.70354 -5.1689,3.07677 -10.6591,5.6122 -16.4358,7.31378 -4.9437,1.45591 -10.3878,2.00669 -15.1799,-0.274409 -2.75591,-1.31142 -5.08228,-3.20118 -6.70433,-5.69173 -0.854331,1.02677 -1.68701,2.07323 -2.47835,3.14528 -0.918504,1.24449 -1.80433,2.48465 -2.82913,3.64803 -0.792913,0.9 -1.84843,1.4374 -3.05591,1.4374 -1.0815,0 -2.08543,-0.370079 -2.74764,-1.25354 -0.712205,-0.949606 -0.725197,-2.13071 -0.201969,-3.1752 1.12835,-2.25315 2.68661,-4.36299 4.24488,-6.33543 1.28189,-1.62244 2.61142,-3.21811 4.00551,-4.74803 -0.0547244,-0.174803 -0.10748,-0.350394 -0.159055,-0.526378 -6.92795,6.8563 -14.5295,12.9685 -22.3555,18.7654 -3.31772,2.45748 -6.85551,4.59291 -10.5783,6.37795 -3.47913,1.6685 -7.26772,2.73504 -11.1547,2.50827 -4.19094,-0.244882 -7.09764,-2.77559 -8.65354,-6.60315 -1.46102,-3.5937 -1.08543,-7.50118 0.0425197,-11.1283 1.26142,-4.05669 3.09646,-7.92008 5.29685,-11.5488 2.17402,-3.58504 4.53937,-7.06299 7.1248,-10.3646 1.88858,-2.41102 3.83031,-4.76339 5.77087,-7.1311 0.358661,-0.437402 0.69685,-0.891732 1.0563,-1.32717 0.358268,-0.435039 0.733071,-0.857087 1.10669,-1.27874 0.520866,-0.588583 1.03031,-1.19213 1.50669,-1.8189 -0.200787,0.00708661 -0.400394,0.0133858 -0.597638,0.0161417 -0.766535,0.0102362 -1.53268,-0.00511811 -2.29882,0 -3.05787,0.0200787 -6.35079,-0.370472 -9.04331,-1.92323 -3.12677,-1.80276 -3.67205,-5.08937 -2.70748,-8.3685 1.29331,-4.39803 6.2563,-9.06339 9.59764,-12.0181 5.1311,-4.5378 10.7354,-8.4811 16.8594,-11.5697 3.32756,-1.67795 7.90079,-3.57795 11.7051,-3.33425 2.70118,0.172835 5.3185,1.21378 5.94606,4.10827 0.559055,2.57795 -0.540551,5.03819 -2.08031,7.05276 -1.67874,2.19606 -3.59449,4.19449 -5.77441,5.89803 -1.31142,1.0252 -2.91654,1.43228 -4.48976,0.784646 -1.27047,-0.523228 -2.25433,-1.42244 -2.65984,-2.7563 -0.451969,-1.48661 0.1,-2.87638 1.19055,-3.92677 0.461024,-0.444488 1.00551,-0.784646 1.62756,-0.951575 0.364173,-0.0976378 0.725197,-0.152756 1.09803,-0.205118 0.0240157,-0.00472441 0.0496063,-0.0129921 0.0751969,-0.0216535 0.465354,-0.412598 0.885827,-0.867717 1.30315,-1.32835 0.369291,-0.40748 0.72126,-0.833071 1.06102,-1.26614 -1.05236,0.351969 -2.15866,0.821654 -2.72598,1.0689 -5.79134,2.52559 -11.0862,5.92835 -15.8969,10.0185 -2.87362,2.44331 -7.53504,6.52323 -9.25118,9.92323 -0.0948819,0.188583 -0.344094,0.746063 -0.338976,1.0185 0.0110236,0.00551181 0.0216535,0.0102362 0.030315,0.0141732 1.1752,0.51378 3.00827,0.576378 4.27126,0.567717 0.666142,-0.00472441 1.33386,-0.00748031 1.99921,-0.0429134 1.53465,-0.0818898 3.06142,-0.117717 4.59173,0.0531496 2.73228,0.305512 5.51969,1.6311 5.37717,4.78583 -0.10748,2.37559 -1.33386,4.62205 -2.71614,6.49646 -1.0189,1.3815 -2.1374,2.72559 -3.23346,4.04685 -2.10669,2.53898 -4.16102,5.12323 -6.17795,7.73386 -2.32677,3.01181 -4.48622,6.15079 -6.49331,9.38425 -1.82008,2.93228 -3.4185,6.06102 -4.53268,9.33307 -0.766142,2.25 -1.28937,4.89961 -0.534252,7.22323 0.403937,1.24409 1.11535,2.00591 2.44764,2.10276 1.90591,0.138189 3.99291,-0.525197 5.72126,-1.26811 2.32047,-0.997244 4.55354,-2.1815 6.66693,-3.56496 4.66929,-3.05669 9.12835,-6.44213 13.3957,-10.0366 2.49173,-2.09843 4.9689,-4.21496 7.42677,-6.35315l-1.12362 0.348819 6.56142 -5.39764c0.991732,-0.816142 2.1689,-1.13307 3.37953,-0.82126 -0.0232283,-1.44606 0.162598,-2.88189 0.625984,-4.28346 0.516929,-1.56181 1.66417,-2.66457 3.30472,-2.92756 1.34843,-0.215748 2.63386,0.0586614 3.70827,0.912992 1.10748,0.880709 1.68189,2.13465 1.57205,3.55394 -0.0712598,0.922835 -0.506693,1.7311 -1.1689,2.36732 -0.0858268,0.0826772 -0.174016,0.165748 -0.264173,0.247638 0.0141732,0.19685 0.034252,0.394882 0.0598425,0.592913 2.59685,-2.50709 5.36063,-4.82087 8.32008,-6.90945 1.17087,-0.826772 2.59724,-1.19252 3.95551,-0.603937 1.14764,0.49685 1.97874,1.40669 2.12205,2.68228 0.150787,1.33701 -0.562205,2.46142 -1.58583,3.25118 -3.69331,2.84843 -7.28504,5.8689 -10.528,9.22795 0.588976,1.28346 1.35984,2.46142 2.30984,3.52165 1.13386,1.26496 2.50787,2.16457 4.15433,2.62087 3.41063,0.944882 7.55748,-0.168504 10.7677,-1.36929 4.73386,-1.77047 9.26772,-4.08228 13.5665,-6.73346 4.01457,-2.47559 7.80472,-5.18071 11.6165,-7.94961 0.220472,-0.160236 0.45315,-0.300787 0.695669,-0.420079 0.902362,-2.85669 1.8815,-5.68937 2.93701,-8.49331 3.2185,-8.54961 6.9315,-17.1126 11.4902,-25.0402 2.46929,-4.2937 6.45354,-10.9839 10.4736,-13.9602 1.70512,-1.2622 4.08622,-2.27047 5.99882,-0.791732 1.43307,1.10827 2.05079,2.72835 1.90512,4.52323 -0.351969,4.33583 -3.45315,10.078 -5.56614,13.8197 -3.27795,5.80512 -6.7937,11.4736 -10.5276,16.9961 -2.72205,4.02559 -5.49685,8.16535 -8.45591,12.0252 -0.076378,0.219291 -0.15315,0.440945 -0.231102,0.663386 2.17362,-2.2811 4.75,-4.36181 7.71575,-5.37402 1.45079,-0.495276 2.92441,-0.485433 4.37913,-0.0275591 1.55787,0.490157 2.7185,1.53031 3.34252,3.04685 0.484252,1.17638 0.647244,2.44291 0.574409,3.70906 -0.0622047,1.08228 -0.206693,2.15591 -0.379921,3.22559 -0.0208661,0.127953 -0.0188976,0.278346 -0.0267717,0.409055 -0.0275591,0.437008 -0.114173,0.850787 -0.184646,1.28031 -0.229528,1.39173 -0.43189,2.7878 -0.590157,4.18937 -0.124409,1.10394 -0.165354,2.30354 0.0535433,3.39843 0.205118,1.02717 1.1437,0.894882 2.01693,0.756693 2.94921,-0.466929 8.37953,-3.83268 10.9031,-5.40945 4.19724,-2.62244 8.75039,-5.60748 12.3906,-8.97362 0.355906,-0.329134 0.750787,-0.599213 1.18465,-0.790945 0.188583,-0.272835 0.391339,-0.534646 0.629528,-0.768898 0.573228,-0.562992 1.23701,-0.926378 1.93268,-1.06299 -0.565354,-0.301575 -1.04213,-0.72126 -1.36496,-1.30472 -0.379921,-0.685433 -0.54252,-1.4752 -0.359055,-2.24606 0.401181,-1.68583 1.75551,-2.54331 3.41339,-2.64685 0.0874016,-0.00551181 0.192913,-0.0129921 0.281102,-0.030315 0.0141732,-0.00433071 0.0283465,-0.00905512 0.042126,-0.0137795 0.294094,-0.131102 0.586614,-0.185039 0.897638,-0.259449 0.984252,-0.235433 1.95669,-0.138189 2.81457,0.418504 0.721654,0.46811 1.28307,1.11102 1.54134,1.94016 0.50748,1.62795 -0.193307,3.08819 -1.62402,3.94291 -0.794882,0.474803 -1.67165,0.727165 -2.59449,0.788976 -0.131496,0.00866142 -0.262598,0.0137795 -0.393701,0.0153543 1.02913,0.694094 1.73937,1.69094 1.81102,2.96772 0.0818898,1.45354 -0.428346,2.75669 -1.46299,3.73346 -0.924409,1.87559 -1.57244,3.92913 -2.05512,5.95512 -0.244094,1.02283 -0.659449,2.94449 -0.484252,4.24882 0.940551,-0.229528 1.92638,-0.664961 2.7878,-1.08071 1.15354,-0.556693 2.24882,-1.19528 3.36024,-1.82795 0.301969,-0.172047 0.627953,-0.324016 0.922047,-0.502756 2.73228,-1.66063 5.41535,-3.42126 8.10354,-5.15276 2.44094,-1.57283 4.87441,-3.25945 7.10669,-5.12717 1.91496,-6.61457 4.07008,-13.1606 6.41772,-19.6339 2.29331,-6.32441 4.93465,-12.5724 8.10079,-18.5122 2.13268,-4.00157 5.2874,-8.9622 9.42244,-11.1339 1.24488,-0.653543 2.58031,-0.607087 3.8315,0.0125984 1.45945,0.722441 2.17402,2.1811 2.47559,3.71457 0.394094,2.00551 -0.0933071,4.56732 -0.573622,6.52638 -1.41614,5.77717 -4.44252,11.9358 -7.21732,17.1744 -3.42598,6.4685 -7.59724,12.5949 -12.1248,18.3697 1.19449,-0.624803 2.47126,-1.08031 3.8315,-1.30827 2.09449,-0.350787 4.1122,0.0700787 5.90236,1.19606 1.81693,1.14291 2.95591,2.82717 3.5063,4.89409 0.241339,0.905118 0.356299,1.8122 0.346457,2.71417 7.0626,-3.05157 14.2598,-5.51654 21.8228,-7.16378 0.479134,-0.104331 0.963386,-0.124409 1.43268,-0.0515748 0.437795,-0.311811 0.912205,-0.520472 1.40236,-0.616929zm-44.7327 19.1264c1.47441,-1.32362 3.14252,-2.43425 4.80433,-3.50157 1.85,-1.18819 3.74882,-2.30433 5.70433,-3.31024 0.801969,-1.37008 2.3685,-4.31063 1.90197,-5.52126 -0.122047,-0.315748 -0.372047,-1.01339 -0.822835,-0.922047 -2.27008,0.459843 -4.48701,2.5752 -5.98898,4.22717 -1.84803,2.03228 -3.66378,4.26063 -5.07441,6.63031 -0.190945,0.796063 -0.345669,1.59882 -0.524409,2.39764zm122.777 -10.0287c-0.238976,-0.254724 -0.44685,-0.537402 -0.627559,-0.842126 -0.858661,0.960236 -1.58504,2.1122 -2.10512,3.02283 -1.34961,2.36299 -2.28189,4.91378 -2.49882,7.62441 0.222047,-0.205906 0.414567,-0.393307 0.533465,-0.509449 1.31614,-1.28622 2.35236,-2.85472 3.18701,-4.48701 0.77874,-1.52283 1.28819,-3.12795 1.51102,-4.80866z"/>
  </g>
  <path class="fil2" d="M235.261 67.7917l-0.43622 0.135433c0.677165,-0.557087 1.38425,-0.70748 2.13661,-0.421654 0.752362,0.270866 1.23386,0.722441 1.45945,1.32441 0.21063,0.601575 0.0452756,1.18858 -0.511417,1.7752 -7.26772,6.96654 -14.8961,13.4213 -22.9307,19.3646 -3.20512,2.37756 -6.63543,4.45394 -10.3067,6.21417 -3.67126,1.76063 -7.11693,2.54291 -10.337,2.34724 -3.21969,-0.180315 -5.62717,-2.04606 -7.20709,-5.56693 -1.08346,-2.96417 -1.0685,-6.30433 0.0901575,-10.0059 1.1437,-3.70157 2.85906,-7.43307 5.13071,-11.1795 2.27205,-3.74646 4.61929,-7.14685 7.01181,-10.2012 2.39213,-3.05472 4.30315,-5.41693 5.74764,-7.10197 0.43622,-0.556693 0.797638,-0.992913 1.05315,-1.32402 0.331102,-0.376378 0.677165,-0.782677 1.0685,-1.23386 0.707087,-0.782283 1.33898,-1.56496 1.89567,-2.33228 0.556693,-0.767323 0.872835,-1.32402 0.948031,-1.7 0.0751969,-0.361417 -0.0452756,-0.556693 -0.331102,-0.587008 -0.827559,0 -1.77559,0.0149606 -2.87402,0.0452756 -0.782283,0 -1.54961,0 -2.28701,0 -3.41535,0.0448819 -6.13858,-0.511811 -8.2,-1.70039 -2.06142,-1.18858 -2.70827,-3.34016 -1.94094,-6.45472 1.05315,-3.06969 4.09252,-6.81614 9.10276,-11.2398 5.01063,-4.43858 10.5177,-8.21535 16.5059,-11.3299 4.64921,-2.27205 8.26063,-3.3252 10.8484,-3.15945 2.58819,0.165354 4.0626,1.09803 4.42362,2.79843 0.376378,1.70039 -0.225591,3.59606 -1.77559,5.6874 -1.6248,2.06142 -3.44528,3.92717 -5.47677,5.59724 -0.992913,0.737402 -1.94094,0.91811 -2.82874,0.556693 -0.902756,-0.375984 -1.47441,-0.932677 -1.7,-1.7 -0.240945,-0.767323 0.0149606,-1.51969 0.752362,-2.24213 0.285827,-0.270866 0.586614,-0.451181 0.902756,-0.541732 0.300787,-0.0751969 0.601575,-0.135039 0.902756,-0.165354 0.165354,-0.0299213 0.330709,-0.0751969 0.451181,-0.120472 0.135433,-0.0448819 0.270866,-0.120079 0.42126,-0.240551 0.556693,-0.526772 1.0685,-1.03819 1.50472,-1.51969 0.43622,-0.481496 0.887795,-1.03819 1.36929,-1.65512 1.39921,-1.85079 1.60984,-2.79882 0.586614,-2.8437 -1.00787,-0.0452756 -2.85866,0.511417 -5.52205,1.65512 -5.91299,2.61811 -11.3449,6.04843 -16.3102,10.2764 -4.98031,4.22835 -8.18504,7.7189 -9.65945,10.4421 -0.797638,1.70039 -0.63189,2.81378 0.511417,3.31024 1.12835,0.49685 2.78346,0.737402 4.95039,0.70748 0.707087,0 1.39921,-0.0153543 2.07638,-0.0452756 1.44449,-0.0901575 2.87362,-0.0751969 4.31811,0.0452756 2.67835,0.375984 3.97244,1.39921 3.89724,3.05433 -0.0751969,1.67008 -0.872835,3.52087 -2.39252,5.58228 -0.677165,0.917717 -1.74528,2.22677 -3.1748,3.97205 -1.82047,2.16654 -3.89685,4.76969 -6.21417,7.77913 -2.33228,3.00906 -4.52874,6.18386 -6.59016,9.52402 -2.07638,3.3252 -3.64134,6.56024 -4.69449,9.6748 -1.06811,3.11457 -1.23386,5.86811 -0.541732,8.27559 0.737402,2.0311 2.04646,3.11457 3.9122,3.25 1.86575,0.135433 4.03228,-0.331102 6.5,-1.39921 2.46732,-1.05315 4.76969,-2.28701 6.92126,-3.70157 4.40866,-2.87362 8.92244,-6.25906 13.5567,-10.1563 4.61929,-3.89685 9.05787,-7.73386 13.2858,-11.5252zm55.4008 -2.42244c0.827559,-0.557087 1.57992,-0.69252 2.25669,-0.406299 0.677165,0.300787 1.05354,0.752362 1.12874,1.35394 0.0602362,0.601969 -0.240945,1.18858 -0.902756,1.77559 -4.09291,3.14449 -8.80236,6.30433 -14.1287,9.47913 -5.34134,3.1748 -10.6827,5.56732 -16.0543,7.14685 -5.3563,1.57992 -10.0209,1.53504 -13.9929,-0.180315 -3.49094,-1.82087 -5.86811,-4.19803 -7.10197,-7.13189 -1.57992,1.82047 -2.96417,3.52087 -4.1378,5.10039 -0.827559,1.12874 -1.73031,2.30236 -2.73858,3.53622 -0.556693,0.586614 -1.15827,0.872441 -1.80551,0.872441 -0.64685,0 -1.11339,-0.195669 -1.41417,-0.586614 -0.285827,-0.391339 -0.301181,-0.872835 -0.0452756,-1.42953 1.03819,-1.91102 2.39252,-3.92717 4.0626,-6.04843 1.67008,-2.10669 3.20472,-3.89724 4.58898,-5.37165 -0.586614,-1.67008 -1.05315,-3.52087 -1.3689,-5.53701 -0.331102,-2.01614 -0.211024,-3.97244 0.346063,-5.88307 0.390945,-1.05354 1.05315,-1.65512 1.98583,-1.80551 0.948031,-0.150787 1.74528,0.0448819 2.40748,0.571654 0.662205,0.526378 0.977953,1.23386 0.948031,2.12126 -0.0602362,0.49685 -0.285827,0.933071 -0.662205,1.29409 -0.390945,0.376378 -0.64685,0.571654 -0.797244,0.601969 -0.030315,1.35394 0.240551,2.93386 0.797244,4.75472 2.81378,-2.93425 6.22913,-5.89843 10.2315,-8.8626 0.872835,-0.586614 1.65512,-0.737008 2.33228,-0.43622 0.677165,0.285827 1.05315,0.737402 1.12835,1.33937 0.0602362,0.601575 -0.255512,1.18858 -0.947638,1.74528 -4.21299,3.11457 -8.03504,6.51496 -11.4654,10.1862 0.707087,1.88071 1.71535,3.55118 3.02402,4.99528 1.29409,1.45984 2.94921,2.49803 4.95039,3.11457 3.23504,0.797638 7.1622,0.316142 11.7965,-1.41417 4.61929,-1.73031 9.25354,-4.03228 13.8575,-6.87598 4.61929,-2.84409 8.5315,-5.52205 11.7213,-8.01969zm49.0661 -0.572047c0.556693,-0.526378 1.20354,-0.752362 1.95591,-0.64685 0.752362,0.105118 1.26378,0.466535 1.51969,1.06811 0.270866,0.601969 0.105512,1.26417 -0.481496,2.00118 -2.96417,2.90394 -7.94449,6.47008 -14.9409,10.6681 -6.99646,4.19764 -11.7213,6.15394 -14.1736,5.86772 -2.45276,-0.300787 -4.09252,-1.03819 -4.89016,-2.22677 -0.812598,-1.20354 -1.29409,-2.42244 -1.42913,-3.68622 -0.240945,-2.87402 -0.0452756,-5.7626 0.571654,-8.63661 0.165354,-1.03819 0.331102,-2.0311 0.481496,-3.00945 0.195669,-1.33898 0.240551,-2.27165 0.135433,-2.7685 -0.120472,-0.496457 -0.526772,-0.616535 -1.18858,-0.361024 -2.27205,0.977953 -5.08583,3.59606 -8.47126,7.86929 -3.38543,4.28819 -5.92835,8.90748 -7.62835,13.8728 -0.120472,0.315748 -0.240945,0.902756 -0.391339,1.76024 -0.21063,0.917717 -0.692126,1.48976 -1.42953,1.74528 -0.752362,0.240945 -1.44449,0.180709 -2.06142,-0.195276 -0.616535,-0.391339 -0.887402,-0.91811 -0.827559,-1.59488 1.94134,-10.8484 4.73976,-21.1252 8.39606,-30.8299 3.6563,-9.72008 7.44803,-17.9807 11.3752,-24.7965 3.91181,-6.81614 7.26732,-11.3 10.0205,-13.4516 1.76063,-1.23386 3.09961,-1.50472 3.9874,-0.812598 0.902756,0.69252 1.32402,1.71535 1.26378,3.06969 -0.361024,3.05433 -2.13622,7.43268 -5.3563,13.1354 -3.22008,5.70236 -6.69567,11.3299 -10.4571,16.8819 -3.74685,5.55197 -6.59055,9.59961 -8.56142,12.1575 -1.41457,4.09252 -2.31732,6.9063 -2.69331,8.47126 0.0299213,-0.030315 1.36929,-1.56496 4.01732,-4.60433 2.63307,-3.03937 5.37165,-5.11575 8.18504,-6.19921 1.15866,-0.346063 2.25709,-0.361024 3.34055,-0.0149606 1.06811,0.331102 1.83543,1.02323 2.30197,2.09134 0.361024,0.933071 0.511417,1.92598 0.451575,2.97913 -0.0602362,1.03819 -0.180709,2.06142 -0.361417,3.05472 -0.0299213,0.21063 -0.0448819,0.405906 -0.0448819,0.571654 -0.0452756,0.361024 -0.105512,0.722047 -0.165748,1.11339 -0.240551,1.36929 -0.43622,2.79843 -0.601575,4.27323 -0.165748,1.45945 -0.135433,2.7685 0.0751969,3.91181 0.375984,1.74567 1.68504,2.4378 3.91181,2.07638 2.24213,-0.346063 6.07874,-2.22677 11.5256,-5.64213 5.46181,-3.40039 9.65984,-6.47008 12.639,-9.16339zm-23.713 -41.0465c-0.616929,0.0905512 -2.10669,2.10669 -4.43858,6.06378 -2.33228,3.95709 -4.48386,8.05 -6.45512,12.278 -1.97087,4.22795 -2.96417,6.40984 -2.99409,6.52992 4.96535,-7.79409 8.66654,-13.9028 11.1193,-18.3413 2.46732,-4.43858 3.38543,-6.62047 2.7685,-6.53031zm50.6909 41.8291c0.737402,-0.556693 1.45945,-0.662205 2.16693,-0.316142 0.692126,0.331102 1.14331,0.812598 1.33898,1.42953 0.195669,0.616929 0,1.20354 -0.556693,1.76024 -2.40748,2.06142 -5.52205,4.30315 -9.3437,6.72559 -3.82165,2.42244 -7.10197,4.37874 -9.87047,5.88346 -2.49764,1.38425 -4.57402,2.33189 -6.21417,2.8437 -1.65512,0.511417 -3.11457,0.481496 -4.40866,-0.120472 -1.6248,-0.812598 -2.55787,-2.19685 -2.79843,-4.10748 -0.255906,-1.92598 -0.135433,-4.01772 0.346063,-6.25945 0.481496,-2.25709 1.12835,-4.3185 1.94094,-6.19921 0.812598,-1.88071 1.56496,-3.21969 2.27205,-4.01732 0.827559,-0.707087 1.60984,-0.812598 2.3622,-0.346063 0.752362,0.466535 1.1437,1.05315 1.20354,1.76063 0.030315,1.08307 -0.346063,1.95591 -1.14331,2.60276 -0.933071,1.82087 -1.71535,4.01732 -2.33228,6.60551 -0.616929,2.5878 -0.692126,4.57402 -0.225591,5.95827 0.21063,0.406299 0.752362,0.526772 1.60984,0.331102 0.872835,-0.195669 1.95591,-0.601969 3.26496,-1.23386 1.30906,-0.63189 2.46772,-1.26378 3.46063,-1.88071 0.376378,-0.195669 0.70748,-0.376378 0.962992,-0.526772 2.30236,-1.44449 5.01063,-3.15984 8.14016,-5.17598 3.12953,-2.01614 5.73268,-3.91181 7.82402,-5.71732zm-23.2315 -5.94331c-0.496457,-0.180709 -0.84252,-0.436614 -1.03819,-0.797638 -0.195669,-0.346063 -0.255512,-0.707087 -0.195669,-1.05315 0.270866,-0.887795 0.902756,-1.33937 1.89606,-1.36929 0.315748,-0.0299213 0.541732,-0.0602362 0.63189,-0.0901575 0.105512,-0.030315 0.195669,-0.0602362 0.255906,-0.0905512 0.135433,-0.0598425 0.346063,-0.105118 0.616929,-0.165354 0.586614,-0.150394 1.08307,-0.0901575 1.51969,0.195669 0.42126,0.270866 0.707087,0.616929 0.85748,1.03819 0.225591,0.84252 -0.0602362,1.51969 -0.887795,2.01614 -0.556693,0.331102 -1.17362,0.511417 -1.85079,0.556693 -0.676772,0.0452756 -1.27874,-0.0299213 -1.80551,-0.240551zm46.8091 -38.1276c-1.97087,2.19685 -3.97205,5.2811 -5.98858,9.25354 -2.27165,4.4689 -4.33307,9.0878 -6.19882,13.8575 -1.86575,4.78504 -2.90394,7.50827 -3.11457,8.18543 4.70945,-6.62047 8.41063,-13.1055 11.1193,-19.485 2.22677,-5.26614 3.62598,-9.19331 4.18268,-11.8114zm20.8992 41.7386c0.842913,-0.150394 1.50472,0.0602362 1.9563,0.616929 0.451181,0.556693 0.63189,1.15866 0.526378,1.79055 -0.105118,0.63189 -0.586614,1.08307 -1.47441,1.33898 -9.05787,2.18189 -18.552,5.65748 -28.5126,10.4571 -1.50472,2.16693 -3.43071,4.1378 -5.77795,5.89843 -2.3622,1.76024 -4.95039,2.46732 -7.80906,2.12126 -0.84252,-0.21063 -1.35433,-0.661811 -1.48976,-1.35394 -0.150394,-0.677165 0,-1.29409 0.436614,-1.82087 1.67008,-1.56457 3.53583,-2.99409 5.59724,-4.31811 2.06142,-1.32402 4.04724,-2.46772 5.98819,-3.44567 2.09173,-3.43071 2.8437,-5.89803 2.27205,-7.3878 -0.571654,-1.47441 -1.47441,-2.13661 -2.70827,-1.95591 -2.25709,0.586614 -4.55906,2.16654 -6.89134,4.73937 -2.34724,2.57323 -4.1378,4.95039 -5.40157,7.11693 -0.300787,1.20394 -0.571654,2.4378 -0.84252,3.70157 -0.270866,0.827559 -0.782283,1.29409 -1.56496,1.41417 -0.782283,0.120472 -1.45945,-0.0448819 -2.0311,-0.511417 -0.571654,-0.451575 -0.782283,-1.05315 -0.63189,-1.82047 0.767323,-3.44567 2.0311,-8.27559 3.83661,-14.5047 1.79055,-6.22913 3.92717,-12.7744 6.40984,-19.6205 2.48268,-6.84606 5.14606,-12.9398 8.00472,-18.2965 2.8437,-5.34134 5.74764,-8.83189 8.72677,-10.4421 0.737402,-0.375984 1.50472,-0.375984 2.31732,0.030315 0.797244,0.390945 1.32402,1.24882 1.57953,2.54252 0.255906,1.30906 0.0602362,3.25039 -0.556693,5.80827 -1.08307,4.34803 -3.44528,9.94528 -7.07165,16.7913 -3.62598,6.84606 -8.45591,13.9331 -14.4744,21.2457 -0.616929,2.15157 -0.993307,3.43031 -1.09843,3.83661 0.0751969,-0.120079 1.05315,-0.977953 2.9189,-2.55787 1.86575,-1.59488 3.9122,-2.60276 6.10866,-3.03937 1.76063,-0.240551 3.34055,0.0905512 4.73976,0.962992 1.39921,0.887795 2.31732,2.18189 2.78346,3.9122 0.451575,1.71535 0.376378,3.41535 -0.240551,5.08543 6.89094,-3.14449 15.0311,-5.92795 24.3748,-8.33543zm26.8425 2.33228c0.737402,-0.556693 1.45945,-0.662205 2.16693,-0.316142 0.692126,0.331102 1.14331,0.812598 1.33898,1.42953 0.195669,0.616929 0,1.20354 -0.556693,1.76024 -2.40748,2.06142 -5.52205,4.30315 -9.3437,6.72559 -3.82165,2.42244 -7.10197,4.37874 -9.87047,5.88346 -2.49764,1.38425 -4.57402,2.33189 -6.21417,2.8437 -1.65512,0.511417 -3.11457,0.481496 -4.40866,-0.120472 -1.6248,-0.812598 -2.55787,-2.19685 -2.79843,-4.10748 -0.255906,-1.92598 -0.135433,-4.01772 0.346063,-6.25945 0.481496,-2.25709 1.12835,-4.3185 1.94094,-6.19921 0.812598,-1.88071 1.56496,-3.21969 2.27205,-4.01732 0.827559,-0.707087 1.60984,-0.812598 2.3622,-0.346063 0.752362,0.466535 1.1437,1.05315 1.20354,1.76063 0.030315,1.08307 -0.346063,1.95591 -1.14331,2.60276 -0.933071,1.82087 -1.71535,4.01732 -2.33228,6.60551 -0.616929,2.5878 -0.692126,4.57402 -0.225591,5.95827 0.21063,0.406299 0.752362,0.526772 1.60984,0.331102 0.872835,-0.195669 1.95591,-0.601969 3.26496,-1.23386 1.30906,-0.63189 2.46772,-1.26378 3.46063,-1.88071 0.376378,-0.195669 0.70748,-0.376378 0.962992,-0.526772 2.30236,-1.44449 5.01063,-3.15984 8.14016,-5.17598 3.12953,-2.01614 5.73268,-3.91181 7.82402,-5.71732zm-23.2315 -5.94331c-0.496457,-0.180709 -0.84252,-0.436614 -1.03819,-0.797638 -0.195669,-0.346063 -0.255512,-0.707087 -0.195669,-1.05315 0.270866,-0.887795 0.902756,-1.33937 1.89606,-1.36929 0.315748,-0.0299213 0.541732,-0.0602362 0.63189,-0.0901575 0.105512,-0.030315 0.195669,-0.0602362 0.255906,-0.0905512 0.135433,-0.0598425 0.346063,-0.105118 0.616929,-0.165354 0.586614,-0.150394 1.08307,-0.0901575 1.51969,0.195669 0.42126,0.270866 0.707087,0.616929 0.85748,1.03819 0.225591,0.84252 -0.0602362,1.51969 -0.887795,2.01614 -0.556693,0.331102 -1.17362,0.511417 -1.85079,0.556693 -0.676772,0.0452756 -1.27874,-0.0299213 -1.80551,-0.240551zm61.5697 -21.3811l0.0901575 0c0.917717,0.120472 1.50472,0.496457 1.79055,1.12874 0.270866,0.63189 0.270866,1.24882 0,1.86575 -0.285827,0.616929 -0.917717,0.932677 -1.92598,0.932677 -9.04291,-0.556693 -18.176,-0.752362 -27.3693,-0.571654 -3.40039,12.2177 -6.9815,25.639 -10.713,40.2638 -3.7315,14.6252 -6.25945,24.6311 -7.58346,30.0476 -0.255512,0.812598 -0.782283,1.29409 -1.56457,1.42953 -0.767323,0.135433 -1.44449,-0.0452756 -2.01614,-0.511811 -0.587008,-0.466535 -0.797638,-1.06811 -0.647244,-1.80551 1.59488,-6.46969 4.18307,-16.7614 7.80906,-30.8752 3.61102,-14.1283 7.01181,-26.9476 10.2165,-38.4583 -7.34252,0.225591 -12.6539,0.496457 -15.9039,0.782283 -1.79055,0.150787 -3.20472,0.240945 -4.24331,0.270866 -1.02283,0.030315 -1.85039,-0.0602362 -2.46732,-0.270866 -0.616929,-0.195276 -1.11339,-0.586614 -1.48976,-1.14331 -0.677165,-0.84252 -0.737008,-1.57992 -0.180315,-2.18189 0.556693,-0.601575 1.32402,-1.17362 2.28701,-1.74528 0.330709,-0.165354 0.661811,-0.375984 1.02323,-0.616929 0.676772,-0.375984 1.2937,-0.406299 1.86575,-0.105118 0.571654,0.315748 0.917717,0.722047 1.03819,1.26378 0.120079,0.526772 0.195276,0.767323 0.225591,0.737402 5.55197,-0.466535 11.8717,-0.782677 18.9583,-0.962992 1.08346,-3.79173 1.95591,-6.80118 2.63307,-9.04291 0.677165,-2.22677 1.23386,-3.94213 1.68543,-5.13071 0.43622,-1.18898 0.887402,-2.24213 1.35394,-3.14488 0.391339,-0.64685 0.948031,-0.992913 1.68504,-1.03819 0.737402,-0.0452756 1.36929,0.150394 1.91102,0.616929 0.541732,0.451575 0.827559,1.06811 0.857874,1.82047 -0.030315,0.511811 -0.165748,1.03819 -0.406299,1.59488 -0.255906,0.556693 -0.541732,1.05354 -0.872835,1.48976 -0.316142,0.451575 -0.556693,0.707087 -0.692126,0.797638 -1.15866,3.44528 -2.37717,7.41772 -3.67126,11.9465 8.5311,-0.120079 17.3031,0.0905512 26.3161,0.616929zm8.15472 27.3244c0.737402,-0.556693 1.45945,-0.662205 2.16693,-0.316142 0.692126,0.331102 1.14331,0.812598 1.33898,1.42953 0.195669,0.616929 0,1.20354 -0.556693,1.76024 -2.40748,2.06142 -5.52205,4.30315 -9.3437,6.72559 -3.82165,2.42244 -7.10197,4.37874 -9.87047,5.88346 -2.49764,1.38425 -4.57402,2.33189 -6.21417,2.8437 -1.65512,0.511417 -3.11457,0.481496 -4.40866,-0.120472 -1.6248,-0.812598 -2.55787,-2.19685 -2.79843,-4.10748 -0.255906,-1.92598 -0.135433,-4.01772 0.346063,-6.25945 0.481496,-2.25709 1.12835,-4.3185 1.94094,-6.19921 0.812598,-1.88071 1.56496,-3.21969 2.27205,-4.01732 0.827559,-0.707087 1.60984,-0.812598 2.3622,-0.346063 0.752362,0.466535 1.1437,1.05315 1.20354,1.76063 0.030315,1.08307 -0.346063,1.95591 -1.14331,2.60276 -0.933071,1.82087 -1.71535,4.01732 -2.33228,6.60551 -0.616929,2.5878 -0.692126,4.57402 -0.225591,5.95827 0.21063,0.406299 0.752362,0.526772 1.60984,0.331102 0.872835,-0.195669 1.95591,-0.601969 3.26496,-1.23386 1.30906,-0.63189 2.46772,-1.26378 3.46063,-1.88071 0.376378,-0.195669 0.70748,-0.376378 0.962992,-0.526772 2.30236,-1.44449 5.01063,-3.15984 8.14016,-5.17598 3.12953,-2.01614 5.73268,-3.91181 7.82402,-5.71732zm-23.2315 -5.94331c-0.496457,-0.180709 -0.84252,-0.436614 -1.03819,-0.797638 -0.195669,-0.346063 -0.255512,-0.707087 -0.195669,-1.05315 0.270866,-0.887795 0.902756,-1.33937 1.89606,-1.36929 0.315748,-0.0299213 0.541732,-0.0602362 0.63189,-0.0901575 0.105512,-0.030315 0.195669,-0.0602362 0.255906,-0.0905512 0.135433,-0.0598425 0.346063,-0.105118 0.616929,-0.165354 0.586614,-0.150394 1.08307,-0.0901575 1.51969,0.195669 0.42126,0.270866 0.707087,0.616929 0.85748,1.03819 0.225591,0.84252 -0.0602362,1.51969 -0.887795,2.01614 -0.556693,0.331102 -1.17362,0.511417 -1.85079,0.556693 -0.676772,0.0452756 -1.27874,-0.0299213 -1.80551,-0.240551zm65.5417 4.0622c0.797638,-0.270866 1.44449,-0.150394 1.95591,0.346063 0.526772,0.49685 0.692126,1.08346 0.541732,1.76063 -0.165354,0.677165 -2.19685,2.00118 -6.10866,3.97205 -3.9122,1.97126 -8.44094,3.23504 -13.602,3.80669 -5.16102,0.572047 -9.28346,0.150787 -12.3681,-1.24882 -0.84252,3.64134 -2.54291,6.86142 -5.08543,9.6748 -2.54291,2.79882 -4.93543,4.28819 -7.1622,4.4689 -2.85866,-0.120472 -4.36339,-1.83583 -4.52913,-5.16102 -0.150394,-3.31024 0.962992,-7.19213 3.38543,-11.6307 1.8811,-3.08465 3.82205,-5.14567 5.83819,-6.19921 2.01614,-1.03819 3.14449,-1.53465 3.38543,-1.47441 0.255906,0.0602362 0.601969,-0.0602362 1.06811,-0.346063 0.451575,-0.300787 0.977953,-0.391339 1.57992,-0.270866 0.601969,0.120472 1.00827,0.451575 1.2189,1.02323 0.556693,1.76024 0.827559,3.52087 0.827559,5.2811 1.53465,1.4748 3.97205,2.25709 7.29724,2.33228 3.34055,0.0901575 6.8311,-0.331102 10.5024,-1.24882 3.6563,-0.933071 7.40276,-2.61811 11.2547,-5.08583zm-38.6539 16.837c1.32402,-1.29409 2.48268,-2.93425 3.50591,-4.92008 1.00787,-1.98622 1.60984,-4.07756 1.7752,-6.27441 -0.496457,-0.300787 -0.872441,-0.752362 -1.14331,-1.36929 -0.285827,-0.586614 -0.195669,-1.24882 0.315748,-1.98622 -1.74528,0.70748 -3.43031,2.51299 -5.10039,5.41693 -1.65512,2.9189 -2.57323,5.91299 -2.75354,8.99764 -0.030315,1.47441 0.195669,2.18189 0.692126,2.13661 0.481496,-0.0452756 1.38425,-0.707087 2.70827,-2.00118zm83.6575 -12.8346c0.737402,-0.526378 1.42953,-0.616929 2.07638,-0.285827 0.647244,0.346063 1.02323,0.812598 1.1437,1.41457 0.120079,0.601575 -0.105512,1.15827 -0.662205,1.7 -2.73819,2.49764 -6.06378,5.04055 -10.0059,7.61339 -3.94213,2.58819 -7.68858,4.3185 -11.2394,5.16102 -3.05433,0.586614 -5.65748,0.300787 -7.80906,-0.872835 -2.13661,-1.17362 -3.70157,-3.03937 -4.66457,-5.56693 -0.64685,-1.79055 -1.11339,-3.71654 -1.41417,-5.76299 -0.285827,-2.12126 -0.556693,-3.38543 -0.797638,-3.79134 -0.752362,0.43622 -2.30197,1.97087 -4.6189,4.60394 -2.33228,2.63307 -4.58937,5.34134 -6.78622,8.15512 -2.21181,2.79882 -3.74646,4.81496 -4.63425,6.0185 -0.586614,0.707087 -1.24882,1.00827 -1.95591,0.91811 -0.722047,-0.0905512 -1.24882,-0.391339 -1.59488,-0.90315 -0.331102,-0.511417 -0.42126,-1.08307 -0.240945,-1.7 0.887795,-2.25709 1.71535,-4.54409 2.51299,-6.87638 1.11339,-3.1748 2.28701,-6.31929 3.52087,-9.44882 1.23386,-3.12992 2.15157,-5.11575 2.73819,-5.97362 0.406299,-0.64685 0.962992,-0.992913 1.67047,-1.03819 0.707087,-0.0448819 1.26378,0.150394 1.65472,0.601969 0.406299,0.43622 0.481496,0.962992 0.240945,1.57992 -1.38425,3.35512 -2.66339,6.75591 -3.88189,10.2315 2.3622,-2.7685 4.39331,-5.01063 6.10866,-6.72559 1.71535,-1.71535 3.20512,-2.85906 4.43858,-3.41575 1.42953,-0.466535 2.57323,-0.315748 3.41575,0.43622 0.827559,0.767717 1.39921,1.67047 1.7,2.69331 0.346063,1.29409 0.632283,2.61811 0.827559,3.97244 0.21063,1.38425 0.481496,2.70827 0.842913,4.00236 1.38425,4.4685 4.40827,6.0937 9.07283,4.85984 2.7685,-0.85748 5.58228,-2.25709 8.44094,-4.21299 2.87362,-1.95591 6.1689,-4.42362 9.90039,-7.3878z"/>
  <g id="_515249784">
   <path id="_331548848" class="fil3" d="M498.742 45.8992c0.0787402,-0.000787402 0.15748,-0.0015748 0.23622,-0.0023622 0.6,-0.00472441 1.19961,-0.0141732 1.79961,-0.0248031 0.71378,-0.0129921 1.42795,-0.0295276 2.14134,-0.0496063 0.669685,-0.0188976 1.33898,-0.05 2.00748,-0.0897638 0.47126,-0.0275591 0.950787,-0.0574803 1.41929,-0.114961 0.770866,-0.0948819 1.61693,-0.273228 2.31142,-0.633465 0.492913,-0.255906 0.944882,-0.593307 1.27598,-1.04291 0.337402,-0.457874 0.562205,-0.973228 0.699606,-1.52362 0.109449,-0.438189 0.255118,-0.865354 0.531496,-1.22913 0.412992,-0.544094 1.04331,-0.85 1.72677,-0.833071 0.918504,0.0228346 1.65984,0.639764 1.9,1.51929 0.1,0.366142 0.131102,0.744882 0.124803,1.12362 -0.00590551,0.368504 -0.0625984,0.761417 -0.120079,1.1252 -0.0811024,0.513386 -0.178346,1.0252 -0.275591,1.53543 -0.114567,0.599606 -0.238189,1.19724 -0.365354,1.79409 -0.124016,0.579921 -0.255118,1.15827 -0.391339,1.73504 -0.110236,0.465748 -0.229921,0.92874 -0.36063,1.38898 -0.208268,0.732677 -0.587008,1.39213 -1.19921,1.86024 -0.611024,0.467323 -1.37244,0.663386 -2.1248,0.748425 -0.859843,0.0972441 -1.76378,0.102362 -2.62913,0.102362l-19.6 0c-0.611024,0 -1.18031,-0.234646 -1.6248,-0.652362 -0.476378,-0.447244 -0.741732,-1.05945 -0.741732,-1.71417 0,-0.672441 0.3,-1.24764 0.73622,-1.73937 0.257874,-0.290945 0.54252,-0.561811 0.835433,-0.816929 1.22795,-1.07008 2.45512,-2.14055 3.67992,-3.21378 1.28386,-1.1248 2.5378,-2.28307 3.76457,-3.46969 1.22362,-1.18346 2.37913,-2.43543 3.47717,-3.73583 1.05945,-1.25354 2.00984,-2.59291 2.85,-4.00276 0.802756,-1.34685 1.44764,-2.77402 1.91654,-4.27008 0.462992,-1.47756 0.690551,-3.00315 0.690157,-4.55118 -0.000393701,-1.18701 -0.100394,-2.43622 -0.415354,-3.58465 -0.208661,-0.76063 -0.509843,-1.5622 -0.969291,-2.20984 -0.333858,-0.47126 -0.737008,-0.927559 -1.22283,-1.24685 -0.405118,-0.266535 -0.849606,-0.498819 -1.32087,-0.621654 -0.409055,-0.106299 -0.831102,-0.170866 -1.25433,-0.170866 -0.8,0.000393701 -1.63858,0.0685039 -2.40709,0.302362 -0.666929,0.20315 -1.24055,0.558268 -1.74449,1.0378 -0.219685,0.209449 -0.407874,0.466929 -0.567717,0.724016 -0.211417,0.33937 -0.391732,0.69685 -0.548425,1.06417 -0.145669,0.341732 -0.267717,0.695276 -0.355118,1.05669 -0.0574803,0.235827 -0.111417,0.504331 -0.111417,0.748425 0,0.495276 -0.0980315,0.974016 -0.324409,1.41693 -0.386614,0.756299 -1.11929,1.18543 -1.96457,1.19921 -0.833465,0.0137795 -1.51339,-0.490551 -1.84724,-1.23189 -0.175984,-0.390945 -0.255512,-0.820866 -0.290945,-1.24567 -0.0192913,-0.228346 -0.0350394,-0.456693 -0.0515748,-0.685039 -0.030315,-0.420079 -0.0507874,-0.841339 -0.0759843,-1.26142 -0.0311024,-0.512598 -0.0602362,-1.0252 -0.0846457,-1.53819 -0.0240157,-0.500787 -0.0496063,-1.00157 -0.0673228,-1.50236 -0.0141732,-0.390157 -0.0185039,-0.779528 -0.0259843,-1.16969 -0.00866142,-0.455906 0.0614173,-0.905512 0.266142,-1.31693 0.252362,-0.506693 0.683071,-0.87874 1.16614,-1.15787 0.790551,-0.456693 1.6685,-0.783465 2.53071,-1.07677 1.04449,-0.355118 2.14016,-0.589764 3.22874,-0.760236 1.35709,-0.212598 2.75,-0.285433 4.12283,-0.286614 2.09291,-0.0019685 4.23898,0.244488 6.22362,0.933858 1.66811,0.579528 3.22638,1.43543 4.50669,2.66339 1.18031,1.1315 2.07402,2.46614 2.65433,3.99409 0.576772,1.5185 0.837795,3.10748 0.833465,4.72953 -0.00472441,1.80591 -0.319291,3.57953 -0.919291,5.28268 -0.597638,1.69606 -1.39882,3.30827 -2.36929,4.82126 -0.986614,1.5374 -2.10276,2.98937 -3.31457,4.35591 -1.20276,1.3563 -2.47598,2.64843 -3.80433,3.88189 -1.26063,1.17047 -2.55512,2.30433 -3.88268,3.39843 -0.0944882,0.0779528 -0.18937,0.155512 -0.284252,0.233071zm46.0744 -14.1776c0,2.9626 -0.252362,5.95669 -0.917323,8.84803 -0.567323,2.46969 -1.44528,4.89134 -2.78189,7.05315 -1.20748,1.95315 -2.76772,3.60157 -4.74803,4.78071 -2.00984,1.19685 -4.24094,1.74173 -6.57441,1.73465 -1.73228,-0.00551181 -3.44961,-0.305512 -5.03346,-1.02402 -1.44094,-0.653937 -2.72874,-1.56457 -3.81102,-2.71969 -1.05079,-1.12165 -1.9122,-2.39252 -2.60472,-3.76339 -0.688189,-1.36339 -1.23268,-2.79606 -1.63622,-4.2689 -0.391732,-1.42835 -0.679134,-2.88031 -0.862992,-4.35 -0.167717,-1.33898 -0.262992,-2.69055 -0.262992,-4.04055 0,-2.30433 0.155906,-4.61299 0.520866,-6.88898 0.331496,-2.06535 0.853543,-4.10394 1.63189,-6.04724 0.711417,-1.77598 1.66181,-3.44449 2.9,-4.90709 1.19646,-1.41339 2.63583,-2.53898 4.30984,-3.32992 1.77795,-0.840157 3.69567,-1.1937 5.65433,-1.19331 1.71969,0.000393701 3.42283,0.277559 5.0126,0.947244 1.4378,0.605118 2.72598,1.45472 3.82638,2.55984 1.06496,1.07008 1.93976,2.29567 2.63268,3.63583 0.694094,1.34213 1.23268,2.75787 1.63465,4.21378 0.401181,1.45512 0.680315,2.94134 0.856693,4.43976 0.168898,1.43386 0.25315,2.87638 0.25315,4.32008zm13.9256 14.1776c0.0787402,-0.000787402 0.15748,-0.0015748 0.23622,-0.0023622 0.6,-0.00472441 1.19961,-0.0141732 1.79961,-0.0248031 0.71378,-0.0129921 1.42795,-0.0295276 2.14134,-0.0496063 0.669685,-0.0188976 1.33898,-0.05 2.00748,-0.0897638 0.47126,-0.0275591 0.950787,-0.0574803 1.41929,-0.114961 0.770866,-0.0948819 1.61693,-0.273228 2.31142,-0.633465 0.492913,-0.255906 0.944882,-0.593307 1.27598,-1.04291 0.337402,-0.457874 0.562205,-0.973228 0.699606,-1.52362 0.109449,-0.438189 0.255118,-0.865354 0.531496,-1.22913 0.412992,-0.544094 1.04331,-0.85 1.72677,-0.833071 0.918504,0.0228346 1.65984,0.639764 1.9,1.51929 0.1,0.366142 0.131102,0.744882 0.124803,1.12362 -0.00590551,0.368504 -0.0625984,0.761417 -0.120079,1.1252 -0.0811024,0.513386 -0.178346,1.0252 -0.275591,1.53543 -0.114567,0.599606 -0.238189,1.19724 -0.365354,1.79409 -0.124016,0.579921 -0.255118,1.15827 -0.391339,1.73504 -0.110236,0.465748 -0.229921,0.92874 -0.36063,1.38898 -0.208268,0.732677 -0.587008,1.39213 -1.19921,1.86024 -0.611024,0.467323 -1.37244,0.663386 -2.1248,0.748425 -0.859843,0.0972441 -1.76378,0.102362 -2.62913,0.102362l-19.6 0c-0.611024,0 -1.18031,-0.234646 -1.6248,-0.652362 -0.476378,-0.447244 -0.741732,-1.05945 -0.741732,-1.71417 0,-0.672441 0.3,-1.24764 0.73622,-1.73937 0.257874,-0.290945 0.54252,-0.561811 0.835433,-0.816929 1.22795,-1.07008 2.45512,-2.14055 3.67992,-3.21378 1.28386,-1.1248 2.5378,-2.28307 3.76457,-3.46969 1.22362,-1.18346 2.37913,-2.43543 3.47717,-3.73583 1.05945,-1.25354 2.00984,-2.59291 2.85,-4.00276 0.802756,-1.34685 1.44764,-2.77402 1.91654,-4.27008 0.462992,-1.47756 0.690551,-3.00315 0.690157,-4.55118 -0.000393701,-1.18701 -0.100394,-2.43622 -0.415354,-3.58465 -0.208661,-0.76063 -0.509843,-1.5622 -0.969291,-2.20984 -0.333858,-0.47126 -0.737008,-0.927559 -1.22283,-1.24685 -0.405118,-0.266535 -0.849606,-0.498819 -1.32087,-0.621654 -0.409055,-0.106299 -0.831102,-0.170866 -1.25433,-0.170866 -0.8,0.000393701 -1.63858,0.0685039 -2.40709,0.302362 -0.666929,0.20315 -1.24055,0.558268 -1.74449,1.0378 -0.219685,0.209449 -0.407874,0.466929 -0.567717,0.724016 -0.211417,0.33937 -0.391732,0.69685 -0.548425,1.06417 -0.145669,0.341732 -0.267717,0.695276 -0.355118,1.05669 -0.0574803,0.235827 -0.111417,0.504331 -0.111417,0.748425 0,0.495276 -0.0980315,0.974016 -0.324409,1.41693 -0.386614,0.756299 -1.11929,1.18543 -1.96457,1.19921 -0.833465,0.0137795 -1.51339,-0.490551 -1.84724,-1.23189 -0.175984,-0.390945 -0.255512,-0.820866 -0.290945,-1.24567 -0.0192913,-0.228346 -0.0350394,-0.456693 -0.0515748,-0.685039 -0.030315,-0.420079 -0.0507874,-0.841339 -0.0759843,-1.26142 -0.0311024,-0.512598 -0.0602362,-1.0252 -0.0846457,-1.53819 -0.0240157,-0.500787 -0.0496063,-1.00157 -0.0673228,-1.50236 -0.0141732,-0.390157 -0.0185039,-0.779528 -0.0259843,-1.16969 -0.00866142,-0.455906 0.0614173,-0.905512 0.266142,-1.31693 0.252362,-0.506693 0.683071,-0.87874 1.16614,-1.15787 0.790551,-0.456693 1.6685,-0.783465 2.53071,-1.07677 1.04449,-0.355118 2.14016,-0.589764 3.22874,-0.760236 1.35709,-0.212598 2.75,-0.285433 4.12283,-0.286614 2.09291,-0.0019685 4.23898,0.244488 6.22362,0.933858 1.66811,0.579528 3.22638,1.43543 4.50669,2.66339 1.18031,1.1315 2.07402,2.46614 2.65433,3.99409 0.576772,1.5185 0.837795,3.10748 0.833465,4.72953 -0.00472441,1.80591 -0.319291,3.57953 -0.919291,5.28268 -0.597638,1.69606 -1.39882,3.30827 -2.36929,4.82126 -0.986614,1.5374 -2.10276,2.98937 -3.31457,4.35591 -1.20276,1.3563 -2.47598,2.64843 -3.80433,3.88189 -1.26063,1.17047 -2.55512,2.30433 -3.88268,3.39843 -0.0944882,0.0779528 -0.18937,0.155512 -0.284252,0.233071zm27.6394 -23.6157c-0.181496,0.0732283 -0.361811,0.149606 -0.540945,0.22874 -0.464961,0.205906 -0.930315,0.410236 -1.39055,0.626378 -0.434646,0.203937 -0.869291,0.408661 -1.30354,0.614173 -0.33622,0.159055 -0.677165,0.324803 -1.02205,0.464173 -0.164173,0.0661417 -0.330315,0.128346 -0.499606,0.180709 -0.305906,0.0940945 -0.581496,0.154724 -0.907087,0.138583 -0.584646,-0.0291339 -1.0811,-0.31811 -1.45157,-0.758661 -0.34252,-0.40748 -0.532677,-0.922835 -0.532677,-1.45591 0,-0.544094 0.194882,-1.05276 0.540945,-1.47087 0.229528,-0.277165 0.494488,-0.508661 0.809055,-0.682283 0.240945,-0.144488 0.481496,-0.307874 0.716929,-0.461024 0.625984,-0.406693 1.25039,-0.816142 1.87362,-1.22717 0.833465,-0.549213 1.66654,-1.09921 2.49921,-1.64921 0.876378,-0.579134 1.75197,-1.15945 2.62441,-1.74409 0.755512,-0.505906 1.51142,-1.01142 2.26181,-1.52441 0.477559,-0.326772 0.95,-0.659055 1.42047,-0.996063 0.251575,-0.180315 0.509449,-0.352756 0.774409,-0.512992 0.455512,-0.275197 0.955512,-0.447244 1.49173,-0.448425 0.899213,-0.0019685 1.64882,0.522835 2.00118,1.34094 0.188976,0.438583 0.269291,0.899606 0.269291,1.37559 0,0.627559 -0.05,1.29134 -0.076378,1.92008 -0.0622047,1.47874 -0.112992,2.95709 -0.148819,4.43701 -0.053937,2.21339 -0.0748031,4.42874 -0.0748031,6.64291l0 9.25c0,1.51614 -0.000393701,3.03228 0.00826772,4.54882 0.00748031,1.27756 0.0169291,2.5563 0.0496063,3.83346 0.0232283,0.908661 0.0602362,1.82244 0.13622,2.72835 0.026378,0.314961 0.0677165,0.670866 0.162992,0.973622 0.00669291,0.0212598 0.0102362,0.0523622 0.0240157,0.0712598 0.106693,0.0767717 0.384646,0.13937 0.510236,0.166929 0.188189,0.0413386 0.41811,0.057874 0.611024,0.0807087 0.317323,0.0370079 0.635433,0.0677165 0.953543,0.0944882 0.300787,0.0251969 0.601575,0.0456693 0.902362,0.0637795 0.155512,0.00905512 0.319685,0.0220472 0.475197,0.0220472 0.512598,0 0.999606,0.185827 1.3878,0.520472 0.474016,0.408268 0.71378,0.988189 0.728346,1.60669 0.0185039,0.793307 -0.385039,1.5122 -1.09252,1.87795 -0.432677,0.223622 -0.894488,0.277953 -1.37362,0.277953 -1.19606,0 -2.39213,-0.0149606 -3.58819,-0.042126 -0.962205,-0.0220472 -1.9252,-0.0377953 -2.8874,-0.0669291 -0.623228,-0.0188976 -1.25079,-0.0409449 -1.87441,-0.0409449 -0.439764,0 -0.881496,0.0125984 -1.32126,0.0244094 -0.717323,0.019685 -1.43504,0.0354331 -2.15236,0.0503937 -0.839764,0.0173228 -1.67953,0.0338583 -2.51929,0.05 -0.852362,0.0165354 -1.70472,0.0251969 -2.55709,0.0251969 -0.459055,0 -0.905512,-0.0496063 -1.32795,-0.243307 -0.755118,-0.346063 -1.20787,-1.08228 -1.18819,-1.9126 0.0133858,-0.570866 0.20315,-1.11299 0.612992,-1.52283 0.387402,-0.387008 0.905906,-0.604331 1.45315,-0.604331 0.215748,0 0.436614,-0.0125984 0.651969,-0.0232283 0.361024,-0.0177165 0.722047,-0.0429134 1.08228,-0.0716535 0.387008,-0.0307087 0.774409,-0.0614173 1.16063,-0.103543 0.248425,-0.0271654 0.505512,-0.0598425 0.75,-0.113386 0.130709,-0.0283465 0.418898,-0.0944882 0.525197,-0.164173 0.00787402,-0.0122047 0.0125984,-0.0322835 0.0169291,-0.0456693 0.0913386,-0.287795 0.127165,-0.651575 0.152362,-0.951181 0.0767717,-0.91378 0.128346,-1.82992 0.161811,-2.74646 0.046063,-1.27283 0.0712598,-2.54685 0.0822835,-3.82047 0.0129921,-1.51102 0.00944882,-3.02205 0,-4.53307l-0.05 -7.95c-0.00748031,-1.22047 0,-2.44055 0,-3.66063 0,-0.895669 -0.00826772,-1.79213 -0.0019685,-2.68819zm-50.748 11.3882c0,-1.67795 -0.0885827,-3.35669 -0.273228,-5.0248 -0.175197,-1.58031 -0.444488,-3.15039 -0.834252,-4.69213 -0.32874,-1.30039 -0.774803,-2.58307 -1.37992,-3.7815 -0.435433,-0.861811 -1.00354,-1.68898 -1.75433,-2.30591 -0.546457,-0.449213 -1.14488,-0.674016 -1.85354,-0.679134 -0.866929,-0.00629921 -1.51102,0.501575 -2.04094,1.14843 -1.00394,1.22402 -1.58819,3.22677 -1.92953,4.74291 -0.647638,2.87441 -0.798031,6.05591 -0.801181,8.99409 -0.0019685,1.67953 0.080315,3.36024 0.257087,5.03071 0.167323,1.57835 0.42126,3.15039 0.802362,4.69213 0.320866,1.29685 0.752362,2.58425 1.34921,3.78189 0.425984,0.855512 0.980315,1.68583 1.7248,2.29764 0.548031,0.450394 1.14449,0.676772 1.85591,0.679134 0.625591,0.0023622 1.11811,-0.308268 1.55197,-0.740157 0.75748,-0.753543 1.29803,-1.84449 1.68031,-2.82953 0.602362,-1.55315 0.968898,-3.23976 1.21339,-4.88425 0.315748,-2.12244 0.43189,-4.28504 0.43189,-6.42953z"/>
  </g>
  <path class="fil0" d="M507.45 51.6217c1.04173,0.00826772 1.85,-0.0251969 2.44173,-0.0917323 0.583465,-0.0665354 1.01654,-0.2 1.3,-0.416535 0.283465,-0.216929 0.483465,-0.55 0.608268,-0.991732 0.1,-0.35 0.216535,-0.791732 0.341732,-1.31654 0.124803,-0.533465 0.258268,-1.1 0.383465,-1.7 0.133071,-0.608661 0.25,-1.19173 0.358268,-1.75866 0.108268,-0.566535 0.2,-1.06654 0.266535,-1.48307 0.0665354,-0.425197 0.1,-0.725197 0.1,-0.891732 0.00826772,-0.258268 -0.0165354,-0.475197 -0.0665354,-0.658268 -0.05,-0.183465 -0.166929,-0.283465 -0.333465,-0.291732 -0.15,0 -0.266535,0.0582677 -0.358268,0.174803 -0.0917323,0.125197 -0.166535,0.333465 -0.241732,0.625197 -0.191732,0.791732 -0.524803,1.49173 -0.974803,2.10827 -0.458661,0.616535 -1.0752,1.13346 -1.85,1.53346 -0.766929,0.4 -1.7252,0.674803 -2.8752,0.808268 -0.383465,0.05 -0.891732,0.0917323 -1.5248,0.124803 -0.633465,0.0417323 -1.31693,0.0669291 -2.05866,0.0917323 -0.733071,0.0169291 -1.45827,0.0417323 -2.15827,0.05 -0.691732,0.0169291 -1.3,0.0251969 -1.81654,0.0251969 -0.508268,0.00826772 -0.858268,0.00826772 -1.04173,0.00826772l-3.4 0c-0.124803,0 -0.208268,-0.0334646 -0.233465,-0.1 -0.0330709,-0.0665354 0.0169291,-0.15 0.133465,-0.25 1.08346,-0.858268 2.25827,-1.80827 3.51654,-2.84173 1.25,-1.03346 2.5252,-2.14173 3.80866,-3.33346 1.28307,-1.19134 2.51654,-2.44134 3.69134,-3.76654 1.1752,-1.3248 2.23346,-2.70827 3.15866,-4.15 0.924803,-1.44173 1.65827,-2.93346 2.2,-4.4748 0.541339,-1.53346 0.816535,-3.11693 0.824803,-4.73346 0,-1.4752 -0.233465,-2.85 -0.724803,-4.13346 -0.483465,-1.28307 -1.23346,-2.40827 -2.25,-3.38307 -1.01693,-0.975197 -2.31693,-1.74173 -3.9,-2.29173 -1.58346,-0.55 -3.4752,-0.833465 -5.6752,-0.841732 -1.45827,0.00826772 -2.75,0.0917323 -3.86654,0.266535 -1.11693,0.175197 -2.1,0.408268 -2.95,0.691732 -0.841732,0.291732 -1.59173,0.6 -2.23346,0.941732 -0.266535,0.166535 -0.433465,0.316535 -0.508268,0.458268 -0.0665354,0.141732 -0.1,0.325197 -0.0917323,0.541732 0,0.3 0.00826772,0.674803 0.0251969,1.14173 0.0165354,0.466535 0.0413386,0.958268 0.0665354,1.48307 0.0248031,0.525197 0.05,1.03346 0.0834646,1.51693 0.0248031,0.483071 0.05,0.9 0.0748031,1.24173 0.0251969,0.35 0.0417323,0.566535 0.05,0.666535 0.0251969,0.3 0.0751969,0.533465 0.15,0.7 0.0751969,0.166535 0.175197,0.25 0.3,0.25 0.25,-0.00826772 0.416535,-0.1 0.508268,-0.291732 0.1,-0.183465 0.141732,-0.4 0.141732,-0.658268 0,-0.333465 0.0582677,-0.708268 0.158268,-1.14173 0.108268,-0.424803 0.25,-0.866535 0.441732,-1.31654 0.191732,-0.45 0.408268,-0.883465 0.666535,-1.29173 0.25,-0.408268 0.533465,-0.758268 0.833465,-1.05 0.741732,-0.691732 1.54173,-1.16654 2.40827,-1.4252 0.858268,-0.266535 1.8252,-0.391339 2.89173,-0.374803 0.508268,-0.00826772 1.06654,0.0665354 1.6752,0.224803 0.608268,0.158661 1.20827,0.441732 1.81654,0.841732 0.608268,0.4 1.15827,0.958268 1.66654,1.6752 0.508268,0.716535 0.916929,1.6248 1.21693,2.73307 0.308268,1.10866 0.466535,2.45 0.474803,4.0252 -0.00826772,1.75827 -0.266535,3.44173 -0.766535,5.05 -0.508268,1.60827 -1.19173,3.15 -2.0752,4.6248 -0.874803,1.4752 -1.8748,2.88346 -3.00827,4.2252 -1.13346,1.34173 -2.3248,2.63346 -3.59173,3.85827 -1.26654,1.2252 -2.54173,2.4 -3.8248,3.5252 -1.2752,1.11654 -2.50827,2.19134 -3.68346,3.21654 -0.258268,0.224803 -0.491732,0.45 -0.683465,0.666535 -0.2,0.225197 -0.308268,0.433465 -0.316535,0.633465 0.00826772,0.2 0.0834646,0.366535 0.216535,0.5 0.141732,0.124803 0.3,0.191732 0.483465,0.2l19.6 0zm35.7 -19.9c0,-1.33346 -0.0748031,-2.70827 -0.241732,-4.1252 -0.166535,-1.41654 -0.433071,-2.81654 -0.808268,-4.19134 -0.383465,-1.3752 -0.883465,-2.6752 -1.50827,-3.89173 -0.633465,-1.21693 -1.40827,-2.29173 -2.33346,-3.2252 -0.933071,-0.933071 -2.0248,-1.66654 -3.29173,-2.2 -1.26654,-0.533071 -2.71654,-0.808268 -4.36654,-0.816535 -1.85,0.00826772 -3.49173,0.35 -4.94173,1.03346 -1.44173,0.683071 -2.69173,1.65 -3.75,2.9 -1.05827,1.25 -1.93307,2.73307 -2.6248,4.45 -0.683465,1.71654 -1.2,3.60827 -1.53346,5.69134 -0.333465,2.0752 -0.5,4.28346 -0.5,6.6252 0,1.19173 0.0751969,2.4748 0.25,3.83346 0.166535,1.36654 0.433465,2.73307 0.816535,4.11654 0.375197,1.38346 0.883465,2.70827 1.51693,3.95827 0.633071,1.25827 1.40827,2.38346 2.33307,3.3752 0.925197,0.983071 2.0252,1.76654 3.28346,2.34134 1.25827,0.566929 2.70827,0.858661 4.35,0.875197 2.15,-0.00826772 4.05827,-0.508268 5.71654,-1.5 1.65866,-0.983465 3.05,-2.39173 4.18346,-4.2252 1.13346,-1.83307 1.99173,-4.01654 2.5752,-6.55 0.583071,-2.54134 0.874803,-5.36654 0.874803,-8.4748zm-5.85 1.95c0,2.43346 -0.15,4.65827 -0.45,6.6748 -0.3,2.01693 -0.733465,3.76693 -1.30827,5.24173 -0.566535,1.46693 -1.25,2.60827 -2.05827,3.40827 -0.808268,0.808661 -1.71693,1.21693 -2.73346,1.2252 -1.1,-0.0165354 -2.06654,-0.366535 -2.90827,-1.05827 -0.841732,-0.691732 -1.55827,-1.63346 -2.15827,-2.84173 -0.6,-1.2 -1.09173,-2.5752 -1.4752,-4.1252 -0.383071,-1.55 -0.658268,-3.18307 -0.841732,-4.91654 -0.183071,-1.7248 -0.266535,-3.46654 -0.266535,-5.20827 0.00826772,-3.79173 0.291732,-6.91654 0.841732,-9.35827 0.55,-2.44173 1.3,-4.25827 2.26654,-5.43346 0.966929,-1.18346 2.08346,-1.76654 3.34173,-1.75827 1.09173,0.00826772 2.05827,0.366535 2.9,1.05827 0.841732,0.691732 1.5752,1.63346 2.18346,2.84173 0.608268,1.2 1.11654,2.5748 1.50827,4.1248 0.391732,1.55 0.683465,3.18346 0.874803,4.91693 0.191732,1.7248 0.283465,3.46654 0.283465,5.20827zm30.15 17.95c1.04173,0.00826772 1.85,-0.0251969 2.44173,-0.0917323 0.583465,-0.0665354 1.01654,-0.2 1.3,-0.416535 0.283465,-0.216929 0.483465,-0.55 0.608268,-0.991732 0.1,-0.35 0.216535,-0.791732 0.341732,-1.31654 0.124803,-0.533465 0.258268,-1.1 0.383465,-1.7 0.133071,-0.608661 0.25,-1.19173 0.358268,-1.75866 0.108268,-0.566535 0.2,-1.06654 0.266535,-1.48307 0.0665354,-0.425197 0.1,-0.725197 0.1,-0.891732 0.00826772,-0.258268 -0.0165354,-0.475197 -0.0665354,-0.658268 -0.05,-0.183465 -0.166929,-0.283465 -0.333465,-0.291732 -0.15,0 -0.266535,0.0582677 -0.358268,0.174803 -0.0917323,0.125197 -0.166535,0.333465 -0.241732,0.625197 -0.191732,0.791732 -0.524803,1.49173 -0.974803,2.10827 -0.458661,0.616535 -1.0752,1.13346 -1.85,1.53346 -0.766929,0.4 -1.7252,0.674803 -2.8752,0.808268 -0.383465,0.05 -0.891732,0.0917323 -1.5248,0.124803 -0.633465,0.0417323 -1.31693,0.0669291 -2.05866,0.0917323 -0.733071,0.0169291 -1.45827,0.0417323 -2.15827,0.05 -0.691732,0.0169291 -1.3,0.0251969 -1.81654,0.0251969 -0.508268,0.00826772 -0.858268,0.00826772 -1.04173,0.00826772l-3.4 0c-0.124803,0 -0.208268,-0.0334646 -0.233465,-0.1 -0.0330709,-0.0665354 0.0169291,-0.15 0.133465,-0.25 1.08346,-0.858268 2.25827,-1.80827 3.51654,-2.84173 1.25,-1.03346 2.5252,-2.14173 3.80866,-3.33346 1.28307,-1.19134 2.51654,-2.44134 3.69134,-3.76654 1.1752,-1.3248 2.23346,-2.70827 3.15866,-4.15 0.924803,-1.44173 1.65827,-2.93346 2.2,-4.4748 0.541339,-1.53346 0.816535,-3.11693 0.824803,-4.73346 0,-1.4752 -0.233465,-2.85 -0.724803,-4.13346 -0.483465,-1.28307 -1.23346,-2.40827 -2.25,-3.38307 -1.01693,-0.975197 -2.31693,-1.74173 -3.9,-2.29173 -1.58346,-0.55 -3.4752,-0.833465 -5.6752,-0.841732 -1.45827,0.00826772 -2.75,0.0917323 -3.86654,0.266535 -1.11693,0.175197 -2.1,0.408268 -2.95,0.691732 -0.841732,0.291732 -1.59173,0.6 -2.23346,0.941732 -0.266535,0.166535 -0.433465,0.316535 -0.508268,0.458268 -0.0665354,0.141732 -0.1,0.325197 -0.0917323,0.541732 0,0.3 0.00826772,0.674803 0.0251969,1.14173 0.0165354,0.466535 0.0413386,0.958268 0.0665354,1.48307 0.0248031,0.525197 0.05,1.03346 0.0834646,1.51693 0.0248031,0.483071 0.05,0.9 0.0748031,1.24173 0.0251969,0.35 0.0417323,0.566535 0.05,0.666535 0.0251969,0.3 0.0751969,0.533465 0.15,0.7 0.0751969,0.166535 0.175197,0.25 0.3,0.25 0.25,-0.00826772 0.416535,-0.1 0.508268,-0.291732 0.1,-0.183465 0.141732,-0.4 0.141732,-0.658268 0,-0.333465 0.0582677,-0.708268 0.158268,-1.14173 0.108268,-0.424803 0.25,-0.866535 0.441732,-1.31654 0.191732,-0.45 0.408268,-0.883465 0.666535,-1.29173 0.25,-0.408268 0.533465,-0.758268 0.833465,-1.05 0.741732,-0.691732 1.54173,-1.16654 2.40827,-1.4252 0.858268,-0.266535 1.8252,-0.391339 2.89173,-0.374803 0.508268,-0.00826772 1.06654,0.0665354 1.6752,0.224803 0.608268,0.158661 1.20827,0.441732 1.81654,0.841732 0.608268,0.4 1.15827,0.958268 1.66654,1.6752 0.508268,0.716535 0.916929,1.6248 1.21693,2.73307 0.308268,1.10866 0.466535,2.45 0.474803,4.0252 -0.00826772,1.75827 -0.266535,3.44173 -0.766535,5.05 -0.508268,1.60827 -1.19173,3.15 -2.0752,4.6248 -0.874803,1.4752 -1.8748,2.88346 -3.00827,4.2252 -1.13346,1.34173 -2.3248,2.63346 -3.59173,3.85827 -1.26654,1.2252 -2.54173,2.4 -3.8248,3.5252 -1.2752,1.11654 -2.50827,2.19134 -3.68346,3.21654 -0.258268,0.224803 -0.491732,0.45 -0.683465,0.666535 -0.2,0.225197 -0.308268,0.433465 -0.316535,0.633465 0.00826772,0.2 0.0834646,0.366535 0.216535,0.5 0.141732,0.124803 0.3,0.191732 0.483465,0.2l19.6 0zm20.65 -15.05c0.0165354,1.60827 0.0165354,3.13346 0,4.55827 -0.00826772,1.43346 -0.0417323,2.7252 -0.0834646,3.86654 -0.0413386,1.14173 -0.1,2.08346 -0.166535,2.8252 -0.0417323,0.533465 -0.116535,0.966535 -0.224803,1.31654 -0.116929,0.358268 -0.308661,0.633465 -0.575197,0.85 -0.274803,0.208268 -0.674803,0.366929 -1.2,0.483465 -0.233465,0.05 -0.541732,0.1 -0.924803,0.141732 -0.383465,0.0417323 -0.783465,0.0748031 -1.20866,0.108268 -0.416535,0.0334646 -0.791339,0.0582677 -1.13307,0.0748031 -0.341732,0.0169291 -0.583465,0.0251969 -0.733465,0.0251969 -0.1,0 -0.191732,0.0417323 -0.274803,0.116535 -0.0751969,0.0834646 -0.116929,0.208268 -0.125197,0.383465 0,0.174803 0.0751969,0.291732 0.216535,0.358268 0.15,0.0669291 0.358661,0.0917323 0.633465,0.0917323 0.808268,0 1.65,-0.00826772 2.5252,-0.0248031 0.874803,-0.0169291 1.70827,-0.0334646 2.51654,-0.05 0.808268,-0.0169291 1.5248,-0.0334646 2.14173,-0.05 0.616535,-0.0169291 1.06654,-0.0251969 1.36654,-0.0251969 0.458268,0 1.1,0.0165354 1.9252,0.0417323 0.816535,0.0248031 1.7748,0.0417323 2.8748,0.0665354 1.09173,0.0251969 2.2752,0.0417323 3.55,0.0417323 0.275197,0 0.475197,-0.0248031 0.608268,-0.0917323 0.125197,-0.0665354 0.191732,-0.183465 0.191732,-0.358268 -0.00826772,-0.175197 -0.0582677,-0.3 -0.15,-0.383465 -0.0917323,-0.0748031 -0.191732,-0.116535 -0.3,-0.116535 -0.108268,0 -0.3,-0.00826772 -0.574803,-0.0251969 -0.283465,-0.0165354 -0.591732,-0.0413386 -0.941732,-0.0665354 -0.35,-0.0334646 -0.683465,-0.0582677 -1.00827,-0.1 -0.316929,-0.0334646 -0.583465,-0.0665354 -0.775197,-0.108268 -0.524803,-0.116535 -0.924803,-0.283465 -1.2,-0.5 -0.266535,-0.216535 -0.458268,-0.508268 -0.566535,-0.866535 -0.116929,-0.358661 -0.191732,-0.8 -0.233465,-1.33346 -0.0665354,-0.741732 -0.108268,-1.68346 -0.141732,-2.8252 -0.0248031,-1.14134 -0.0417323,-2.43307 -0.05,-3.86654 -0.00826772,-1.4248 -0.00826772,-2.95 -0.00826772,-4.55827l0 -9.25c0,-2.55827 0.0334646,-4.79173 0.0751969,-6.68346 0.05,-1.89173 0.1,-3.38307 0.15,-4.46654 0.0413386,-1.09173 0.0748031,-1.70827 0.0748031,-1.85 0,-0.266535 -0.0417323,-0.5 -0.133465,-0.716535 -0.0913386,-0.208661 -0.241339,-0.325197 -0.466535,-0.333465 -0.2,0.00826772 -0.408268,0.0748031 -0.633465,0.208268 -0.216535,0.133465 -0.441339,0.283465 -0.666535,0.441732 -0.308268,0.224803 -0.791732,0.566535 -1.45,1.01654 -0.658268,0.45 -1.41654,0.958268 -2.2748,1.53346 -0.858661,0.574803 -1.73346,1.15827 -2.63346,1.75 -0.891732,0.591732 -1.7252,1.14173 -2.5,1.65 -0.766535,0.508268 -1.4,0.916535 -1.88346,1.23346 -0.491732,0.316535 -0.758268,0.491339 -0.808268,0.516535 -0.133465,0.0748031 -0.241732,0.174803 -0.341732,0.291732 -0.1,0.124803 -0.15,0.258268 -0.158268,0.408268 0.00826772,0.15 0.0582677,0.283465 0.141732,0.383465 0.0917323,0.108268 0.174803,0.158268 0.258268,0.166535 0.1,0 0.208268,-0.0251969 0.333465,-0.0665354 0.116535,-0.0334646 0.241732,-0.0834646 0.366535,-0.133465 0.225197,-0.0917323 0.541732,-0.233465 0.933465,-0.425197 0.4,-0.183071 0.833071,-0.391339 1.30827,-0.616535 0.483465,-0.224803 0.95,-0.433465 1.4248,-0.641732 0.466929,-0.208268 0.891732,-0.374803 1.2752,-0.508268 0.374803,-0.133465 0.658268,-0.208268 0.858268,-0.208268 0.25,0 0.425197,0.0665354 0.525197,0.2 0.108268,0.133465 0.174803,0.333465 0.2,0.6 0.0248031,0.266535 0.0330709,0.6 0.0248031,1 0,0.85 0,1.81654 0,2.9 0,1.08346 0,2.3 0,3.65l0.05 7.95z"/>
 </g>
</svg>
