<?xml version="1.0" encoding="UTF-8"?>
<!DOCTYPE svg PUBLIC "-//W3C//DTD SVG 1.1//EN" "http://www.w3.org/Graphics/SVG/1.1/DTD/svg11.dtd">
<!-- Creator: CorelDRAW -->
<svg xmlns="http://www.w3.org/2000/svg" xml:space="preserve" width="500px" height="137px" style="shape-rendering:geometricPrecision; text-rendering:geometricPrecision; image-rendering:optimizeQuality; fill-rule:evenodd; clip-rule:evenodd"
viewBox="0 0 500 137"
 xmlns:xlink="http://www.w3.org/1999/xlink">
 <defs>
  <style type="text/css">
   <![CDATA[
    .fil7 {fill:none}
    .fil0 {fill:#0E9146}
    .fil3 {fill:#FEFEFE}
    .fil2 {fill:black}
    .fil4 {fill:#06AFE6}
    .fil1 {fill:#1F1A17}
    .fil14 {fill:#267F38}
    .fil15 {fill:#4CB2E8}
    .fil13 {fill:#4F4B4B}
    .fil8 {fill:#DA251D}
    .fil12 {fill:#E5EB13}
    .fil11 {fill:#EE1D22}
    .fil6 {fill:#FEF400}
    .fil9 {fill:white}
    .fil5 {fill:black}
    .fil10 {fill:black;fill-rule:nonzero}
   ]]>
  </style>
 </defs>
 <g id="Layer_x0020_1">
  <metadata id="CorelCorpID_0Corel-Layer"/>
  <g id="_224851888">
   <g>
    <path id="_224856256" class="fil0" d="M92.2827 63.8453c-5.07835,0.166929 -10.5433,1.28819 -14.4756,4.73268 -1.89291,1.65827 -2.97559,3.48504 -3.72874,5.87598 -0.810236,2.57087 -1.1748,5.57795 -1.3878,8.26299 -0.116142,1.46417 -0.194882,2.86142 -0.461811,4.31299 -0.290551,1.57756 -2.45906,1.50118 -2.30315,2.85197 0.0972441,0.84252 0.0350394,1.76811 1.94134,3.98228 0.633858,1.07559 1.60354,1.60276 2.77559,2.00906 1.99409,0.691339 6.60984,0.749606 8.63189,0.195276 2.15709,-0.590945 4.55709,-2.00236 6.45236,-3.20039 2.33937,-1.47835 5.1311,-4.49055 7.19803,-7.18543 2.06693,-2.69449 4.24764,-5.46811 8.14843,-6.91535 1.41575,-0.525197 2.30236,-0.519291 3.79252,-0.595276 0.701575,-0.0358268 1.92008,0.112598 2.68268,0.261417 0.762598,0.149213 0.967717,0.206693 1.69449,0.427165 0.726772,0.220472 1.03583,0.304724 1.1437,0.328346 0.108268,0.023622 -0.0767717,-0.573622 -0.311024,-1.29961 -0.234252,-0.726378 -0.579921,-1.47756 -0.815354,-2.09724 -0.369685,-1.20472 -0.737795,-1.60748 -1.32441,-2.69882 -0.618504,-1.15118 -1.2185,-1.8189 -2.11417,-2.8 -0.781496,-0.856299 -1.55827,-1.63819 -2.4874,-2.33819 -1.65866,-1.24961 -4.05866,-2.45669 -6.44291,-3.16102 -2.38465,-0.704331 -5.72677,-1.04331 -8.60866,-0.948819z"/>
    <path id="_224856136" class="fil1" d="M67.413 94.6591c-0.065748,-1.32087 1.87008,-1.3248 1.92598,-0.14252 0.0594488,1.26142 -1.8685,1.29606 -1.92598,0.14252zm0.70315 1.31811l-0.0673228 4.03583c-0.987008,-1.3 -3.58228,-5.0437 -2.99567,-6.95315l1.13504 -2.35039c0.811024,-0.0125984 3.94291,-0.141339 4.46457,0.0964567 0.834646,0.379528 1.33228,2.10591 1.15906,3.30276l-3.18543 5.8937 -0.0015748 -4.13307c0.468504,-0.316929 1.04291,-0.527559 1.0126,-1.35669 -0.0555118,-1.50394 -2.45512,-1.55 -2.50906,0.011811 -0.0354331,1.02992 0.653937,0.857087 0.987795,1.45276zm-3.23898 -0.999213l-14.4291 -0.385827c5.19291,-0.643701 5.96417,-6.30276 8.40276,-6.99449 0.460236,-0.130315 2.63425,0.139764 3.41693,0.16378 1.0248,0.0311024 1.04567,0.392126 2.21693,1.59488 0.724016,0.743307 1.50669,0.994488 0.765354,2.29331 -0.627165,1.09961 -0.551575,2.02677 -0.372835,3.32835zm8.45669 -7.79567c0.861811,0.0208661 1.67126,0.0866142 2.54094,0.057874 0.711811,-0.023622 1.76339,-0.231496 2.33976,-0.215748 1.24449,0.034252 2.06614,1.47874 2.68701,2.46063l5.72874 4.5685c-0.431496,0.36063 -0.970472,0.585039 -1.48425,0.798819 -2.86772,1.1937 -6.8626,1.96024 -9.79134,0.768504l-3.15315 -1.54803c-0.119685,-0.860236 -0.0173228,-1.3185 -0.355512,-2.11693 -0.780315,-1.83937 -1.6185,-1.50315 0.233858,-3.43543 0.451575,-0.47126 0.866535,-0.856299 1.25394,-1.33819zm-7.11693 -12.0429l0.579528 -0.0114173 3.66102 0.0011811 -0.0011811 15.2839 -4.23898 -0.00826772 -0.000393701 -15.2654zm-24.6165 12.6276c6.1311,-0.0370079 7.91772,-2.3378 10.6677,-2.67598 0.698819,-0.0862205 1.08346,0.377559 1.81654,0.75l3.85945 1.49646c-2.37441,2.12717 -3.64291,6.56181 -7.85551,6.69843 -2.11693,0.0685039 -7.89724,-5.23543 -8.48819,-6.2689zm37.8421 -0.962992c1.2811,-0.575591 2.42205,-0.776378 3.68071,-1.44803 1.79331,-0.956693 1.53465,-1.10039 3.7126,-0.198031l8.34488 2.07717c-0.449606,0.900394 -6.13937,6.30039 -8.02717,6.28071 -4.12953,-0.0433071 -5.3063,-4.52913 -7.71102,-6.71181zm-46.0299 -6.51575c0.470866,-0.251181 2.11772,-0.663386 2.8315,-0.955512 4.10276,-1.67992 5.90906,-3.98346 8.83307,-0.731102 1.21457,1.35118 1.43425,1.43346 2.77283,2.64764 1.87913,1.70433 2.70039,2.17205 3.94882,3.27047l-5.05669 1.94646c-1.09567,0.349213 -5.07362,1.25354 -6.02087,0.444882l-1.73819 -1.77677c-1.45984,-1.5626 -3.71575,-3.8063 -5.57047,-4.84606zm51.961 3.65984c1.67559,-1.0811 2.57717,-2.01378 3.8748,-3.29449 4.45866,-4.40039 4.22205,-5.31654 8.74055,-2.98504 2.80276,1.44606 3.96378,1.5748 4.95512,2.05433 -3.30354,2.62126 -2.62953,2.26575 -5.33465,4.89331 -1.32913,1.29134 -1.26772,3.32323 -7.42717,1.29843 -0.637402,-0.209449 -4.4878,-1.74409 -4.80866,-1.96654zm-62.2177 -4.83386c0.395276,-0.477953 1.34094,-1.2378 1.94055,-1.70354 3.64173,-2.82717 8.16063,-5.76575 13.0642,-3.90354 1.49961,0.569291 3.62087,1.95157 4.35433,2.84409l-9.20157 3.28858c-1.0122,0.183465 -1.46339,-0.247638 -2.33976,-0.555118 -3.26969,-1.14646 -4.92913,-0.556693 -7.81772,0.0295276zm71.2299 -3.56181c1.22756,-0.651969 2.0126,-1.80906 4.36693,-2.67756 3.69134,-1.36142 7.44094,0.425197 10.3165,2.49961 0.566142,0.408268 3.38622,2.58425 3.75551,3.18661l-5.43386 -0.529921c-1.61496,0.251181 -3.1063,1.37441 -4.61575,1.01378 -2.95157,-0.705118 -5.30984,-2.59134 -7.22402,-3.03268 -0.105118,-0.0240157 -0.563386,-0.105906 -0.590157,-0.114961 -0.320079,-0.106299 -0.0559055,-0.00314961 -0.347638,-0.165748l-0.227559 -0.179134zm-72.278 3.57244c0.380709,-4.0311 2.98228,-7.08346 5.45433,-9.49843 1.60197,-1.56457 3.02205,-2.35315 5.1937,-1.25276 1.15433,0.585039 2.82008,2.92756 3.46693,4.0252l-8.18071 2.24331c-1.5622,0.656299 -5.52913,4.25827 -5.93425,4.48268zm78.2909 -7.26024c0.600787,-1.14606 2.1748,-3.47441 3.3874,-4.06024 0.805512,-0.38937 2.33819,-0.636614 3.06929,-0.17126 2.9252,1.8622 6.72717,6.74016 7.03189,11.0122l-2.6622 -2.35079c-3.08622,-2.44961 -6.35709,-4.66969 -10.8264,-4.42992zm-58.1917 -4.75984c1.25906,-0.158268 2.42323,-0.321654 3.63583,-0.560236 1.80551,-0.355512 2.5311,-0.708268 3.44213,-0.0590551 1.85984,1.32559 3.15984,2.0811 4.18701,4.15984 1.21102,2.45118 0.993307,4.50079 0.645669,7.3937 -0.420866,3.50472 -0.396457,4.09449 0.372047,7.29724l-4.69016 -3.10906c-0.632283,-0.492913 -3.73622,-3.26654 -3.8563,-3.71024 -0.25315,-0.938189 0.799606,-5.20709 -2.91575,-10.3165 -0.265748,-0.365748 -0.625197,-0.701969 -0.820472,-1.09567zm-10.9142 -0.0208661c0.315354,-0.25748 1.78661,-0.934646 2.15591,-1.0874 0.783858,-0.324409 1.92165,-0.822047 2.78071,-0.933465l3.63071 1.92205c1.0189,0.150394 1.46378,-0.00472441 2.05354,0.716535 0.322835,0.394094 0.859843,1.11811 1.16929,1.61654 1.41024,2.27126 2.59685,5.37835 2.26732,8.7315 -2.3122,-2.0311 -4.33504,-4.14173 -7.27756,-5.18898 -1.44016,-0.512992 -1.02559,-0.425197 -1.80472,-1.41535 -1.54843,-1.9689 -2.12047,-3.76339 -5.25197,-4.08976l0.276772 -0.271654zm60.2449 9.41732c-0.123228,-2.81457 1.12638,-6.04961 2.35157,-7.90236 2.91457,-4.40827 1.53819,-0.102756 6.14528,-4.16535l5.43701 2.27559c-2.12244,0.738583 -2.65315,0.635827 -3.91417,2.38189 -1.27087,1.75906 -1.44449,2.6878 -2.9252,3.22283 -1.54528,0.558661 -2.87992,1.43819 -3.85945,2.29291l-3.19173 2.89764 -0.0433071 -1.00315zm-8.74843 8.3189c1.8063,-5.07638 -1.12598,-9.71181 0.870472,-14.4492 0.925591,-2.19724 2.34094,-3.03504 4.02402,-4.31772 0.655512,-0.499606 0.629528,-0.438583 1.53976,-0.280709 2.04291,0.354331 3.13346,0.68622 5.40551,0.786614 -0.52126,0.709843 -0.992913,1.3 -1.43583,2.07717 -0.402756,0.707087 -0.793701,1.41654 -1.12402,2.23898 -0.672441,1.67283 -1.11142,3.64803 -1.11181,5.62598l-1.26102 2.98622c-0.738976,0.72874 -1.2748,1.19016 -2.10197,1.99528 -1.02283,0.996063 -3.42165,2.74016 -4.80512,3.3374zm-20.5098 2.36496c-1.80354,0.0019685 -6.24843,-0.474016 -6.99252,-1.66732 -1.27913,-2.05 -0.858268,-5.13583 -0.561811,-7.63937 0.342126,-2.88543 0.503543,-5.00433 -0.725984,-7.46614 -1.4563,-2.91575 -3.66024,-3.59961 -4.17362,-4.34882l6.74961 1.91614c1.47441,0.97126 2.91181,2.69016 3.79409,4.69606 1.4937,3.39606 1.8185,7.30945 1.52835,11.1173 -0.287008,3.76969 -0.488976,1.96339 0.38189,3.39213zm11.7713 -0.545276c0.0185039,-0.0393701 0.0511811,-0.0846457 0.069685,-0.109843 0.365748,-0.502756 0.361417,-0.326378 0.477953,-0.608661 0.125591,-0.30315 -0.164173,-2.16457 -0.209055,-2.82362 -0.582677,-8.61969 1.97559,-18.0059 12.9701,-17.5858l-0.680709 0.566142c-4.40984,3.29961 -4.72283,6.09882 -4.04134,11.8839 0.229921,1.95276 0.553543,6.40787 -0.97126,7.41063 -1.59843,1.05118 -5.46654,1.33858 -7.61535,1.26732zm31.6035 -20.4465c-1.50433,-0.870079 -3.39882,-1.77953 -5.30315,-2.30945l-2.63465 -8.28622c0.0598425,1.82283 0.978346,3.53386 0.154331,5.55945 -0.686614,1.68701 -2.61299,1.72283 -4.71693,1.57244 -4.50551,-0.322441 -8.80157,-3.34606 -15.4307,0.829134 -2.32717,1.46614 -4.92677,4.02677 -6.17244,6.42402 -0.888583,1.70984 -1.00512,2.63346 -1.61378,4.53425l-3.65354 0.0267717c-1.34567,-3.36417 -1.81614,-5.43858 -4.53504,-7.92874 -1.91024,-1.75 -4.4437,-3.74409 -8.01102,-4.43189 -4.56535,-0.880709 -6.91417,0.775591 -10.9618,1.11496 -6.65276,0.557087 -4.65512,-4.01063 -4.39291,-7.13268 -2.34488,3.46535 -3.74803,4.53504 -2.63268,8.38937l-5.27165 2.27717c-4.35079,2.22283 -8.99567,7.93661 -9.12992,13.5945 2.39646,-0.801575 4.10945,-1.57559 6.7378,-1.37795 2.50472,0.188583 4.37677,1.25039 5.90118,2.29606 1.30787,0.897638 3.25512,2.72874 4.32835,3.86969l3.95276 4.10197c1.32913,1.32283 2.67205,2.62756 4.42835,3.77244 1.69843,1.10669 3.06299,1.98701 5.19764,2.85472 3.1748,1.29055 6.95669,1.88189 10.3984,0.80315 1.09724,-0.344094 1.8878,-0.835433 2.74646,-1.14843 0.463386,0.940551 2.46732,4.83504 3.36772,5.01378 3.17362,-3.61535 2.69409,-4.39409 3.66063,-5.93386 2.25394,1.13504 3.31299,1.87835 5.99724,2.07205 4.37008,0.315748 8.82244,-1.70512 12.0819,-4.07323 2.45512,-1.78346 4.34606,-3.69213 6.30748,-5.84055 0.357087,-0.390945 0.575197,-0.743307 0.934252,-1.12402 0.368504,-0.390157 0.608661,-0.566929 0.94252,-0.955512 4.21969,-4.9126 9.4374,-8.29449 16.2776,-4.80906 -0.929528,-3.61535 -1.05945,-5.71614 -2.94764,-8.33819 -0.635827,-0.883465 -1.04685,-1.32283 -1.74843,-2.05669 -1.23228,-1.28858 -2.45866,-2.3189 -4.25827,-3.35945z"/>
    <polygon id="_224855968" class="fil2" points="68.3709,-0.182677 73.2524,1.40551 77.837,3.14409 83.0449,5.26575 87.4969,7.2752 92.2272,9.55945 96.4669,11.778 101.678,14.852 106.094,17.7559 110.989,21.3071 114.403,24.061 118.815,27.8929 122.816,31.8079 129.926,40.0146 136.513,49.3835 136.511,54.5173 136.274,59.415 135.866,65.0244 135.331,69.8799 134.62,75.085 133.82,79.8031 132.507,85.7102 131.111,90.8079 129.246,96.5598 127.682,100.659 125.402,106.039 122.915,111.054 117.308,120.353 110.433,129.513 105.551,131.098 100.82,132.386 95.3598,133.731 90.5772,134.723 85.4075,135.655 80.6736,136.353 74.6508,136.929 69.3713,137.176 63.3252,137.18 58.9441,136.959 53.1224,136.452 47.585,135.637 37.0091,133.178 26.1744,129.47 23.1587,125.315 20.4713,121.214 17.5051,116.436 15.0843,112.193 12.5996,107.564 10.4736,103.277 8.06417,97.7268 6.19803,92.7815 4.32598,87.0319 3.18228,82.7965 1.86496,77.1028 0.929134,71.5839 -0,60.7646 0.177953,49.3134 3.19685,45.161 6.26693,41.3378 9.8937,37.0398 13.1803,33.426 16.8146,29.6327 20.2343,26.2858 24.7681,22.2787 28.8941,18.9756 33.7835,15.4181 37.4575,13.0217 42.465,10.0094 47.4244,7.41378 57.426,3.18661 "/>
    <polygon id="_224855824" class="fil3" points="68.3524,2.13898 72.5169,3.49409 77.0268,5.20433 82.1717,7.3 86.5602,9.28071 91.2327,11.5374 95.3909,13.7134 100.507,16.7315 104.836,19.5772 109.643,23.0654 112.982,25.7587 117.314,29.5213 121.203,33.3264 128.18,41.3795 134.299,50.0835 134.297,54.4634 134.065,59.2815 133.661,64.8224 133.134,69.6087 132.432,74.75 131.648,79.3776 130.359,85.1772 128.99,90.1736 127.158,95.8232 125.629,99.8315 123.389,105.115 120.972,109.989 115.47,119.114 109.084,127.624 104.918,128.976 100.265,130.243 94.8705,131.572 90.1559,132.55 85.0496,133.47 80.4067,134.155 74.4933,134.721 69.3189,134.963 63.3803,134.967 59.0957,134.75 53.3799,134.253 47.9976,133.461 37.6197,131.047 27.5539,127.602 24.9807,124.058 22.3374,120.023 19.4071,115.303 17.0209,111.121 14.5669,106.549 12.4815,102.344 10.1157,96.8945 8.28661,92.0476 6.44803,86.4 5.32953,82.2583 4.03622,76.6681 3.12638,71.3035 2.21496,60.687 2.38031,50.048 4.95591,46.5059 7.97559,42.7449 11.5587,38.4988 14.7984,34.9366 18.3882,31.1898 21.7421,27.9071 26.1937,23.9732 30.2374,20.7354 35.0398,17.2413 38.6331,14.8976 43.5496,11.9402 48.3701,9.41732 58.1843,5.26929 "/>
    <polygon id="_224855632" class="fil4" points="68.3339,4.46063 71.7819,5.58268 76.2169,7.26457 81.2988,9.33465 85.6236,11.2866 90.2382,13.515 94.315,15.6484 99.3366,18.6106 103.578,21.3988 108.297,24.8236 111.561,27.4563 115.813,31.1492 119.59,34.8449 126.434,42.7441 132.085,50.7835 132.084,54.4094 131.855,59.1476 131.457,64.6209 130.937,69.3378 130.244,74.4154 129.475,78.9524 128.21,84.6441 126.869,89.5394 125.07,95.087 123.575,99.0047 121.377,104.19 119.03,108.924 113.633,117.875 107.735,125.735 104.285,126.854 99.7091,128.1 94.3811,129.413 89.735,130.376 84.6917,131.286 80.1398,131.956 74.3362,132.512 69.2665,132.749 63.4354,132.753 59.2472,132.542 53.637,132.054 48.4098,131.284 38.2303,128.916 28.9331,125.735 26.8031,122.8 24.2035,118.833 21.3091,114.17 18.9571,110.049 16.5339,105.533 14.4894,101.411 12.1677,96.0626 10.3756,91.3138 8.57008,85.7685 7.47677,81.7201 6.20748,76.2331 5.32402,71.0232 4.42953,60.6094 4.58228,50.7835 6.71457,47.8504 9.68465,44.152 13.2236,39.9579 16.4161,36.4472 19.9614,32.7472 23.25,29.5287 27.6189,25.6677 31.5811,22.4957 36.2965,19.0646 39.8083,16.774 44.6343,13.8705 49.3154,11.4209 58.9425,7.35197 "/>
    <g>
     <g>
      <g>
       <g>
        <path id="_224855608" class="fil2" d="M71.1949 93.0268c-0.659055,-0.769291 -1.35079,-1.6815 -1.71496,-2.63228 -0.222441,-0.580709 -0.256299,-1.01339 -0.325591,-1.61142 -0.0377953,-0.325984 0.0153543,-0.639764 0.175591,-0.927953 0.347244,-0.620866 1.03976,-0.876772 1.57874,-1.28504 0.279528,-0.212205 0.488976,-0.445276 0.554331,-0.802756 0.259055,-1.40787 0.341732,-2.83189 0.454724,-4.25669 0.219685,-2.77283 0.574016,-5.72638 1.41142,-8.38504 0.782283,-2.48228 1.92323,-4.40157 3.89213,-6.12598 4.03268,-3.53268 9.60157,-4.69803 14.8217,-4.86969 1.04134,-0.0338583 2.0878,-0.0125984 3.12717,0.053937 1.86614,0.120079 3.86024,0.387008 5.65669,0.917323 2.27402,0.671654 4.72874,1.82559 6.61929,3.25 0.94685,0.713386 1.76575,1.53346 2.56339,2.40669 0.877165,0.961811 1.57008,1.75276 2.19252,2.91102 0.236614,0.440157 0.493701,0.870079 0.728346,1.31063 0.254724,0.479134 0.456299,0.95748 0.632283,1.47087 0.243701,0.711811 0.585433,1.38504 0.818504,2.10709 0.0980315,0.304331 0.198819,0.611417 0.28189,0.920472 0.0980315,0.364961 0.194094,0.840551 -0.247244,1.04843 -0.145669,0.0685039 -0.26063,0.0649606 -0.36811,0.0409449 -0.387402,-0.0846457 -0.80748,-0.224016 -1.18701,-0.33937 -0.265354,-0.0807087 -0.530709,-0.162205 -0.799213,-0.230709 -0.277953,-0.0712598 -0.559449,-0.127953 -0.840157,-0.182677 -0.395669,-0.0775591 -0.799606,-0.135433 -1.19961,-0.180315 -0.43189,-0.0484252 -0.915354,-0.0940945 -1.34882,-0.0716535 -0.632677,0.0318898 -1.27756,0.0476378 -1.90591,0.128346 -0.601181,0.0771654 -1.15472,0.222441 -1.72283,0.433071 -3.59764,1.33465 -5.64685,3.79409 -7.90157,6.73346 -0.726772,0.947638 -1.49094,1.87008 -2.2874,2.75906 -0.801181,0.894882 -1.64094,1.76378 -2.52717,2.57441 -0.783071,0.716142 -1.62874,1.41496 -2.52717,1.98307 -1.97874,1.25079 -4.33858,2.64646 -6.60157,3.26614 -0.644882,0.176772 -1.35433,0.263386 -2.02008,0.31811 -0.815748,0.0673228 -1.64094,0.0866142 -2.45906,0.0708661 -0.819685,-0.0153543 -1.64685,-0.0661417 -2.46063,-0.168504 -0.666929,-0.0838583 -1.38346,-0.206299 -2.01969,-0.426378 -1.26969,-0.440551 -2.33425,-1.03189 -3.04488,-2.20748z"/>
       </g>
       <path id="_224855296" class="fil0" d="M92.0614 62.6831c-5.07835,0.166929 -10.5433,1.28819 -14.476,4.73307 -1.89252,1.65787 -2.9752,3.48465 -3.72835,5.87559 -0.810236,2.57087 -1.1752,5.57835 -1.38819,8.26299 -0.116142,1.46417 -0.194488,2.86181 -0.461417,4.31299 -0.290551,1.57795 -2.45906,1.50118 -2.30315,2.85197 0.0972441,0.84252 0.0350394,1.76811 1.94134,3.98268 0.633858,1.0752 1.60354,1.60236 2.7752,2.00866 1.99409,0.691339 6.61024,0.749606 8.63228,0.195669 2.15709,-0.591339 4.55709,-2.00276 6.45236,-3.20079 2.33937,-1.47835 5.1311,-4.49055 7.19803,-7.18504 2.06693,-2.69488 4.24764,-5.4685 8.14843,-6.91575 1.41575,-0.525197 2.30236,-0.519291 3.79213,-0.595276 0.701969,-0.0358268 1.92047,0.112598 2.68307,0.261811 0.762598,0.149213 0.967323,0.206299 1.69409,0.426772 0.726772,0.220472 1.03622,0.304724 1.14409,0.328346 0.108268,0.023622 -0.0767717,-0.573622 -0.311024,-1.29961 -0.234252,-0.725984 -0.579921,-1.47717 -0.815354,-2.09724 -0.369685,-1.20472 -0.737795,-1.60709 -1.32441,-2.69882 -0.618898,-1.15118 -1.2185,-1.8185 -2.11417,-2.79961 -0.78189,-0.856693 -1.55827,-1.63819 -2.4874,-2.33819 -1.65906,-1.25 -4.05866,-2.45709 -6.44331,-3.16142 -2.38425,-0.704331 -5.72677,-1.04331 -8.60827,-0.948819z"/>
       <path id="_224855152" class="fil5" d="M71.6756 85.9543c0.258268,0.274803 0.302362,0.17874 0.843307,0.179134l0.700787 -0.0488189c0.420866,-0.0153543 1.1126,0.0531496 1.49134,-0.00748031 0.279921,-0.0444882 0.424803,-0.0318898 0.714173,-0.0358268 0.542126,-0.00669291 1.8815,-0.383465 2.20591,-0.292126 0.0893701,0.0251969 0.189764,0.0681102 0.275591,0.10315 1.79843,0.736614 3.47913,4.61575 5.34055,5.85669 1.64724,1.09803 2.41575,1.09528 4.40079,1.5874l0.147638 -0.232677c-0.21811,-0.372047 -0.255512,-0.253937 -0.653937,-0.376772 -2.03228,-0.626772 -1.89252,-0.262992 -3.78228,-1.5122 -1.11693,-0.738189 -2.59724,-3.43622 -3.80197,-4.6311 -0.175984,-0.174409 -0.291339,-0.370079 -0.491732,-0.538976l-0.597244 -0.480315c0.187795,-0.0858268 0.506693,-0.144488 0.720472,-0.216535 0.228346,-0.0767717 0.457874,-0.16378 0.691732,-0.245669 0.392913,-0.137402 0.978346,-0.379921 1.35197,-0.568504l2.47913 -1.31575c0.231102,0.0122047 0.56811,0.101969 0.805118,0.139764 2.50394,0.39685 5.50315,2.16969 8.14685,2.44094l3.65748 0.184252 0.146063 -0.285039 -0.161417 -0.214961c-0.623228,-0.073622 -1.50866,0.0181102 -2.14567,-0.0562992 -0.35315,-0.0409449 -0.749213,-0.0212598 -1.29094,-0.114567 -2.66417,-0.459843 -4.47913,-1.32598 -6.96929,-2.16614 -0.474803,-0.160236 -0.977953,-0.254331 -1.46969,-0.357874 0.0944882,-0.148031 0.372047,-0.292913 0.541732,-0.41811 0.322047,-0.236614 3.38661,-3.06535 3.60433,-3.28307 0.658268,-0.658268 1.30945,-1.30906 1.96772,-1.96772 0.328346,-0.32874 0.700394,-0.607087 1.03031,-0.937008l1.00787 -0.960236c0.55,-0.0645669 1.15827,-0.0181102 1.67087,0.0850394 1.26614,0.255118 2.71772,0.927165 3.92441,1.41654l5.07992 2.05433 0.228346 -0.147638c-0.000393701,-0.446457 -0.370079,-0.463386 -1.04488,-0.735433 -0.422441,-0.170079 -0.833465,-0.358268 -1.25709,-0.523228 -1.70512,-0.663386 -3.40906,-1.32441 -5.1,-2.02087 -1.12717,-0.464173 -1.72756,-0.584252 -2.90079,-0.66811 0.408268,-0.517323 1.58819,-1.30827 2.14291,-1.72992 0.636614,-0.484252 1.92087,-1.06535 2.66969,-1.26575 2.10276,-0.562598 2.97559,-0.525591 5.07835,-0.000393701 1.48819,0.371654 2.83425,0.98622 4.22244,1.68071 0.450787,0.225197 0.849213,0.461417 1.28071,0.686614 0.932677,0.486614 2.76772,1.74488 3.49449,2.40866 0.345276,0.314961 0.699606,0.60748 1.02992,0.937795 0.510236,0.510236 0.404724,0.464567 1.02835,0.958268l0.177953 -0.188583 0 -0.0559055c-0.0188976,-0.176772 -0.0866142,-0.251181 -0.222047,-0.38622 -0.344882,-0.343701 -0.666929,-0.749213 -1.03031,-1.07795 -1.45984,-1.32165 -3.15827,-2.55039 -4.94724,-3.43898 -1.37874,-0.685039 -2.37953,-1.2126 -3.86693,-1.70827 -1.09134,-0.36378 -2.27402,-0.660236 -3.4252,-0.744488 -0.443701,-0.0322835 -0.915354,0.015748 -1.35906,0.0476378 0.375197,-0.573622 0.736614,-1.17165 1.09606,-1.76181 0.37874,-0.62126 0.707874,-1.1378 1.23425,-1.67047 0.41063,-0.414961 1.25276,-0.888976 1.82874,-1.02913 0.424016,-0.102756 0.835039,-0.122047 1.25669,-0.195669 0.66811,-0.116929 0.490945,-0.015748 1.14488,-0.305512l0.00708661 -0.15315 -0.161811 -0.166535c-0.212992,-0.105512 -2.43701,0.308661 -2.73425,0.427165 -2.00551,0.798819 -2.78583,2.44016 -3.84055,4.17087 -0.226378,0.371654 -0.351969,0.784646 -0.758661,0.881496 -2.27126,0.540551 -3.41811,1.47087 -5.17205,2.83898l-2.52087 2.30512c0,-1.28622 -0.00787402,-2.4752 0.198425,-3.69055 0.255906,-1.50591 0.729528,-3.0185 1.48937,-4.32047 0.416142,-0.713386 1.9063,-2.71929 2.43898,-3.47205l-0.234252 -0.234252c-0.367323,0.1 -1.57008,1.88465 -1.84055,2.29055 -0.633071,0.950787 -1.07362,1.48976 -1.51732,2.60512 -0.514173,1.29134 -0.698425,2.34882 -0.937795,3.70079 -0.153937,0.870472 -0.0610236,3.26181 -0.112205,3.54252 -0.0472441,0.26063 -2.51732,2.54055 -2.89291,2.91654 -0.327165,0.327559 -0.712205,0.614567 -1.03071,0.937008 -0.309055,0.313386 -0.662205,0.623228 -1.00748,0.913386 -0.36063,0.303543 -0.701969,0.599606 -1.07795,0.88937l-2.47047 1.46535c0.156693,-0.659449 0.602756,-1.20118 0.655118,-2.6248l0.0476378 -0.748819c-0.0015748,-0.3 0.0480315,-0.487402 0.0468504,-0.796457l0.0019685 -1.22008c-0.00669291,-0.182283 -0.0440945,-0.188583 -0.0507874,-0.370866 -0.00944882,-0.26063 0.0133858,-0.539764 0.00393701,-0.800394l-0.133071 -2.35039c-0.0759843,-0.475591 -0.00826772,-2.61969 -0.00944882,-3.27008 -0.000787402,-0.472835 0.080315,-1.02244 0.167717,-1.47205 0.158268,-0.814961 0.624409,-1.5063 1.09606,-2.18346 0.215354,-0.309055 0.542913,-0.601181 0.750787,-0.88937 0.349213,-0.484252 2.75945,-2.60945 3.38504,-3.18858l-0.164173 -0.226772c-0.41378,-0.0114173 -0.500787,0.316142 -0.80315,0.538976 -0.230709,0.169685 -0.431102,0.378346 -0.665748,0.552362 -0.404724,0.299606 -0.935433,0.781102 -1.29528,1.14094 -0.822047,0.822047 -1.57992,1.59882 -2.19134,2.63465 -0.794094,1.34488 -0.795276,2.44134 -0.795276,4.03031 0,0.561024 -0.0673228,1.91063 0.0185039,2.37126 0.0685039,0.368504 0.00275591,0.759055 0.065748,1.15236 0.0248031,0.156693 0.0102362,0.430709 0.00944882,0.599606l0.0909449 1.68937c0.0614173,0.525591 0.0204724,1.25512 -0.0413386,1.78071l-0.0527559 1.16535c-0.0161417,0.148031 -0.061811,0.372441 -0.0858268,0.523228 -0.125591,0.789764 -0.272835,1.10079 -0.566929,1.82244 -0.208661,0.511811 -0.0775591,0.405512 -0.577559,0.640551 -1.8122,0.851575 -3.84882,1.29882 -5.84252,1.37205l-1.16929 0.0488189c-0.425591,0 -0.767323,0.0476378 -1.17126,0.0468504 -0.395669,-0.000787402 -0.820866,-0.127559 -0.890157,0.303543l0 0.0326772z"/>
      </g>
      <polygon id="_224855032" class="fil2" points="114.628,77.3634 115.217,78.9024 113.68,78.4685 "/>
     </g>
     <g>
      <g>
       <g>
        <path id="_224854936" class="fil2" d="M65.5413 93.0268c0.659449,-0.769291 1.35118,-1.6815 1.71496,-2.63228 0.222441,-0.580709 0.256693,-1.01339 0.325197,-1.61142 0.0377953,-0.325984 -0.0145669,-0.639764 -0.175591,-0.927953 -0.347244,-0.620866 -1.03937,-0.876772 -1.57835,-1.28504 -0.279921,-0.212205 -0.488583,-0.445276 -0.554331,-0.802756 -0.259449,-1.40787 -0.341339,-2.83189 -0.454331,-4.25669 -0.220079,-2.77283 -0.574409,-5.72638 -1.41142,-8.38504 -0.782283,-2.48228 -1.92402,-4.40157 -3.89252,-6.12598 -4.03268,-3.53268 -9.60157,-4.69803 -14.822,-4.86969 -1.04094,-0.0338583 -2.0874,-0.0125984 -3.12677,0.053937 -1.86575,0.120079 -3.86063,0.387008 -5.6563,0.917323 -2.27441,0.671654 -4.72913,1.82559 -6.61929,3.25 -0.947244,0.713386 -1.76575,1.53346 -2.56339,2.40669 -0.877559,0.961811 -1.57047,1.75276 -2.19291,2.91102 -0.236614,0.440157 -0.493701,0.870079 -0.728346,1.31063 -0.254331,0.479134 -0.455906,0.95748 -0.63189,1.47087 -0.244094,0.711811 -0.585827,1.38504 -0.818504,2.10709 -0.0984252,0.304331 -0.199213,0.611417 -0.28189,0.920472 -0.0984252,0.364961 -0.194094,0.840551 0.247244,1.04843 0.144882,0.0685039 0.26063,0.0649606 0.36811,0.0409449 0.387008,-0.0846457 0.807087,-0.224016 1.18661,-0.33937 0.264961,-0.0807087 0.531102,-0.162205 0.799213,-0.230709 0.277953,-0.0712598 0.559449,-0.127953 0.840551,-0.182677 0.395276,-0.0775591 0.799606,-0.135433 1.19961,-0.180315 0.431496,-0.0484252 0.914961,-0.0940945 1.34882,-0.0716535 0.632677,0.0318898 1.27756,0.0476378 1.90551,0.128346 0.601181,0.0771654 1.15512,0.222441 1.72283,0.433071 3.59764,1.33465 5.64685,3.79409 7.90157,6.73346 0.726772,0.947638 1.49055,1.87008 2.2874,2.75906 0.801181,0.894882 1.64094,1.76378 2.52717,2.57441 0.783465,0.716142 1.62874,1.41496 2.52717,1.98307 1.97913,1.25079 4.33858,2.64646 6.60157,3.26614 0.644882,0.176772 1.35433,0.263386 2.02008,0.31811 0.815354,0.0673228 1.64055,0.0866142 2.45906,0.0708661 0.820079,-0.0153543 1.64646,-0.0661417 2.46102,-0.168504 0.666142,-0.0838583 1.38346,-0.206299 2.0189,-0.426378 1.27008,-0.440551 2.33504,-1.03189 3.04528,-2.20748z"/>
       </g>
       <path id="_224854624" class="fil0" d="M44.6748 62.6831c5.07835,0.166929 10.5433,1.28819 14.476,4.73307 1.89291,1.65787 2.9752,3.48465 3.72874,5.87559 0.809843,2.57087 1.1748,5.57835 1.3878,8.26299 0.116142,1.46417 0.194488,2.86181 0.461417,4.31299 0.290551,1.57795 2.45906,1.50118 2.30315,2.85197 -0.0972441,0.84252 -0.0350394,1.76811 -1.94134,3.98268 -0.633858,1.0752 -1.60315,1.60236 -2.7752,2.00866 -1.99409,0.691339 -6.60984,0.749606 -8.63228,0.195669 -2.15709,-0.591339 -4.55669,-2.00276 -6.45197,-3.20079 -2.33976,-1.47835 -5.1315,-4.49055 -7.19843,-7.18504 -2.06693,-2.69488 -4.24724,-5.4685 -8.14803,-6.91575 -1.41575,-0.525197 -2.30276,-0.519291 -3.79252,-0.595276 -0.701969,-0.0358268 -1.92047,0.112598 -2.68307,0.261811 -0.762598,0.149213 -0.967323,0.206299 -1.69409,0.426772 -0.726772,0.220472 -1.03622,0.304724 -1.14409,0.328346 -0.108268,0.023622 0.0771654,-0.573622 0.311024,-1.29961 0.234252,-0.725984 0.579921,-1.47717 0.815354,-2.09724 0.369685,-1.20472 0.738189,-1.60709 1.32441,-2.69882 0.618898,-1.15118 1.2185,-1.8185 2.11417,-2.79961 0.78189,-0.856693 1.55827,-1.63819 2.4874,-2.33819 1.65906,-1.25 4.05866,-2.45709 6.44331,-3.16142 2.38425,-0.704331 5.72677,-1.04331 8.60827,-0.948819z"/>
       <path id="_224854480" class="fil5" d="M65.0606 85.9543c-0.258268,0.274803 -0.302362,0.17874 -0.843307,0.179134l-0.700787 -0.0488189c-0.420866,-0.0153543 -1.1126,0.0531496 -1.49134,-0.00748031 -0.279921,-0.0444882 -0.424803,-0.0318898 -0.714173,-0.0358268 -0.542126,-0.00669291 -1.8815,-0.383465 -2.20591,-0.292126 -0.0893701,0.0251969 -0.189764,0.0681102 -0.275197,0.10315 -1.79843,0.736614 -3.47913,4.61575 -5.34094,5.85669 -1.64685,1.09803 -2.41575,1.09528 -4.40079,1.5874l-0.147638 -0.232677c0.21811,-0.372047 0.255512,-0.253937 0.653937,-0.376772 2.03228,-0.626772 1.89252,-0.262992 3.78228,-1.5122 1.11693,-0.738189 2.59724,-3.43622 3.80197,-4.6311 0.175984,-0.174409 0.291339,-0.370079 0.491732,-0.538976l0.597244 -0.480315c-0.187402,-0.0858268 -0.506693,-0.144488 -0.720472,-0.216535 -0.228346,-0.0767717 -0.457874,-0.16378 -0.691732,-0.245669 -0.392913,-0.137402 -0.978346,-0.379921 -1.35197,-0.568504l-2.47913 -1.31575c-0.231102,0.0122047 -0.56811,0.101969 -0.805118,0.139764 -2.50394,0.39685 -5.50276,2.16969 -8.14685,2.44094l-3.65748 0.184252 -0.145669 -0.285039 0.161024 -0.214961c0.623622,-0.073622 1.50866,0.0181102 2.14606,-0.0562992 0.352756,-0.0409449 0.748819,-0.0212598 1.29055,-0.114567 2.66417,-0.459843 4.47913,-1.32598 6.96929,-2.16614 0.474803,-0.160236 0.977953,-0.254331 1.46969,-0.357874 -0.0944882,-0.148031 -0.372047,-0.292913 -0.541732,-0.41811 -0.322047,-0.236614 -3.38661,-3.06535 -3.60433,-3.28307 -0.658268,-0.658268 -1.30906,-1.30906 -1.96732,-1.96772 -0.32874,-0.32874 -0.700787,-0.607087 -1.03071,-0.937008l-1.00787 -0.960236c-0.55,-0.0645669 -1.15827,-0.0181102 -1.67087,0.0850394 -1.26614,0.255118 -2.71732,0.927165 -3.92441,1.41654l-5.07992 2.05433 -0.228346 -0.147638c0.000393701,-0.446457 0.370079,-0.463386 1.04488,-0.735433 0.422441,-0.170079 0.833465,-0.358268 1.25709,-0.523228 1.70512,-0.663386 3.40906,-1.32441 5.10039,-2.02087 1.12677,-0.464173 1.72717,-0.584252 2.90039,-0.66811 -0.407874,-0.517323 -1.58819,-1.30827 -2.14291,-1.72992 -0.636614,-0.484252 -1.92087,-1.06535 -2.66969,-1.26575 -2.10276,-0.562598 -2.97559,-0.525591 -5.07795,-0.000393701 -1.48858,0.371654 -2.83425,0.98622 -4.22244,1.68071 -0.451181,0.225197 -0.849606,0.461417 -1.2811,0.686614 -0.932283,0.486614 -2.76772,1.74488 -3.49449,2.40866 -0.344882,0.314961 -0.699606,0.60748 -1.02992,0.937795 -0.510236,0.510236 -0.404724,0.464567 -1.02835,0.958268l-0.177953 -0.188583 0 -0.0559055c0.0188976,-0.176772 0.0870079,-0.251181 0.222047,-0.38622 0.345276,-0.343701 0.666929,-0.749213 1.03031,-1.07795 1.46024,-1.32165 3.15827,-2.55039 4.94724,-3.43898 1.37874,-0.685039 2.37953,-1.2126 3.86693,-1.70827 1.09134,-0.36378 2.27402,-0.660236 3.4252,-0.744488 0.443701,-0.0322835 0.915354,0.015748 1.35945,0.0476378 -0.375197,-0.573622 -0.737008,-1.17165 -1.09646,-1.76181 -0.378346,-0.62126 -0.707874,-1.1378 -1.23425,-1.67047 -0.410236,-0.414961 -1.25236,-0.888976 -1.82874,-1.02913 -0.424016,-0.102756 -0.835039,-0.122047 -1.25669,-0.195669 -0.66811,-0.116929 -0.490551,-0.015748 -1.14488,-0.305512l-0.00708661 -0.15315 0.161811 -0.166535c0.212992,-0.105512 2.43701,0.308661 2.73425,0.427165 2.00591,0.798819 2.78583,2.44016 3.84055,4.17087 0.226378,0.371654 0.351969,0.784646 0.758661,0.881496 2.27126,0.540551 3.41811,1.47087 5.17205,2.83898l2.52087 2.30512c0,-1.28622 0.00787402,-2.4752 -0.198425,-3.69055 -0.255906,-1.50591 -0.729528,-3.0185 -1.48937,-4.32047 -0.416142,-0.713386 -1.90591,-2.71929 -2.43898,-3.47205l0.234252 -0.234252c0.367717,0.1 1.57047,1.88465 1.84055,2.29055 0.633465,0.950787 1.07362,1.48976 1.51772,2.60512 0.51378,1.29134 0.698425,2.34882 0.937402,3.70079 0.154331,0.870472 0.0610236,3.26181 0.112205,3.54252 0.0476378,0.26063 2.51772,2.54055 2.89291,2.91654 0.327165,0.327559 0.712205,0.614567 1.03071,0.937008 0.309055,0.313386 0.662205,0.623228 1.00748,0.913386 0.36063,0.303543 0.701969,0.599606 1.07835,0.88937l2.47008 1.46535c-0.156693,-0.659449 -0.602756,-1.20118 -0.654724,-2.6248l-0.0476378 -0.748819c0.0011811,-0.3 -0.0480315,-0.487402 -0.0472441,-0.796457l-0.0019685 -1.22008c0.00669291,-0.182283 0.0440945,-0.188583 0.0507874,-0.370866 0.00944882,-0.26063 -0.0133858,-0.539764 -0.00354331,-0.800394l0.132677 -2.35039c0.0759843,-0.475591 0.00826772,-2.61969 0.00944882,-3.27008 0.000787402,-0.472835 -0.080315,-1.02244 -0.167717,-1.47205 -0.158268,-0.814961 -0.624409,-1.5063 -1.09606,-2.18346 -0.215354,-0.309055 -0.542913,-0.601181 -0.750787,-0.88937 -0.348819,-0.484252 -2.75945,-2.60945 -3.38504,-3.18858l0.164567 -0.226772c0.413386,-0.0114173 0.500394,0.316142 0.80315,0.538976 0.230315,0.169685 0.430709,0.378346 0.665748,0.552362 0.404724,0.299606 0.935039,0.781102 1.29488,1.14094 0.822047,0.822047 1.58031,1.59882 2.19134,2.63465 0.794094,1.34488 0.795276,2.44134 0.795276,4.03031 0,0.561024 0.0673228,1.91063 -0.0185039,2.37126 -0.0685039,0.368504 -0.00275591,0.759055 -0.065748,1.15236 -0.0248031,0.156693 -0.0102362,0.430709 -0.00905512,0.599606l-0.0913386 1.68937c-0.0614173,0.525591 -0.0204724,1.25512 0.0413386,1.78071l0.0527559 1.16535c0.0161417,0.148031 0.061811,0.372441 0.0858268,0.523228 0.125984,0.789764 0.272835,1.10079 0.566929,1.82244 0.208661,0.511811 0.0779528,0.405512 0.577559,0.640551 1.8122,0.851575 3.84882,1.29882 5.84252,1.37205l1.16969 0.0488189c0.425197,0 0.766929,0.0476378 1.17087,0.0468504 0.395669,-0.000787402 0.820866,-0.127559 0.890157,0.303543l0 0.0326772z"/>
      </g>
      <polygon id="_224854408" class="fil2" points="22.1079,77.3634 21.5193,78.9024 23.0563,78.4685 "/>
     </g>
    </g>
    <g>
     <path id="_224854192" class="fil2" d="M68.4602 25.6807c-2.18307,-1.19921 -3.16693,-3.95354 -3.16693,-6.32362 0,-2.44449 1.04488,-5.60984 3.11772,-7.04685l0.315748 -0.218504 0.314961 0.218504c2.07283,1.43701 3.11811,4.60236 3.11811,7.04685 0,2.37008 -0.984252,5.12441 -3.16693,6.32362l-0.266535 0.146063 -0.266142 -0.146063zm5.94134 33.35c-0.258661,-1.5122 0.0732283,-3.08189 0.711024,-4.45984 0.737795,-1.59291 1.90157,-2.98898 3.27165,-4.07795 0.472047,-0.374409 0.97126,-0.716142 1.48937,-1.02362 1.32598,-0.785827 2.81969,-1.3748 4.33386,-1.67047 1.34173,-0.261417 2.82165,-0.312205 4.14173,0.0866142l0.366929 0.111024 0.0251969 0.382677c0.0901575,1.37638 -0.293701,2.8063 -0.852362,4.05433 -0.629528,1.40827 -1.54094,2.73071 -2.60669,3.84488 -0.416535,0.435039 -0.861417,0.844094 -1.33307,1.2189 -1.37047,1.08937 -2.99291,1.90709 -4.71181,2.26535 -1.48622,0.31063 -3.09016,0.278346 -4.50472,-0.314567l-0.280315 -0.117323 -0.0507874 -0.3zm0.2 -10.2571c-0.338189,-1.41339 -0.122835,-2.91811 0.394882,-4.26063 0.597244,-1.55 1.60906,-2.94055 2.83504,-4.05354 0.422047,-0.383465 0.87126,-0.73622 1.34173,-1.05827 2.14016,-1.46693 5.29409,-2.62638 7.90551,-2.02126l0.373622 0.0866142 0.05 0.380315c0.350787,2.65709 -1.10748,5.68543 -2.77402,7.67402 -0.365354,0.437008 -0.760236,0.850394 -1.18228,1.23346 -1.22638,1.11339 -2.70748,1.98661 -4.30748,2.43228 -1.38622,0.385039 -2.90433,0.454724 -4.27874,-0.0185039l-0.287402 -0.0988189 -0.0708661 -0.295669zm-2.13307 -8.41929c-0.418504,-1.21339 -0.359449,-2.55276 -0.0200787,-3.77717 0.390945,-1.40827 1.15748,-2.71181 2.13583,-3.79134 0.33622,-0.370866 0.7,-0.71811 1.08307,-1.04055 1.75157,-1.4689 4.41142,-2.74921 6.75236,-2.44252l0.379921 0.05 0.0874016 0.373622c0.534252,2.3 -0.479528,5.07283 -1.77047,6.95984 -0.282283,0.413386 -0.59252,0.808268 -0.92874,1.17913 -0.978346,1.07992 -2.20039,1.97047 -3.56339,2.49724 -1.18543,0.45748 -2.51299,0.648031 -3.76142,0.349606l-0.295276 -0.0700787 -0.0992126 -0.287795zm-2.69173 -8.53622c-0.346063,-1.01614 -0.294094,-2.13543 -0.00590551,-3.15906 0.32874,-1.16929 0.969291,-2.25039 1.78583,-3.14528 1.52638,-1.67126 4.21299,-3.17795 6.52717,-2.86614l0.380315 0.0515748 0.0850394 0.373622c0.438583,1.91772 -0.406693,4.21654 -1.48819,5.78465 -0.235827,0.342126 -0.493701,0.669291 -0.774409,0.976378 -0.816142,0.894094 -1.83465,1.63031 -2.96969,2.06378 -0.993307,0.379528 -2.10276,0.533071 -3.14685,0.279921l-0.294882 -0.0716535 -0.0984252 -0.287795zm-7.99449 27.6299c-1.41457,0.592913 -3.0185,0.625197 -4.50472,0.314567 -1.7189,-0.358268 -3.34134,-1.17598 -4.71181,-2.26535 -0.471654,-0.374803 -0.916535,-0.783858 -1.33346,-1.2189 -1.06535,-1.11417 -1.97677,-2.43661 -2.60709,-3.84488 -0.557874,-1.24803 -0.941339,-2.67795 -0.851575,-4.05433l0.0251969 -0.382677 0.366929 -0.111024c1.32008,-0.398819 2.8,-0.348031 4.14173,-0.0866142 1.51339,0.295669 3.00787,0.884646 4.33386,1.67047 0.51811,0.30748 1.01732,0.649213 1.48937,1.02362 1.37008,1.08898 2.53386,2.48504 3.27126,4.07795 0.638189,1.37795 0.969685,2.94764 0.711417,4.45984l-0.0507874 0.3 -0.280315 0.117323zm-0.227165 -10.2799c-1.37441,0.473228 -2.89252,0.403543 -4.27835,0.0185039 -1.60039,-0.445669 -3.0815,-1.3189 -4.30787,-2.43228 -0.421654,-0.383071 -0.816929,-0.796457 -1.18228,-1.23346 -1.66654,-1.98858 -3.1248,-5.01693 -2.77402,-7.67402l0.05 -0.380315 0.373622 -0.0866142c2.61142,-0.605118 5.76535,0.554331 7.90551,2.02126 0.469685,0.322047 0.919685,0.674803 1.34173,1.05827 1.22598,1.11299 2.2378,2.50354 2.83504,4.05354 0.517717,1.34252 0.733071,2.84724 0.394882,4.26063l-0.0708661 0.295669 -0.287402 0.0988189zm2.09724 -8.45591c-1.24882,0.298425 -2.57638,0.107874 -3.76181,-0.349606 -1.36299,-0.526772 -2.58504,-1.41732 -3.56378,-2.49724 -0.335827,-0.370866 -0.646063,-0.765748 -0.928346,-1.17913 -1.29094,-1.88701 -2.30472,-4.65984 -1.77008,-6.95984l0.0870079 -0.373622 0.379921 -0.05c2.34094,-0.306693 5.00079,0.973622 6.75236,2.44252 0.383465,0.322441 0.74685,0.669685 1.08307,1.04055 0.978346,1.07953 1.74488,2.38307 2.13583,3.79134 0.33937,1.22441 0.398425,2.56378 -0.0200787,3.77717l-0.0992126 0.287795 -0.294882 0.0700787zm2.69252 -8.53465c-1.04409,0.25315 -2.15354,0.0996063 -3.14685,-0.279921 -1.13504,-0.433465 -2.15354,-1.16969 -2.96969,-2.06378 -0.280709,-0.307087 -0.538583,-0.634252 -0.774409,-0.976378 -1.0815,-1.56811 -1.92677,-3.86693 -1.48858,-5.78465l0.0854331 -0.373622 0.380315 -0.0515748c2.31417,-0.311811 5.00079,1.19488 6.52717,2.86614 0.816535,0.894882 1.45709,1.97598 1.78583,3.14528 0.288189,1.02362 0.340157,2.14291 -0.00590551,3.15906l-0.0984252 0.287795 -0.294882 0.0716535z"/>
    </g>
    <g>
     <path id="_224853928" class="fil6" d="M68.7264 25.1957l0 0 0 0 0 0c1.6878,-0.926772 2.88031,-3.19173 2.88031,-5.83858 0,-2.64685 -1.19252,-5.42205 -2.88031,-6.59173l0 0 0 0 0 0 0 0c-1.6878,1.16969 -2.87992,3.94488 -2.87992,6.59173 0,2.64685 1.19213,4.91181 2.87992,5.83858l0 0z"/>
     <path id="_224853760" class="fil6" d="M74.9469 58.9378l0 0 0 0 0 0c2.41654,1.01339 5.83819,0.366929 8.65827,-1.87362 2.81969,-2.24094 4.76654,-5.86063 4.58425,-8.64882l0 -0.000393701 0 0 0 0 -0.000393701 0c-2.6748,-0.807874 -6.64055,0.270866 -9.46024,2.51142 -2.81969,2.24055 -4.22323,5.42835 -3.78189,8.01102l0 0.000393701z"/>
     <path id="_224853592" class="fil6" d="M75.1398 48.6449l0 0.000393701 0 0 0.000393701 0c2.33701,0.804331 5.5185,-0.0165354 8.03386,-2.30039 2.51575,-2.28425 4.12441,-5.8122 3.77992,-8.42598l0 0 0 0 -0.000393701 -0.000393701 0 0c-2.56811,-0.594882 -6.23425,0.666535 -8.75,2.95039 -2.51575,2.28425 -3.63898,5.37205 -3.06378,7.77598l0 0z"/>
     <path id="_224853424" class="fil6" d="M72.9913 40.1744l0 0 0 0 0.000393701 0c2.09921,0.500787 4.7937,-0.482283 6.78622,-2.68031 1.99252,-2.19803 3.09094,-5.40039 2.56969,-7.64252l0.000393701 0 -0.000393701 0 0 0 0 0c-2.28189,-0.299213 -5.36102,1.10787 -7.35315,3.30591 -1.99252,2.19803 -2.70669,4.97638 -2.00315,7.01654l0 0.000393701z"/>
     <path id="_224853256" class="fil6" d="M70.3008 31.6398l0 0 0 0 0 0c1.72126,0.417323 3.93583,-0.381496 5.57756,-2.17953 1.64134,-1.79803 2.55276,-4.42244 2.1315,-6.26417l0.000393701 0 -0.000393701 0 0 0 0 0c-1.87165,-0.252362 -4.40276,0.893307 -6.04449,2.69134 -1.64173,1.79764 -2.23622,4.07598 -1.66457,5.75236l0 0z"/>
     <path id="_224853088" class="fil6" d="M61.5681 58.9378l0 0 0 0 0 0c-2.41654,1.01339 -5.83819,0.366929 -8.65827,-1.87362 -2.81969,-2.24094 -4.76654,-5.86063 -4.58425,-8.64882l0 -0.000393701 0 0 0 0 0.000393701 0c2.6748,-0.807874 6.64055,0.270866 9.46024,2.51142 2.81969,2.24055 4.22283,5.42835 3.78189,8.01102l0 0.000393701z"/>
     <path id="_224852920" class="fil6" d="M61.3752 48.6449l0 0.000393701 0 0 -0.000393701 0c-2.33701,0.804331 -5.5185,-0.0165354 -8.03425,-2.30039 -2.51535,-2.28425 -4.12402,-5.8122 -3.77953,-8.42598l0 0 0 0 0.000393701 -0.000393701 0 0c2.56811,-0.594882 6.23425,0.666535 8.75,2.95039 2.51575,2.28425 3.63898,5.37205 3.06378,7.77598l0 0z"/>
     <path id="_224852752" class="fil6" d="M63.5236 40.1744l0 0 0 0 -0.000393701 0c-2.09921,0.500787 -4.7937,-0.482283 -6.78622,-2.68031 -1.99252,-2.19803 -3.09094,-5.40039 -2.57008,-7.64252l0 0 0.000393701 0 0 0 0 0c2.28189,-0.299213 5.36102,1.10787 7.35315,3.30591 1.99252,2.19803 2.70669,4.97638 2.00315,7.01654l0 0.000393701z"/>
     <path id="_224852296" class="fil6" d="M66.2142 31.6398l0 0 0 0 0 0c-1.72126,0.417323 -3.93583,-0.381496 -5.57756,-2.17953 -1.64134,-1.79803 -2.55276,-4.42244 -2.1315,-6.26417l-0.000393701 0 0.000393701 0 0 0 0 0c1.87165,-0.252362 4.40276,0.893307 6.04449,2.69134 1.64173,1.79764 2.23622,4.07598 1.66457,5.75236l0 0z"/>
    </g>
    <polyline id="_224852224" class="fil7" points="107.859,80.6866 107.735,80.672 102.365,89.3996 "/>
    <polyline id="_224852200" class="fil7" points="28.9551,80.6866 29.0795,80.672 34.4488,89.3996 "/>
    <g>
     <path id="_224851984" class="fil2" d="M37.8504 96.024c-1.92835,-1.57323 -3.73465,-3.29409 -5.40079,-5.1437l-3.0874 1.89961 -7.47362 -12.1476 8.00433 -0.937402 0.180709 0.320866c2.04331,3.62717 4.59488,6.95591 7.56378,9.87402 8.20079,8.05945 19.1134,12.5709 30.6201,12.5709 11.5063,0 22.4189,-4.51142 30.6197,-12.5705 2.96929,-2.91811 5.52087,-6.24724 7.56417,-9.87441l0.180709 -0.320866 8.00433 0.937402 -7.47362 12.1476 -3.0878 -1.90039c-1.66614,1.85 -3.47283,3.57087 -5.40039,5.14449l2.01024 3.14409 -13.4406 8.59724 -2.44213 -3.81929c-2.82283,1.03858 -5.74016,1.80984 -8.70709,2.30315l0 4.02795 -15.6551 0 0 -4.02953c-2.96693,-0.492913 -5.88346,-1.26378 -8.7063,-2.30157l-2.44291 3.81929 -13.4406 -8.59724 2.01024 -3.14409z"/>
    </g>
    <path id="_224851816" class="fil8" d="M68.2575 103.014l0 0c-16.5929,-0.0547244 -31.0472,-9.20079 -38.6661,-22.7268l-1.75866 0.205906 -5.01811 0.587402 6.72913 10.9382 3.01024 -1.85276c1.87165,2.11811 3.92717,4.06929 6.14173,5.82795l-0.112205 -0.0889764 -1.97913 3.09488 12.5083 8.00079 2.38543 -3.72953 -0.0673228 -0.0255906c3.04764,1.15866 6.2437,2.01457 9.55236,2.53071l0 3.94764 7.27441 0 0 0 7.27441 0 0 -3.94646c3.28425,-0.512598 6.45787,-1.36024 9.48543,-2.5063l2.38504 3.72953 12.5083 -8.00079 -1.97913 -3.09488c-0.354724,0.283465 -0.713386,0.561811 -1.07638,0.835039 2.58504,-1.94843 4.96654,-4.15354 7.10748,-6.57717l-0.0023622 0.00275591 3.01102 1.85315 6.72913 -10.9382 -5.01811 -0.587402 -1.75866 -0.205906c-7.6189,13.526 -22.0732,22.672 -38.6661,22.7268z"/>
    <path id="_224851696" class="fil5" d="M65.9358 90.711c-0.00708661,-0.515354 0.218898,-1.81299 0.237402,-2.38661l0.140157 -3.56102c0.0208661,-0.690157 -0.0153543,-6.88661 -0.0767717,-7.28504 -0.053937,-0.348819 0.0141732,-0.68937 -0.0393701,-1.0378 -0.0889764,-0.576772 -0.0645669,-1.29803 -0.157874,-1.99764 -0.170079,-1.27362 -1.7,-4.84528 -2.45591,-5.97756 -1.15472,-1.72913 -2.58228,-3.00748 -4.23346,-4.24685 -1.70551,-1.28031 -3.66102,-2.25079 -5.76299,-2.66969 -2.70118,-0.538583 -4.80472,-0.262598 -7.44016,0.422835 -1.81496,0.472047 -5.54567,1.16575 -7.21181,0.221654 -1.04488,-0.592126 -1.40827,-1.7185 -1.3437,-2.87559 0.0511811,-0.924409 0.33622,-2.77559 0.469291,-3.7937 -0.296457,0.26811 -1.55354,2.15394 -1.84646,2.60433 -1.20433,1.85 -1.48031,3.17205 -0.936614,5.28622 0.181496,0.706299 0.407087,0.861417 0.993307,1.25551 1.21181,0.814173 1.45354,1.1626 2.90827,1.58898 0.770866,0.226378 1.3,0.15315 2.07008,0.179528 0.631496,0.0212598 0.0724409,0.115748 1.01102,-0.0141732 1.82047,-0.251969 2.9811,-0.479134 4.78976,-0.832283 0.61378,-0.119685 1.47913,-0.132283 2.11299,-0.134646 1.03386,-0.00314961 4.6626,0.853937 5.55591,1.19094 2.27756,0.859449 3.56496,2.15984 4.7185,4.22992 1.46496,2.62953 2.18583,6.04724 2.18819,9.0563 0.0011811,1.38858 0.00866142,1.93465 -0.0901575,3.28307l-0.195276 2.05866c-0.0480315,0.391339 0.0862205,0.374016 0.346063,0.688583 0.439764,0.532677 1.75906,1.90433 2.12126,2.37638 0.148425,0.193701 1.98307,2.25866 2.12835,2.36969z"/>
    <path id="_224851576" class="fil5" d="M75.2665 72.7823c0.103937,0.148425 0.113386,0.151969 0.305906,0.0944882l0.0019685 -0.247244c-0.127165,0.0677165 -0.157874,0.0322835 -0.307874,0.152756z"/>
    <path id="_224851456" class="fil5" d="M32.072 83.2453c0.134252,0.135433 0.0661417,0.113386 0.264961,0.101575 -0.0188976,-0.135039 0.0023622,-0.18189 -0.101969,-0.311811 -0.104724,0.242913 0.0748031,0.0862205 -0.162992,0.210236z"/>
    <path id="_224851336" class="fil5" d="M70.5791 90.4012c0.00669291,-0.515354 -0.218898,-1.81339 -0.237402,-2.38661l-0.140157 -3.56102c-0.0208661,-0.690551 0.0153543,-6.88701 0.0767717,-7.28504 0.0535433,-0.348819 -0.0141732,-0.68937 0.0393701,-1.03819 0.0889764,-0.576378 0.0645669,-1.29764 0.157874,-1.99724 0.170079,-1.27362 1.7,-4.84567 2.45591,-5.97756 1.15433,-1.72913 2.58228,-3.00748 4.23307,-4.24685 1.70551,-1.28031 3.66142,-2.25079 5.76339,-2.67008 2.70118,-0.538583 4.80472,-0.262598 7.43976,0.422835 1.81535,0.472047 5.54606,1.16575 7.2122,0.221654 1.04488,-0.591732 1.40827,-1.71811 1.3437,-2.8752 -0.0515748,-0.924409 -0.33622,-2.77598 -0.469291,-3.7937 0.296063,0.267717 1.55354,2.15394 1.84646,2.60433 1.20394,1.84961 1.47992,3.17165 0.936614,5.28583 -0.181496,0.706693 -0.407087,0.861811 -0.993307,1.25591 -1.21181,0.814173 -1.45354,1.1626 -2.90827,1.58898 -0.770866,0.225984 -1.3,0.15315 -2.07008,0.179134 -0.63189,0.0216535 -0.0728346,0.116142 -1.01102,-0.0137795 -1.82047,-0.251969 -2.9815,-0.479528 -4.78976,-0.832283 -0.61378,-0.119685 -1.47913,-0.132677 -2.11299,-0.134646 -1.03386,-0.00354331 -4.6626,0.853543 -5.55591,1.19055 -2.27756,0.859449 -3.56496,2.16024 -4.7185,4.23031 -1.46496,2.62913 -2.18583,6.04724 -2.18858,9.05591 -0.000787402,1.38858 -0.00826772,1.93504 0.0905512,3.28346l0.195276 2.05866c0.0476378,0.390945 -0.0862205,0.374016 -0.346063,0.688583 -0.440157,0.532677 -1.75945,1.90433 -2.12126,2.37638 -0.148425,0.193701 -1.98307,2.25866 -2.12835,2.36969z"/>
    <path id="_224851216" class="fil5" d="M61.2484 72.4724c-0.103937,0.148425 -0.113386,0.151969 -0.306299,0.0944882l-0.0015748 -0.247244c0.126772,0.0677165 0.157874,0.0322835 0.307874,0.152756z"/>
    <path id="_224851096" class="fil5" d="M104.443 82.9354c-0.134252,0.135433 -0.0661417,0.112992 -0.264961,0.101575 0.0188976,-0.135039 -0.00275591,-0.18189 0.101575,-0.311811 0.104724,0.242913 -0.0748031,0.0862205 0.163386,0.210236z"/>
    <g>
     <path id="_224850952" class="fil2" d="M65.8642 90.5445l0 -15.6882 4.78661 0 0 15.6894c0.969685,1.01575 1.37677,2.55315 1.50551,3.9122 0.0940945,0.987402 -1.24331,3.0752 -1.80079,3.84528 -0.512598,0.707874 -1.11654,1.44567 -1.77126,2.02756l-0.199213 0.177165 -0.127559 0.113386 -0.127165 -0.112992 -0.199606 -0.177559c-0.654724,-0.581496 -1.25906,-1.31969 -1.77126,-2.02756 -0.55748,-0.770079 -1.89488,-2.85748 -1.80079,-3.84528 0.129134,-1.35984 0.53622,-2.89646 1.50551,-3.91339z"/>
     <path id="_224850544" class="fil9" d="M68.2575 90.6575l2.12008 0 0 -0.0011811c0.876378,0.864567 1.45945,2.25118 1.50709,3.82756 0.0929134,0.577953 -0.624803,2.10433 -1.75039,3.65906 -0.604724,0.835433 -1.21811,1.52756 -1.7311,1.98386l0 -4.25472c0.292913,-0.0334646 0.556299,-0.166535 0.754331,-0.364567l0.000393701 -0.000393701 0.000393701 -0.000393701c0.230315,-0.230709 0.373228,-0.549213 0.373228,-0.9 0,-0.351969 -0.142913,-0.670472 -0.373228,-0.901181 -0.230315,-0.230315 -0.549213,-0.372835 -0.900787,-0.372835 -0.351969,0 -0.670472,0.14252 -0.900787,0.372835 -0.230709,0.230709 -0.373228,0.549213 -0.373228,0.901181 0,0.350787 0.14252,0.669291 0.373228,0.9l0.000393701 0.000393701 0.000393701 0.000393701c0.198031,0.198031 0.461417,0.331102 0.754331,0.364567l0 4.25472c-0.512992,-0.455906 -1.12638,-1.14803 -1.7315,-1.98386 -1.1252,-1.55472 -1.84291,-3.0811 -1.75,-3.65906 0.0476378,-1.57638 0.630709,-2.96299 1.50709,-3.82756l0 0.0011811 2.12008 0zm0.701969 3.24685c-0.179528,-0.179528 -0.427953,-0.290551 -0.701969,-0.290551 -0.274016,0 -0.522441,0.111024 -0.701969,0.290551 -0.179921,0.179921 -0.290945,0.427953 -0.290945,0.702362 0,0.274409 0.111024,0.522441 0.290157,0.701969l0.000787402 0.000393701c0.179134,0.179134 0.427559,0.290551 0.701969,0.290551 0.274409,0 0.522835,-0.111417 0.701969,-0.290551l0.000393701 -0.000393701c0.179528,-0.179528 0.290551,-0.427559 0.290551,-0.701969 0,-0.274409 -0.111417,-0.522441 -0.290945,-0.702362zm1.41811 -18.7752l-4.24016 0 0 15.2756 4.24016 0 0 -15.2756z"/>
     <path id="_224850688" class="fil4" d="M68.2575 93.5701c0.572441,0 1.03622,0.464173 1.03622,1.03622 0,0.572835 -0.46378,1.03661 -1.03622,1.03661 -0.572441,0 -1.03622,-0.46378 -1.03622,-1.03661 0,-0.572047 0.46378,-1.03622 1.03622,-1.03622z"/>
    </g>
   </g>
   <g>
    <g>
     <path id="_224850352" class="fil2" d="M374.924 45.9665l36.3591 0.0291339 -0.0248031 45.3673 23.0012 -0.026378 0.00984252 -45.3807 36.839 0.00629921c-0.475984,-19.4787 -17.5642,-17.1283 -39.2154,-17.1283l-57.0575 0.0248031 0.0885827 17.1079z"/>
     <path id="_224850184" class="fil2" d="M345.93 68.2929l-0.0125984 -14.0823c0.36063,-14.052 -3.14173,-25.1146 22.8512,-25.4657l0.0330709 37.0531c0,14.0071 3.12717,25.0717 -22.7047,25.4626l0 0.00314961 -0.146457 0 -41.9673 0 -0.146457 0 0 -0.00314961c-18.5224,-0.280315 -22.1551,-6.04882 -22.7283,-14.4547l0 -4.53543 0 -4.54252c0.451969,-8.85315 3.54291,-14.9717 22.7657,-15.2311l0.0141732 15.7961 42.0417 0z"/>
     <path id="_224850208" class="fil2" d="M500 52.6701l-0.00826772 0 0.00826772 -23.9252c-18.3024,0.216535 -22.2539,5.71417 -22.9772,13.8126l0 41.339 0.00669291 7.37283 22.9705 -0.0574803 0 -38.5417z"/>
    </g>
    <path id="_224850064" class="fil10" d="M281.109 106.595l2.19803 0c0.789764,0 1.32598,-0.164961 1.60827,-0.494882 0.282677,-0.329921 0.422835,-1.0126 0.422835,-2.0437l0 -4.8685 1.94449 0 0 5.2811c0,0.626772 -0.0641732,1.15669 -0.193701,1.58583 -0.127953,0.42874 -0.327953,0.789764 -0.598031,1.08465 -0.309449,0.342126 -0.670079,0.583465 -1.08071,0.721654 -0.410236,0.138189 -1.02874,0.208268 -1.85354,0.208268l-2.44764 0 0 -1.47441zm9.70157 -7.40709l0 5.31811c0,0.829134 0.150394,1.40827 0.449213,1.73622 0.301181,0.327953 0.816535,0.492913 1.55079,0.492913 0.733858,0 1.24961,-0.162598 1.54646,-0.488583 0.298819,-0.327953 0.447244,-0.90748 0.447244,-1.74055l0 -5.31811 1.86614 0 0 5.36575c0,0.62874 -0.0413386,1.12992 -0.123622,1.50512 -0.0826772,0.373228 -0.214567,0.670472 -0.395669,0.886614 -0.354724,0.418898 -0.800394,0.728346 -1.33858,0.924016 -0.538189,0.198031 -1.20433,0.29685 -2.00197,0.29685 -0.798031,0 -1.46614,-0.0988189 -2.00827,-0.29685 -0.54252,-0.195669 -0.989764,-0.505118 -1.34449,-0.924016 -0.177559,-0.212205 -0.305118,-0.500787 -0.385433,-0.86378 -0.080315,-0.361024 -0.121654,-0.872441 -0.121654,-1.52795l0 -5.36575 1.85984 0zm11.8252 1.58346l-2.28898 0 0 2.23346 2.28898 0c0.620472,0 1.05157,-0.0846457 1.29291,-0.253543 0.240945,-0.169291 0.362598,-0.457874 0.362598,-0.86811 0,-0.408268 -0.117323,-0.694882 -0.352362,-0.862205 -0.237402,-0.166929 -0.670079,-0.249606 -1.30315,-0.249606zm-4.15472 -1.58346l4.59606 0c1.07205,0 1.85787,0.214567 2.35669,0.645276 0.498819,0.431102 0.748425,1.10748 0.748425,2.0252 0,0.680315 -0.154724,1.23504 -0.461811,1.66614 -0.309449,0.431102 -0.752756,0.709449 -1.33189,0.833071l2.21614 3.71181 -2.10079 0 -1.95906 -3.49331 -2.19803 0 0 3.49331 -1.86575 0 0 -8.8815zm11.1094 0l0 5.31811c0,0.829134 0.150394,1.40827 0.449606,1.73622 0.301181,0.327953 0.816535,0.492913 1.55079,0.492913 0.733858,0 1.24961,-0.162598 1.54646,-0.488583 0.298819,-0.327953 0.447244,-0.90748 0.447244,-1.74055l0 -5.31811 1.86614 0 0 5.36575c0,0.62874 -0.0413386,1.12992 -0.124016,1.50512 -0.0822835,0.373228 -0.214173,0.670472 -0.395669,0.886614 -0.354724,0.418898 -0.8,0.728346 -1.33819,0.924016 -0.538189,0.198031 -1.20433,0.29685 -2.00197,0.29685 -0.798031,0 -1.46614,-0.0988189 -2.00866,-0.29685 -0.542126,-0.195669 -0.989764,-0.505118 -1.34409,-0.924016 -0.177559,-0.212205 -0.305118,-0.500787 -0.385433,-0.86378 -0.0807087,-0.361024 -0.122047,-0.872441 -0.122047,-1.52795l0 -5.36575 1.85984 0zm15.1803 1.58346l-4.61496 0c-0.49685,0 -0.859843,0.0929134 -1.09055,0.27874 -0.233071,0.185433 -0.348425,0.478346 -0.348425,0.880315 0,0.323622 0.0988189,0.564961 0.29685,0.725984 0.196063,0.161024 0.490945,0.241339 0.880315,0.241339l2.47244 0c1.02283,0 1.75039,0.193701 2.18346,0.579134 0.433071,0.387795 0.649606,1.0311 0.649606,1.93465 0,0.913386 -0.249213,1.58543 -0.748425,2.01457 -0.499213,0.429134 -1.28465,0.643307 -2.35669,0.643307l-4.97165 0 0 -1.58346 4.67677 0c0.53189,0 0.905118,-0.0787402 1.12362,-0.233071 0.216535,-0.154724 0.325591,-0.41063 0.325591,-0.769291 0,-0.37126 -0.0988189,-0.635039 -0.298819,-0.791732 -0.2,-0.157087 -0.540157,-0.235039 -1.0248,-0.235039l-2.2063 0c-1.02283,0 -1.7689,-0.204331 -2.24331,-0.612598 -0.472047,-0.41063 -0.709449,-1.05591 -0.709449,-1.93661 0,-0.944488 0.249606,-1.63307 0.746457,-2.06811 0.497244,-0.435039 1.28661,-0.651575 2.37126,-0.651575l4.88701 0 0 1.58346zm5.29094 0.181496l-1.29921 3.41929 2.64567 0 -1.34646 -3.41929zm-0.917717 -1.76496l1.97953 0 3.7878 8.8815 -2.07835 0 -0.814567 -2.11378 -3.85984 0 -0.791732 2.11378 -1.9815 0 3.75866 -8.8815zm6.39016 0l2.36299 0 3.63504 6.38031 -0.0905512 -6.38031 1.90906 0 0 8.8815 -2.1689 0 -3.81654 -6.7185 0.084252 6.7185 -1.91535 0 0 -8.8815zm16.3531 1.55906l-2.87047 0 0 -1.54685 7.68504 0 0 1.54685 -2.88031 0 0 7.32244 -1.93425 0 0 -7.32244zm9.37756 -0.0125984c-0.674016,0 -1.18583,0.169291 -1.52992,0.50748 -0.342126,0.338189 -0.533858,0.855512 -0.568898,1.55276l5.16496 0.00590551 0 1.54685 -5.17756 0c0.00393701,0.773228 0.167323,1.32992 0.492913,1.66811 0.323622,0.338189 0.86378,0.50748 1.6185,0.50748l3.06614 0 0 1.54646 -3.15669 0c-0.694882,0 -1.24331,-0.0598425 -1.64134,-0.177165 -0.398031,-0.119685 -0.773228,-0.319685 -1.12165,-0.602362 -0.455906,-0.362598 -0.796063,-0.835039 -1.0248,-1.41654 -0.226772,-0.581496 -0.340157,-1.27835 -0.340157,-2.08701 0,-1.57126 0.340157,-2.73031 1.02047,-3.47874 0.680315,-0.746457 1.73425,-1.11969 3.16299,-1.11969l3.10118 0 0 1.54646 -3.06614 0zm4.70315 -1.54646l1.86614 0 0 4.26654 3.49724 -4.26654 2.24134 0 -3.56299 4.33858 3.6 4.54291 -2.38543 0 -3.39016 -4.41693 0 4.41693 -1.86614 0 0 -8.8815zm8.29961 0l2.36299 0 3.63504 6.38031 -0.0905512 -6.38031 1.90945 0 0 8.8815 -2.16929 0 -3.81654 -6.7185 0.084252 6.7185 -1.91535 0 0 -8.8815zm9.04961 4.35118c0,-1.52835 0.364961,-2.66457 1.09528,-3.40906 0.73189,-0.744488 1.84331,-1.11732 3.33583,-1.11732 1.50551,0 2.6189,0.377165 3.34055,1.12992 0.723622,0.752756 1.08465,1.91575 1.08465,3.48701 0,1.56929 -0.361024,2.73425 -1.08465,3.49134 -0.721654,0.756693 -1.83504,1.13622 -3.34055,1.13622 -1.52165,0 -2.63898,-0.381496 -3.35669,-1.14252 -0.715354,-0.761024 -1.07441,-1.95276 -1.07441,-3.57559zm4.4311 -3.00472c-0.799606,0 -1.4,0.249606 -1.79567,0.748819 -0.396063,0.500787 -0.594094,1.25551 -0.594094,2.26614 0,1.09724 0.192126,1.89921 0.577559,2.40866 0.383465,0.509055 0.987795,0.764961 1.8122,0.764961 0.812598,0 1.41457,-0.253543 1.80866,-0.759055 0.391732,-0.505118 0.587402,-1.28465 0.587402,-2.33622 0,-1.05394 -0.195669,-1.83346 -0.587402,-2.33858 -0.394094,-0.50315 -0.996063,-0.754724 -1.80866,-0.754724zm9.22756 7.53504c-0.829134,0 -1.44567,-0.0700787 -1.84764,-0.208268 -0.401969,-0.138189 -0.762992,-0.379528 -1.08031,-0.721654 -0.294882,-0.307087 -0.50315,-0.653543 -0.622835,-1.03937 -0.121654,-0.387795 -0.181496,-0.929921 -0.181496,-1.6311l0 -5.2811 1.86614 0 0 5.21929c0,0.519685 0.0224409,0.886614 0.0700787,1.09685 0.0452756,0.212598 0.125591,0.381496 0.237008,0.511417 0.177559,0.208268 0.396063,0.359055 0.653937,0.447638 0.25748,0.0885827 0.614173,0.13189 1.06811,0.13189l2.2 0 0 1.47441 -2.36299 0zm2.34409 -4.53031c0,-1.52835 0.364961,-2.66457 1.09528,-3.40906 0.73189,-0.744488 1.84291,-1.11732 3.33583,-1.11732 1.50551,0 2.6189,0.377165 3.34055,1.12992 0.723622,0.752756 1.08465,1.91575 1.08465,3.48701 0,1.56929 -0.361024,2.73425 -1.08465,3.49134 -0.721654,0.756693 -1.83504,1.13622 -3.34055,1.13622 -1.52165,0 -2.63898,-0.381496 -3.35669,-1.14252 -0.715354,-0.761024 -1.07441,-1.95276 -1.07441,-3.57559zm4.4311 -3.00472c-0.8,0 -1.4,0.249606 -1.79606,0.748819 -0.395669,0.500787 -0.593701,1.25551 -0.593701,2.26614 0,1.09724 0.192126,1.89921 0.577559,2.40866 0.383465,0.509055 0.987795,0.764961 1.8122,0.764961 0.812598,0 1.41457,-0.253543 1.80866,-0.759055 0.391732,-0.505118 0.587402,-1.28465 0.587402,-2.33622 0,-1.05394 -0.195669,-1.83346 -0.587402,-2.33858 -0.394094,-0.50315 -0.996063,-0.754724 -1.80866,-0.754724zm8.93228 3.8378l0 -1.57165 4.41693 0 0 5.2689 -4.0189 0c-0.740157,0 -1.30906,-0.0598425 -1.70512,-0.181496 -0.398031,-0.119291 -0.769291,-0.319291 -1.11535,-0.598031 -0.455906,-0.362598 -0.796063,-0.835039 -1.02283,-1.41654 -0.22874,-0.581496 -0.342126,-1.27835 -0.342126,-2.08701 0,-1.56693 0.342126,-2.72598 1.0248,-3.4748 0.682283,-0.748425 1.73583,-1.12362 3.16063,-1.12362l4.0189 0 0 1.52795 -4.0189 0c-0.73189,0 -1.26575,0.237008 -1.60197,0.713386 -0.33622,0.474409 -0.505118,1.23346 -0.505118,2.27283 0,0.970866 0.166929,1.67205 0.501181,2.10709 0.333858,0.435433 0.869685,0.653937 1.60591,0.653937l2.10315 0 0 -2.09094 -2.50118 0zm7.91811 3.69724l-1.95039 0 0 -8.8815 1.95039 0 0 8.8815zm8.60236 0l-1.95039 0 0 -8.8815 1.95039 0 0 8.8815zm1.84961 -8.8815l2.36299 0 3.63504 6.38031 -0.0905512 -6.38031 1.90906 0 0 8.8815 -2.1689 0 -3.81654 -6.7185 0.084252 6.7185 -1.91535 0 0 -8.8815zm9.55709 4.79646c0,-1.13228 0.0681102,-1.96102 0.206299,-2.49094 0.135827,-0.530315 0.368898,-0.962992 0.698819,-1.29724 0.338189,-0.342126 0.789764,-0.595669 1.35472,-0.761024 0.562992,-0.164961 1.26575,-0.247244 2.10709,-0.247244l2.84567 0 0 1.54646 -3.00236 0c-0.810236,0 -1.39803,0.17126 -1.76693,0.511417 -0.369291,0.340551 -0.559055,0.888976 -0.57126,1.64567l5.34055 0.00629921 0 1.53386 -5.34055 0 0 3.6378 -1.87205 0 0 -4.08504zm7.88268 -0.445276c0,-1.52835 0.364961,-2.66457 1.09488,-3.40906 0.73189,-0.744488 1.84331,-1.11732 3.33622,-1.11732 1.50512,0 2.6185,0.377165 3.34016,1.12992 0.724016,0.752756 1.08465,1.91575 1.08465,3.48701 0,1.56929 -0.36063,2.73425 -1.08465,3.49134 -0.721654,0.756693 -1.83504,1.13622 -3.34016,1.13622 -1.52165,0 -2.63937,-0.381496 -3.35669,-1.14252 -0.715748,-0.761024 -1.07441,-1.95276 -1.07441,-3.57559zm4.4311 -3.00472c-0.8,0 -1.4,0.249606 -1.79606,0.748819 -0.395669,0.500787 -0.593701,1.25551 -0.593701,2.26614 0,1.09724 0.191732,1.89921 0.577165,2.40866 0.383465,0.509055 0.987795,0.764961 1.8126,0.764961 0.812598,0 1.41457,-0.253543 1.80827,-0.759055 0.391732,-0.505118 0.587795,-1.28465 0.587795,-2.33622 0,-1.05394 -0.196063,-1.83346 -0.587795,-2.33858 -0.393701,-0.50315 -0.995669,-0.754724 -1.80827,-0.754724zm9.86024 0.237008l-2.28858 0 0 2.23346 2.28858 0c0.620472,0 1.05157,-0.0846457 1.29291,-0.253543 0.241339,-0.169291 0.362598,-0.457874 0.362598,-0.86811 0,-0.408268 -0.117323,-0.694882 -0.352362,-0.862205 -0.237008,-0.166929 -0.670079,-0.249606 -1.30315,-0.249606zm-4.15472 -1.58346l4.59606 0c1.07205,0 1.85787,0.214567 2.35669,0.645276 0.499213,0.431102 0.748425,1.10748 0.748425,2.0252 0,0.680315 -0.154331,1.23504 -0.461811,1.66614 -0.309449,0.431102 -0.752756,0.709449 -1.33189,0.833071l2.21654 3.71181 -2.10118 0 -1.95866 -3.49331 -2.19803 0 0 3.49331 -1.86614 0 0 -8.8815zm9.27874 0l2.74213 0 2.26614 6.81535 2.26417 -6.81535 2.73189 0 0 8.8815 -1.83071 0 0.150394 -6.9185 -2.27638 6.9185 -1.9815 0 -2.35079 -6.99055 0.187795 6.99055 -1.90315 0 0 -8.8815zm15.3016 1.76496l-1.29921 3.41929 2.64567 0 -1.34646 -3.41929zm-0.917323 -1.76496l1.97913 0 3.7878 8.8815 -2.07835 0 -0.814567 -2.11378 -3.85984 0 -0.791732 2.11378 -1.9815 0 3.75906 -8.8815zm13.8992 1.58346l-4.61457 0c-0.49685,0 -0.859843,0.0929134 -1.09055,0.27874 -0.233071,0.185433 -0.348425,0.478346 -0.348425,0.880315 0,0.323622 0.0988189,0.564961 0.29685,0.725984 0.195669,0.161024 0.490551,0.241339 0.880315,0.241339l2.47244 0c1.02244,0 1.75039,0.193701 2.18346,0.579134 0.433071,0.387795 0.649606,1.0311 0.649606,1.93465 0,0.913386 -0.249606,1.58543 -0.748819,2.01457 -0.498819,0.429134 -1.28425,0.643307 -2.35669,0.643307l-4.97126 0 0 -1.58346 4.67638 0c0.532283,0 0.905512,-0.0787402 1.12402,-0.233071 0.216142,-0.154724 0.325591,-0.41063 0.325591,-0.769291 0,-0.37126 -0.0988189,-0.635039 -0.298819,-0.791732 -0.2,-0.157087 -0.540157,-0.235039 -1.0248,-0.235039l-2.2063 0c-1.02283,0 -1.76929,-0.204331 -2.24331,-0.612598 -0.472047,-0.41063 -0.709449,-1.05591 -0.709449,-1.93661 0,-0.944488 0.249606,-1.63307 0.746457,-2.06811 0.49685,-0.435039 1.28661,-0.651575 2.37126,-0.651575l4.88661 0 0 1.58346zm3.79213 7.29803l-1.95039 0 0 -8.8815 1.95039 0 0 8.8815z"/>
   </g>
   <g>
    <polygon id="_224849872" class="fil11" points="260.146,0.0988189 257.349,0.0988189 257.349,0.37874 255.95,0.37874 255.95,0.658268 254.831,0.658268 254.831,0.938189 253.712,0.938189 253.712,1.21811 252.872,1.21811 252.872,1.49764 252.033,1.49764 252.033,1.77756 251.194,1.77756 251.194,2.05748 250.634,2.05748 250.634,2.33701 250.075,2.33701 250.075,2.61693 249.515,2.61693 249.515,2.89685 248.956,2.89685 248.956,3.17638 248.396,3.17638 248.396,3.4563 247.837,3.4563 247.837,3.73583 247.277,3.73583 247.277,4.01575 246.998,4.01575 246.998,4.29528 246.438,4.29528 246.438,4.5752 246.158,4.5752 246.158,4.85472 245.598,4.85472 245.598,5.13465 245.319,5.13465 245.319,5.41457 244.759,5.41457 244.759,5.69409 244.48,5.69409 244.48,5.97402 244.2,5.97402 244.2,6.25394 243.92,6.25394 243.92,6.53346 243.361,6.53346 243.361,6.81339 243.081,6.81339 243.081,7.09331 242.801,7.09331 242.801,7.37283 242.521,7.37283 242.521,7.65276 242.241,7.65276 242.241,7.93228 241.962,7.93228 241.962,8.2122 241.682,8.2122 241.682,8.49173 241.402,8.49173 241.402,8.77165 241.122,8.77165 241.122,9.05118 240.843,9.05118 240.843,9.3311 240.563,9.3311 240.563,9.61102 240.283,9.61102 240.283,9.89055 240.004,9.89055 240.004,10.4504 239.724,10.4504 239.724,10.7299 239.444,10.7299 239.444,11.0098 239.164,11.0098 239.164,11.5693 238.884,11.5693 238.884,11.8492 238.605,11.8492 238.605,12.1291 238.325,12.1291 238.325,12.6882 238.045,12.6882 238.045,12.9681 237.765,12.9681 237.765,13.5276 237.485,13.5276 237.485,14.087 237.206,14.087 237.206,14.3669 236.926,14.3669 236.926,14.9264 236.646,14.9264 236.646,15.4858 236.366,15.4858 236.366,16.0457 236.087,16.0457 236.087,16.6051 235.807,16.6051 235.807,17.4441 235.527,17.4441 235.527,18.0035 235.248,18.0035 235.248,18.8429 234.968,18.8429 234.968,19.6823 234.688,19.6823 234.688,20.5217 234.408,20.5217 234.408,21.6406 234.128,21.6406 234.128,22.7598 233.848,22.7598 233.848,24.4386 233.569,24.4386 233.569,111.165 233.289,111.165 233.289,113.963 233.009,113.963 233.009,115.641 232.73,115.641 232.73,116.76 232.45,116.76 232.45,117.88 232.17,117.88 232.17,118.719 231.89,118.719 231.89,119.558 231.611,119.558 231.611,120.118 231.331,120.118 231.331,120.957 231.051,120.957 231.051,121.516 230.771,121.516 230.771,122.076 230.491,122.076 230.491,122.635 230.212,122.635 230.212,123.195 229.932,123.195 229.932,123.755 229.652,123.755 229.652,124.314 229.372,124.314 229.372,124.594 229.093,124.594 229.093,125.153 228.813,125.153 228.813,125.433 228.533,125.433 228.533,125.993 228.253,125.993 228.253,126.272 227.973,126.272 227.973,126.832 227.694,126.832 227.694,127.111 227.414,127.111 227.414,127.391 227.134,127.391 227.134,127.671 226.855,127.671 226.855,128.231 226.575,128.231 226.575,128.511 226.295,128.511 226.295,128.79 226.015,128.79 226.015,129.07 225.735,129.07 225.735,129.35 225.456,129.35 225.456,129.63 225.176,129.63 225.176,129.909 224.896,129.909 224.896,130.189 224.616,130.189 224.616,130.469 224.337,130.469 224.337,130.748 224.057,130.748 224.057,131.028 223.777,131.028 223.777,131.308 223.497,131.308 223.497,131.588 222.938,131.588 222.938,131.868 222.658,131.868 222.658,132.147 222.378,132.147 222.378,132.427 221.819,132.427 221.819,132.707 221.539,132.707 221.539,132.987 221.259,132.987 221.259,133.267 220.7,133.267 220.7,133.546 220.42,133.546 220.42,133.826 219.86,133.826 219.86,134.106 219.301,134.106 219.301,134.385 219.021,134.385 219.021,134.665 218.462,134.665 218.462,134.945 217.902,134.945 217.902,135.225 217.343,135.225 217.343,135.504 216.503,135.504 216.503,135.784 215.944,135.784 215.944,136.064 215.384,136.064 215.384,136.344 214.545,136.344 214.545,136.624 213.985,136.624 213.985,136.904 215.384,136.904 215.384,137.183 223.218,137.183 223.218,136.904 225.735,136.904 225.735,136.624 227.134,136.624 227.134,136.344 228.533,136.344 228.533,136.064 229.652,136.064 229.652,135.784 230.771,135.784 230.771,135.504 231.611,135.504 231.611,135.225 232.73,135.225 232.73,134.945 233.569,134.945 233.569,134.665 234.128,134.665 234.128,134.385 234.968,134.385 234.968,134.106 235.527,134.106 235.527,133.826 236.366,133.826 236.366,133.546 236.926,133.546 236.926,133.267 237.485,133.267 237.485,132.987 238.045,132.987 238.045,132.707 238.605,132.707 238.605,132.427 239.164,132.427 239.164,132.147 239.724,132.147 239.724,131.868 240.283,131.868 240.283,131.588 240.563,131.588 240.563,131.308 241.122,131.308 241.122,131.028 241.682,131.028 241.682,130.748 241.962,130.748 241.962,130.469 242.521,130.469 242.521,130.189 242.801,130.189 242.801,129.909 243.361,129.909 243.361,129.63 243.641,129.63 243.641,129.35 244.2,129.35 244.2,129.07 244.48,129.07 244.48,128.79 244.759,128.79 244.759,128.511 245.319,128.511 245.319,128.231 245.598,128.231 245.598,127.951 245.878,127.951 245.878,127.671 246.158,127.671 246.158,127.391 246.438,127.391 246.438,127.111 246.998,127.111 246.998,126.832 247.277,126.832 247.277,126.552 247.557,126.552 247.557,126.272 247.837,126.272 247.837,125.993 248.117,125.993 248.117,125.713 248.396,125.713 248.396,125.433 248.676,125.433 248.676,125.153 248.956,125.153 248.956,124.874 249.235,124.874 249.235,124.594 249.515,124.594 249.515,124.314 249.795,124.314 249.795,124.034 250.075,124.034 250.075,123.755 250.355,123.755 250.355,123.475 250.634,123.475 250.634,123.195 250.914,123.195 250.914,122.915 251.194,122.915 251.194,122.635 251.474,122.635 251.474,122.356 251.754,122.356 251.754,122.076 252.033,122.076 252.033,121.516 252.313,121.516 252.313,121.237 252.593,121.237 252.593,120.957 252.872,120.957 252.872,120.677 253.152,120.677 253.152,120.118 253.432,120.118 253.432,119.838 253.712,119.838 253.712,119.558 253.991,119.558 253.991,118.998 254.271,118.998 254.271,118.719 254.551,118.719 254.551,118.159 254.831,118.159 254.831,117.88 255.111,117.88 255.111,117.32 255.391,117.32 255.391,117.04 255.67,117.04 255.67,116.481 255.95,116.481 255.95,115.921 256.23,115.921 256.23,115.641 256.509,115.641 256.509,115.082 256.789,115.082 256.789,114.522 257.069,114.522 257.069,113.963 257.349,113.963 257.349,113.403 257.628,113.403 257.628,112.844 257.908,112.844 257.908,112.284 258.188,112.284 258.188,111.725 258.468,111.725 258.468,110.885 258.747,110.885 258.747,110.326 259.027,110.326 259.027,109.487 259.307,109.487 259.307,108.927 259.587,108.927 259.587,108.087 259.867,108.087 259.867,107.248 260.146,107.248 260.146,106.13 260.426,106.13 260.426,105.29 260.706,105.29 260.706,104.171 260.986,104.171 260.986,102.772 261.265,102.772 261.265,101.094 261.545,101.094 261.545,99.1354 261.825,99.1354 261.825,-0.181102 260.146,-0.181102 "/>
    <polygon id="_224849752" class="fil12" points="220.7,51.2957 216.783,51.2957 216.783,51.5756 213.706,51.5756 213.706,51.8551 211.467,51.8551 211.467,52.1346 209.509,52.1346 209.509,52.4146 207.551,52.4146 207.551,52.6945 206.152,52.6945 206.152,52.974 204.474,52.974 204.474,53.2539 203.074,53.2539 203.074,53.5339 201.956,53.5339 201.956,53.8134 200.557,53.8134 200.557,54.0933 199.438,54.0933 199.438,54.3732 198.319,54.3732 198.319,54.6528 197.2,54.6528 197.2,54.9327 196.081,54.9327 196.081,55.2126 195.241,55.2126 195.241,55.4921 194.122,55.4921 194.122,55.772 193.283,55.772 193.283,56.0516 192.444,56.0516 192.444,56.3311 191.604,56.3311 191.604,56.611 190.765,56.611 190.765,56.8909 189.926,56.8909 189.926,57.1705 189.087,57.1705 189.087,57.4504 188.527,57.4504 188.527,57.7303 187.688,57.7303 187.688,58.0098 186.848,58.0098 186.848,58.2898 186.289,58.2898 186.289,58.5697 185.449,58.5697 185.449,58.8492 184.89,58.8492 184.89,59.1291 184.331,59.1291 184.331,59.4091 183.491,59.4091 183.491,59.6886 182.931,59.6886 182.931,59.9685 182.372,59.9685 182.372,60.248 181.813,60.248 181.813,60.5276 181.253,60.5276 181.253,60.8075 180.694,60.8075 180.694,61.0874 180.134,61.0874 180.134,61.3669 179.574,61.3669 179.574,61.6469 179.015,61.6469 179.015,61.9268 178.456,61.9268 178.456,62.2063 177.896,62.2063 177.896,62.4862 177.336,62.4862 177.336,62.7661 176.777,62.7661 176.777,63.0457 176.497,63.0457 176.497,63.3256 175.938,63.3256 175.938,63.6055 175.378,63.6055 175.378,63.885 175.098,63.885 175.098,64.165 174.539,64.165 174.539,64.4445 173.979,64.4445 173.979,64.7244 173.699,64.7244 173.699,65.0039 173.14,65.0039 173.14,65.2839 172.86,65.2839 172.86,65.5634 172.3,65.5634 172.3,65.8433 172.021,65.8433 172.021,66.1232 171.741,66.1232 171.741,66.4028 171.182,66.4028 171.182,66.6827 170.902,66.6827 170.902,66.9626 170.343,66.9626 170.343,67.2421 170.063,67.2421 170.063,67.522 169.783,67.522 169.783,67.802 169.223,67.802 169.223,68.0815 168.943,68.0815 168.943,68.3614 168.664,68.3614 168.664,68.6409 168.384,68.6409 168.384,68.9209 168.104,68.9209 168.104,69.2004 167.545,69.2004 167.545,69.4803 167.265,69.4803 167.265,69.7598 166.985,69.7598 166.985,70.0398 166.706,70.0398 166.706,70.3197 166.426,70.3197 166.426,70.5992 166.146,70.5992 166.146,70.8791 165.866,70.8791 165.866,71.1591 165.586,71.1591 165.586,71.4386 165.307,71.4386 165.307,71.7185 165.027,71.7185 165.027,71.9984 164.747,71.9984 164.747,72.278 164.467,72.278 164.467,72.5579 164.187,72.5579 164.187,72.8378 163.907,72.8378 163.907,73.1173 163.628,73.1173 163.628,73.3969 163.348,73.3969 163.348,73.6768 163.069,73.6768 163.069,73.9563 162.789,73.9563 162.789,74.5161 162.509,74.5161 162.509,74.7957 162.229,74.7957 162.229,75.0756 161.95,75.0756 161.95,75.3555 161.67,75.3555 161.67,75.915 161.39,75.915 161.39,76.1949 161.11,76.1949 161.11,76.4744 160.83,76.4744 160.83,77.0343 160.55,77.0343 160.55,77.3138 160.271,77.3138 160.271,77.8732 159.991,77.8732 159.991,78.1528 159.711,78.1528 159.711,78.7126 159.431,78.7126 159.431,79.272 159.152,79.272 159.152,79.552 158.872,79.552 158.872,80.1114 158.593,80.1114 158.593,80.6709 158.313,80.6709 158.313,81.2307 158.033,81.2307 158.033,81.7898 157.753,81.7898 157.753,82.6291 157.473,82.6291 157.473,83.1886 157.193,83.1886 157.193,84.028 156.914,84.028 156.914,84.8673 156.634,84.8673 156.634,85.7067 156.354,85.7067 156.354,86.8256 156.074,86.8256 156.074,88.5043 155.794,88.5043 155.794,95.778 156.074,95.778 156.074,97.1768 156.354,97.1768 156.354,98.2961 156.634,98.2961 156.634,99.415 156.914,99.415 156.914,99.6945 157.193,99.6945 157.193,98.8555 157.473,98.8555 157.473,98.0161 157.753,98.0161 157.753,97.4567 158.033,97.4567 158.033,96.8972 158.313,96.8972 158.313,96.3374 158.593,96.3374 158.593,95.778 158.872,95.778 158.872,95.2185 159.152,95.2185 159.152,94.6591 159.431,94.6591 159.431,94.3795 159.711,94.3795 159.711,93.8197 159.991,93.8197 159.991,93.5402 160.271,93.5402 160.271,92.9803 160.55,92.9803 160.55,92.7008 160.83,92.7008 160.83,92.1409 161.11,92.1409 161.11,91.8614 161.39,91.8614 161.39,91.5815 161.67,91.5815 161.67,91.3016 161.95,91.3016 161.95,90.7421 162.229,90.7421 162.229,90.4626 162.509,90.4626 162.509,90.1831 162.789,90.1831 162.789,89.9031 163.069,89.9031 163.069,89.6232 163.348,89.6232 163.348,89.3437 163.628,89.3437 163.628,89.0638 163.907,89.0638 163.907,88.7839 164.187,88.7839 164.187,88.5043 164.467,88.5043 164.467,88.2244 164.747,88.2244 164.747,87.9445 165.027,87.9445 165.027,87.665 165.307,87.665 165.307,87.385 165.586,87.385 165.586,87.1055 166.146,87.1055 166.146,86.8256 166.426,86.8256 166.426,86.5457 166.706,86.5457 166.706,86.2661 166.985,86.2661 166.985,85.9866 167.265,85.9866 167.265,85.7067 167.824,85.7067 167.824,85.4272 168.104,85.4272 168.104,85.1472 168.384,85.1472 168.384,84.8673 168.943,84.8673 168.943,84.5878 169.223,84.5878 169.223,84.3079 169.503,84.3079 169.503,84.028 170.063,84.028 170.063,83.7484 170.343,83.7484 170.343,83.4685 170.902,83.4685 170.902,83.1886 171.182,83.1886 171.182,82.9091 171.741,82.9091 171.741,82.6291 172.021,82.6291 172.021,82.3492 172.58,82.3492 172.58,82.0697 173.14,82.0697 173.14,81.7898 173.42,81.7898 173.42,81.5102 173.979,81.5102 173.979,81.2307 174.539,81.2307 174.539,80.9508 174.819,80.9508 174.819,80.6709 175.378,80.6709 175.378,80.3913 175.938,80.3913 175.938,80.1114 176.497,80.1114 176.497,79.8315 177.056,79.8315 177.056,79.552 177.616,79.552 177.616,79.272 178.176,79.272 178.176,78.9921 178.735,78.9921 178.735,78.7126 179.295,78.7126 179.295,78.4327 179.854,78.4327 179.854,78.1528 180.694,78.1528 180.694,77.8732 181.253,77.8732 181.253,77.5933 181.813,77.5933 181.813,77.3138 182.652,77.3138 182.652,77.0343 183.211,77.0343 183.211,76.7543 183.771,76.7543 183.771,76.4744 184.61,76.4744 184.61,76.1949 185.449,76.1949 185.449,75.915 186.009,75.915 186.009,75.635 186.848,75.635 186.848,75.3555 187.688,75.3555 187.688,75.0756 188.527,75.0756 188.527,74.7957 189.366,74.7957 189.366,74.5161 190.206,74.5161 190.206,74.2362 191.045,74.2362 191.045,73.9563 192.164,73.9563 192.164,73.6768 193.003,73.6768 193.003,73.3969 194.122,73.3969 194.122,73.1173 194.961,73.1173 194.961,72.8378 196.081,72.8378 196.081,72.5579 197.2,72.5579 197.2,72.278 198.598,72.278 198.598,71.9984 199.717,71.9984 199.717,71.7185 201.117,71.7185 201.117,71.4386 202.515,71.4386 202.515,71.1591 203.914,71.1591 203.914,70.8791 205.593,70.8791 205.593,70.5992 207.551,70.5992 207.551,70.3197 209.23,70.3197 209.23,70.0398 211.747,70.0398 211.747,69.7598 214.265,69.7598 214.265,69.4803 217.622,69.4803 217.622,69.2004 220.7,69.2004 220.7,68.9209 221.819,68.9209 221.819,68.6409 222.378,68.6409 222.378,68.3614 222.938,68.3614 222.938,68.0815 223.218,68.0815 223.218,67.802 223.777,67.802 223.777,67.522 224.057,67.522 224.057,67.2421 224.337,67.2421 224.337,66.9626 224.616,66.9626 224.616,66.6827 224.896,66.6827 224.896,66.4028 225.176,66.4028 225.176,65.8433 225.456,65.8433 225.456,65.5634 225.735,65.5634 225.735,64.7244 226.015,64.7244 226.015,64.165 226.295,64.165 226.295,62.7661 226.575,62.7661 226.575,51.0161 220.7,51.0161 "/>
    <polygon id="_224849632" class="fil13" points="217.622,75.0756 214.545,75.0756 214.545,75.3555 212.027,75.3555 212.027,75.635 209.789,75.635 209.789,75.915 207.831,75.915 207.831,76.1949 206.152,76.1949 206.152,76.4744 204.474,76.4744 204.474,76.7543 203.074,76.7543 203.074,77.0343 201.956,77.0343 201.956,77.3138 200.557,77.3138 200.557,77.5933 199.438,77.5933 199.438,77.8732 198.319,77.8732 198.319,78.1528 197.2,78.1528 197.2,78.4327 196.081,78.4327 196.081,78.7126 195.241,78.7126 195.241,78.9921 194.122,78.9921 194.122,79.272 193.283,79.272 193.283,79.552 192.444,79.552 192.444,79.8315 191.604,79.8315 191.604,80.1114 190.765,80.1114 190.765,80.3913 189.926,80.3913 189.926,80.6709 189.087,80.6709 189.087,80.9508 188.527,80.9508 188.527,81.2307 187.688,81.2307 187.688,81.5102 186.848,81.5102 186.848,81.7898 186.289,81.7898 186.289,82.0697 185.729,82.0697 185.729,82.3492 184.89,82.3492 184.89,82.6291 184.331,82.6291 184.331,82.9091 183.771,82.9091 183.771,83.1886 183.211,83.1886 183.211,83.4685 182.652,83.4685 182.652,83.7484 182.092,83.7484 182.092,84.028 181.533,84.028 181.533,84.3079 180.973,84.3079 180.973,84.5878 180.414,84.5878 180.414,84.8673 179.854,84.8673 179.854,85.1472 179.295,85.1472 179.295,85.4272 179.015,85.4272 179.015,85.7067 178.456,85.7067 178.456,85.9866 177.896,85.9866 177.896,86.2661 177.616,86.2661 177.616,86.5457 177.056,86.5457 177.056,86.8256 176.777,86.8256 176.777,87.1055 176.217,87.1055 176.217,87.385 175.938,87.385 175.938,87.665 175.378,87.665 175.378,87.9445 175.098,87.9445 175.098,88.2244 174.539,88.2244 174.539,88.5043 174.259,88.5043 174.259,88.7839 173.979,88.7839 173.979,89.0638 173.42,89.0638 173.42,89.3437 173.14,89.3437 173.14,89.6232 172.86,89.6232 172.86,89.9031 172.58,89.9031 172.58,90.1831 172.3,90.1831 172.3,90.4626 171.741,90.4626 171.741,90.7421 171.461,90.7421 171.461,91.022 171.182,91.022 171.182,91.3016 170.902,91.3016 170.902,91.5815 170.622,91.5815 170.622,91.8614 170.343,91.8614 170.343,92.1409 170.063,92.1409 170.063,92.4209 169.783,92.4209 169.783,92.7008 169.503,92.7008 169.503,92.9803 169.223,92.9803 169.223,93.5402 168.943,93.5402 168.943,93.8197 168.664,93.8197 168.664,94.0996 168.384,94.0996 168.384,94.3795 168.104,94.3795 168.104,94.9386 167.824,94.9386 167.824,95.2185 167.545,95.2185 167.545,95.498 167.265,95.498 167.265,96.0579 166.985,96.0579 166.985,96.3374 166.706,96.3374 166.706,96.8972 166.426,96.8972 166.426,97.4567 166.146,97.4567 166.146,98.0161 165.866,98.0161 165.866,98.576 165.586,98.576 165.586,99.1354 165.307,99.1354 165.307,99.6945 165.027,99.6945 165.027,100.534 164.747,100.534 164.747,101.653 164.467,101.653 164.467,103.052 164.187,103.052 164.187,107.808 164.467,107.808 164.467,109.207 164.747,109.207 164.747,110.046 165.027,110.046 165.027,110.885 165.307,110.885 165.307,111.725 165.586,111.725 165.586,112.284 165.866,112.284 165.866,112.844 166.146,112.844 166.146,113.403 166.426,113.403 166.426,113.963 166.706,113.963 166.706,114.243 166.985,114.243 166.985,114.802 167.265,114.802 167.265,115.082 167.545,115.082 167.545,115.641 167.824,115.641 167.824,115.921 168.104,115.921 168.104,116.481 168.384,116.481 168.384,116.76 168.664,116.76 168.664,117.04 168.943,117.04 168.943,117.32 169.223,117.32 169.223,117.6 169.503,117.6 169.503,117.88 169.783,117.88 169.783,118.439 170.063,118.439 170.063,118.719 170.343,118.719 170.343,118.998 170.622,118.998 170.622,117.88 170.343,117.88 170.343,115.921 170.063,115.921 170.063,115.362 170.343,115.362 170.343,113.123 170.622,113.123 170.622,112.284 170.902,112.284 170.902,111.445 171.182,111.445 171.182,110.885 171.461,110.885 171.461,110.326 171.741,110.326 171.741,109.766 172.021,109.766 172.021,109.207 172.3,109.207 172.3,108.927 172.58,108.927 172.58,108.647 172.86,108.647 172.86,108.087 173.14,108.087 173.14,107.808 173.42,107.808 173.42,107.528 173.699,107.528 173.699,107.248 173.979,107.248 173.979,106.969 174.259,106.969 174.259,106.689 174.539,106.689 174.539,106.409 174.819,106.409 174.819,106.13 175.098,106.13 175.098,105.85 175.378,105.85 175.378,105.57 175.658,105.57 175.658,105.29 175.938,105.29 175.938,105.01 176.217,105.01 176.217,104.73 176.497,104.73 176.497,104.451 177.056,104.451 177.056,104.171 177.336,104.171 177.336,103.891 177.616,103.891 177.616,103.611 178.176,103.611 178.176,103.332 178.456,103.332 178.456,103.052 179.015,103.052 179.015,102.772 179.295,102.772 179.295,102.493 179.854,102.493 179.854,102.213 180.134,102.213 180.134,101.933 180.694,101.933 180.694,101.653 181.253,101.653 181.253,101.373 181.813,101.373 181.813,101.094 182.092,101.094 182.092,100.814 182.652,100.814 182.652,100.534 183.211,100.534 183.211,100.254 183.771,100.254 183.771,99.9744 184.61,99.9744 184.61,99.6945 185.17,99.6945 185.17,99.415 185.729,99.415 185.729,99.1354 186.289,99.1354 186.289,98.8555 187.128,98.8555 187.128,98.576 187.688,98.576 187.688,98.2961 188.527,98.2961 188.527,98.0161 189.366,98.0161 189.366,97.7366 190.206,97.7366 190.206,97.4567 191.045,97.4567 191.045,97.1768 191.884,97.1768 191.884,96.8972 192.724,96.8972 192.724,96.6173 193.563,96.6173 193.563,96.3374 194.681,96.3374 194.681,96.0579 195.801,96.0579 195.801,95.778 196.92,95.778 196.92,95.498 198.039,95.498 198.039,95.2185 199.158,95.2185 199.158,94.9386 200.557,94.9386 200.557,94.6591 201.956,94.6591 201.956,94.3795 203.634,94.3795 203.634,94.0996 205.313,94.0996 205.313,93.8197 207.271,93.8197 207.271,93.5402 209.789,93.5402 209.789,93.2602 212.587,93.2602 212.587,92.9803 216.503,92.9803 216.503,92.7008 217.622,92.7008 217.622,92.4209 218.462,92.4209 218.462,92.1409 219.021,92.1409 219.021,91.8614 219.58,91.8614 219.58,91.5815 219.86,91.5815 219.86,91.3016 220.14,91.3016 220.14,91.022 220.7,91.022 220.7,90.7421 220.98,90.7421 220.98,90.1831 221.259,90.1831 221.259,89.9031 221.539,89.9031 221.539,89.6232 221.819,89.6232 221.819,89.0638 222.098,89.0638 222.098,88.5043 222.378,88.5043 222.378,87.9445 222.658,87.9445 222.658,86.8256 222.938,86.8256 222.938,74.7957 217.622,74.7957 "/>
    <polygon id="_224849488" class="fil14" points="215.384,28.3551 212.307,28.3551 212.307,28.635 210.069,28.635 210.069,28.9146 208.11,28.9146 208.11,29.1945 206.431,29.1945 206.431,29.4744 204.753,29.4744 204.753,29.7539 203.354,29.7539 203.354,30.0335 201.956,30.0335 201.956,30.3134 200.837,30.3134 200.837,30.5929 199.717,30.5929 199.717,30.8728 198.598,30.8728 198.598,31.1528 197.48,31.1528 197.48,31.4323 196.36,31.4323 196.36,31.7122 195.521,31.7122 195.521,31.9921 194.681,31.9921 194.681,32.2717 193.842,32.2717 193.842,32.5516 193.003,32.5516 193.003,32.8315 192.164,32.8315 192.164,33.111 191.324,33.111 191.324,33.3909 190.485,33.3909 190.485,33.6709 189.646,33.6709 189.646,33.9504 189.087,33.9504 189.087,34.2299 188.247,34.2299 188.247,34.5098 187.688,34.5098 187.688,34.7894 186.848,34.7894 186.848,35.0693 186.289,35.0693 186.289,35.3492 185.729,35.3492 185.729,35.6287 184.89,35.6287 184.89,35.9087 184.331,35.9087 184.331,36.1886 183.771,36.1886 183.771,36.4681 183.211,36.4681 183.211,36.748 182.652,36.748 182.652,37.028 182.092,37.028 182.092,37.3075 181.533,37.3075 181.533,37.5874 180.973,37.5874 180.973,37.8673 180.414,37.8673 180.414,38.1469 180.134,38.1469 180.134,38.4268 179.574,38.4268 179.574,38.7063 179.015,38.7063 179.015,38.9858 178.456,38.9858 178.456,39.2657 178.176,39.2657 178.176,39.5457 177.616,39.5457 177.616,39.8252 177.056,39.8252 177.056,40.1051 176.777,40.1051 176.777,40.385 176.217,40.385 176.217,40.6646 175.938,40.6646 175.938,40.9445 175.378,40.9445 175.378,41.2244 175.098,41.2244 175.098,41.5039 174.539,41.5039 174.539,41.7839 174.259,41.7839 174.259,42.0638 173.699,42.0638 173.699,42.3433 173.42,42.3433 173.42,42.6232 172.86,42.6232 172.86,42.9028 172.58,42.9028 172.58,43.1823 172.3,43.1823 172.3,43.4622 172.021,43.4622 172.021,43.7421 171.461,43.7421 171.461,44.0217 171.182,44.0217 171.182,44.3016 170.902,44.3016 170.902,44.5815 170.622,44.5815 170.622,44.861 170.063,44.861 170.063,45.1409 169.783,45.1409 169.783,45.4209 169.503,45.4209 169.503,45.7004 169.223,45.7004 169.223,45.9803 168.943,45.9803 168.943,46.2602 168.664,46.2602 168.664,46.5398 168.384,46.5398 168.384,46.8197 167.824,46.8197 167.824,47.0992 167.545,47.0992 167.545,47.3787 167.265,47.3787 167.265,47.6587 166.985,47.6587 166.985,47.9386 166.706,47.9386 166.706,48.2181 166.426,48.2181 166.426,48.498 166.146,48.498 166.146,48.778 165.866,48.778 165.866,49.0575 165.586,49.0575 165.586,49.6173 165.307,49.6173 165.307,49.8969 165.027,49.8969 165.027,50.1768 164.747,50.1768 164.747,50.4567 164.467,50.4567 164.467,50.7362 164.187,50.7362 164.187,51.0161 163.907,51.0161 163.907,51.2957 163.628,51.2957 163.628,51.8551 163.348,51.8551 163.348,52.1346 163.069,52.1346 163.069,52.4146 162.789,52.4146 162.789,52.974 162.509,52.974 162.509,53.2539 162.229,53.2539 162.229,53.5339 161.95,53.5339 161.95,54.0933 161.67,54.0933 161.67,54.3732 161.39,54.3732 161.39,54.9327 161.11,54.9327 161.11,55.2126 160.83,55.2126 160.83,55.772 160.55,55.772 160.55,56.0516 160.271,56.0516 160.271,56.611 159.991,56.611 159.991,57.1705 159.711,57.1705 159.711,57.7303 159.431,57.7303 159.431,58.2898 159.152,58.2898 159.152,58.8492 158.872,58.8492 158.872,59.4091 158.593,59.4091 158.593,59.9685 158.313,59.9685 158.313,60.5276 158.033,60.5276 158.033,61.3669 157.753,61.3669 157.753,61.9268 157.473,61.9268 157.473,62.7661 157.193,62.7661 157.193,63.6055 156.914,63.6055 156.914,64.4445 156.634,64.4445 156.634,65.5634 156.354,65.5634 156.354,66.9626 156.074,66.9626 156.074,68.6409 155.794,68.6409 155.794,73.3969 156.074,73.3969 156.074,73.1173 156.354,73.1173 156.354,72.8378 156.634,72.8378 156.634,72.278 156.914,72.278 156.914,71.9984 157.193,71.9984 157.193,71.7185 157.473,71.7185 157.473,71.1591 157.753,71.1591 157.753,70.8791 158.033,70.8791 158.033,70.5992 158.313,70.5992 158.313,70.3197 158.593,70.3197 158.593,70.0398 158.872,70.0398 158.872,69.7598 159.152,69.7598 159.152,69.2004 159.431,69.2004 159.431,68.9209 159.711,68.9209 159.711,68.6409 159.991,68.6409 159.991,68.3614 160.271,68.3614 160.271,68.0815 160.55,68.0815 160.55,67.802 160.83,67.802 160.83,67.522 161.11,67.522 161.11,67.2421 161.39,67.2421 161.39,66.9626 161.67,66.9626 161.67,66.6827 161.95,66.6827 161.95,66.4028 162.509,66.4028 162.509,66.1232 162.789,66.1232 162.789,65.8433 163.069,65.8433 163.069,65.5634 163.348,65.5634 163.348,65.2839 163.628,65.2839 163.628,65.0039 163.907,65.0039 163.907,64.7244 164.467,64.7244 164.467,64.4445 164.747,64.4445 164.747,64.165 165.027,64.165 165.027,63.885 165.307,63.885 165.307,63.6055 165.866,63.6055 165.866,63.3256 166.146,63.3256 166.146,63.0457 166.426,63.0457 166.426,62.7661 166.985,62.7661 166.985,62.4862 167.265,62.4862 167.265,62.2063 167.545,62.2063 167.545,61.9268 168.104,61.9268 168.104,61.6469 168.384,61.6469 168.384,61.3669 168.943,61.3669 168.943,61.0874 169.223,61.0874 169.223,60.8075 169.783,60.8075 169.783,60.5276 170.063,60.5276 170.063,60.248 170.622,60.248 170.622,59.9685 170.902,59.9685 170.902,59.6886 171.461,59.6886 171.461,59.4091 172.021,59.4091 172.021,59.1291 172.3,59.1291 172.3,58.8492 172.86,58.8492 172.86,58.5697 173.42,58.5697 173.42,58.2898 173.979,58.2898 173.979,58.0098 174.259,58.0098 174.259,57.7303 174.819,57.7303 174.819,57.4504 175.378,57.4504 175.378,57.1705 175.938,57.1705 175.938,56.8909 176.497,56.8909 176.497,56.611 177.056,56.611 177.056,56.3311 177.616,56.3311 177.616,56.0516 178.176,56.0516 178.176,55.772 178.735,55.772 178.735,55.4921 179.295,55.4921 179.295,55.2126 179.854,55.2126 179.854,54.9327 180.694,54.9327 180.694,54.6528 181.253,54.6528 181.253,54.3732 181.813,54.3732 181.813,54.0933 182.652,54.0933 182.652,53.8134 183.211,53.8134 183.211,53.5339 184.051,53.5339 184.051,53.2539 184.61,53.2539 184.61,52.974 185.449,52.974 185.449,52.6945 186.009,52.6945 186.009,52.4146 186.848,52.4146 186.848,52.1346 187.688,52.1346 187.688,51.8551 188.527,51.8551 188.527,51.5756 189.366,51.5756 189.366,51.2957 190.206,51.2957 190.206,51.0161 191.045,51.0161 191.045,50.7362 191.884,50.7362 191.884,50.4567 193.003,50.4567 193.003,50.1768 193.842,50.1768 193.842,49.8969 194.961,49.8969 194.961,49.6173 195.801,49.6173 195.801,49.3374 196.92,49.3374 196.92,49.0575 198.039,49.0575 198.039,48.778 199.438,48.778 199.438,48.498 200.557,48.498 200.557,48.2181 201.956,48.2181 201.956,47.9386 203.354,47.9386 203.354,47.6587 204.753,47.6587 204.753,47.3787 206.431,47.3787 206.431,47.0992 208.11,47.0992 208.11,46.8197 210.069,46.8197 210.069,46.5398 212.307,46.5398 212.307,46.2602 213.985,46.2602 213.985,45.9803 214.824,45.9803 214.824,45.7004 215.384,45.7004 215.384,45.4209 215.944,45.4209 215.944,45.1409 216.503,45.1409 216.503,44.861 216.783,44.861 216.783,44.5815 217.063,44.5815 217.063,44.3016 217.343,44.3016 217.343,44.0217 217.622,44.0217 217.622,43.7421 217.902,43.7421 217.902,43.4622 218.182,43.4622 218.182,42.9028 218.462,42.9028 218.462,42.3433 218.741,42.3433 218.741,41.7839 219.021,41.7839 219.021,40.9445 219.301,40.9445 219.301,28.0752 215.384,28.0752 "/>
    <polygon id="_224849464" class="fil15" points="216.223,98.576 212.587,98.576 212.587,98.8555 209.789,98.8555 209.789,99.1354 207.831,99.1354 207.831,99.415 206.152,99.415 206.152,99.6945 204.474,99.6945 204.474,99.9744 203.074,99.9744 203.074,100.254 201.956,100.254 201.956,100.534 200.557,100.534 200.557,100.814 199.438,100.814 199.438,101.094 198.598,101.094 198.598,101.373 197.48,101.373 197.48,101.653 196.64,101.653 196.64,101.933 195.801,101.933 195.801,102.213 194.961,102.213 194.961,102.493 194.122,102.493 194.122,102.772 193.283,102.772 193.283,103.052 192.724,103.052 192.724,103.332 191.884,103.332 191.884,103.611 191.324,103.611 191.324,103.891 190.765,103.891 190.765,104.171 190.206,104.171 190.206,104.451 189.646,104.451 189.646,104.73 189.087,104.73 189.087,105.01 188.527,105.01 188.527,105.29 187.967,105.29 187.967,105.57 187.408,105.57 187.408,105.85 186.848,105.85 186.848,106.13 186.569,106.13 186.569,106.409 186.009,106.409 186.009,106.689 185.449,106.689 185.449,106.969 185.17,106.969 185.17,107.248 184.89,107.248 184.89,107.528 184.331,107.528 184.331,107.808 184.051,107.808 184.051,108.087 183.771,108.087 183.771,108.367 183.211,108.367 183.211,108.647 182.931,108.647 182.931,108.927 182.652,108.927 182.652,109.207 182.372,109.207 182.372,109.487 182.092,109.487 182.092,109.766 181.813,109.766 181.813,110.046 181.533,110.046 181.533,110.326 181.253,110.326 181.253,110.606 180.973,110.606 180.973,110.885 180.694,110.885 180.694,111.445 180.414,111.445 180.414,111.725 180.134,111.725 180.134,112.004 179.854,112.004 179.854,112.564 179.574,112.564 179.574,112.844 179.295,112.844 179.295,113.403 179.015,113.403 179.015,114.243 178.735,114.243 178.735,114.802 178.456,114.802 178.456,115.921 178.176,115.921 178.176,119.838 178.456,119.838 178.456,121.237 178.735,121.237 178.735,122.076 179.015,122.076 179.015,122.915 179.295,122.915 179.295,123.475 179.574,123.475 179.574,124.034 179.854,124.034 179.854,124.594 180.134,124.594 180.134,125.153 180.414,125.153 180.414,125.433 180.694,125.433 180.694,125.993 180.973,125.993 180.973,126.272 181.253,126.272 181.253,126.552 181.533,126.552 181.533,127.111 181.813,127.111 181.813,127.391 182.092,127.391 182.092,127.671 182.372,127.671 182.372,127.951 182.652,127.951 182.652,128.231 182.931,128.231 182.931,128.511 183.211,128.511 183.211,128.79 183.491,128.79 183.491,129.07 183.771,129.07 183.771,129.35 184.051,129.35 184.051,129.63 184.331,129.63 184.331,129.909 184.61,129.909 184.61,130.189 185.17,130.189 185.17,130.469 185.449,130.469 185.449,130.748 185.729,130.748 185.729,131.028 186.289,131.028 186.289,131.308 186.569,131.308 186.569,131.588 187.128,131.588 187.128,131.868 187.408,131.868 187.408,132.147 187.967,132.147 187.967,132.427 188.527,132.427 188.527,132.707 188.807,132.707 188.807,132.987 189.366,132.987 189.366,133.267 189.926,133.267 189.926,133.546 190.485,133.546 190.485,133.826 191.045,133.826 191.045,134.106 191.884,134.106 191.884,134.385 192.444,134.385 192.444,134.665 193.283,134.665 193.283,134.945 194.122,134.945 194.122,135.225 194.961,135.225 194.961,135.504 195.801,135.504 195.801,135.784 196.92,135.784 196.92,136.064 198.039,136.064 198.039,136.344 199.438,136.344 199.438,136.624 201.117,136.624 201.117,136.904 203.354,136.904 203.354,137.183 210.628,137.183 210.628,136.904 212.587,136.904 212.587,136.624 211.188,136.624 211.188,136.344 209.789,136.344 209.789,136.064 208.39,136.064 208.39,135.784 207.271,135.784 207.271,135.504 206.152,135.504 206.152,135.225 205.033,135.225 205.033,134.945 204.194,134.945 204.194,134.665 203.354,134.665 203.354,134.385 202.795,134.385 202.795,134.106 201.956,134.106 201.956,133.826 201.396,133.826 201.396,133.546 200.557,133.546 200.557,133.267 199.997,133.267 199.997,132.987 199.438,132.987 199.438,132.707 198.878,132.707 198.878,132.427 198.319,132.427 198.319,132.147 198.039,132.147 198.039,131.868 197.48,131.868 197.48,131.588 197.2,131.588 197.2,131.308 196.64,131.308 196.64,131.028 196.36,131.028 196.36,130.748 196.081,130.748 196.081,130.469 195.521,130.469 195.521,130.189 195.241,130.189 195.241,129.909 194.961,129.909 194.961,129.63 194.681,129.63 194.681,129.35 194.402,129.35 194.402,128.79 194.122,128.79 194.122,128.511 193.842,128.511 193.842,128.231 193.563,128.231 193.563,127.671 193.283,127.671 193.283,127.111 193.003,127.111 193.003,126.272 192.724,126.272 192.724,123.475 193.003,123.475 193.003,122.635 193.283,122.635 193.283,122.076 193.563,122.076 193.563,121.516 193.842,121.516 193.842,121.237 194.122,121.237 194.122,120.957 194.402,120.957 194.402,120.398 194.681,120.398 194.681,120.118 194.961,120.118 194.961,119.838 195.241,119.838 195.241,119.558 195.521,119.558 195.521,119.278 196.081,119.278 196.081,118.998 196.36,118.998 196.36,118.719 196.64,118.719 196.64,118.439 197.2,118.439 197.2,118.159 197.48,118.159 197.48,117.88 198.039,117.88 198.039,117.6 198.598,117.6 198.598,117.32 198.878,117.32 198.878,117.04 199.438,117.04 199.438,116.76 199.997,116.76 199.997,116.481 200.557,116.481 200.557,116.201 201.396,116.201 201.396,115.921 201.956,115.921 201.956,115.641 202.795,115.641 202.795,115.362 203.354,115.362 203.354,115.082 204.194,115.082 204.194,114.802 205.313,114.802 205.313,114.522 206.152,114.522 206.152,114.243 207.271,114.243 207.271,113.963 208.39,113.963 208.39,113.683 209.789,113.683 209.789,113.403 211.188,113.403 211.188,113.123 213.146,113.123 213.146,112.844 214.265,112.844 214.265,112.564 215.104,112.564 215.104,112.284 215.664,112.284 215.664,112.004 215.944,112.004 215.944,111.725 216.503,111.725 216.503,111.445 216.783,111.445 216.783,111.165 217.063,111.165 217.063,110.885 217.343,110.885 217.343,110.606 217.622,110.606 217.622,110.326 217.902,110.326 217.902,110.046 218.182,110.046 218.182,109.487 218.462,109.487 218.462,108.927 218.741,108.927 218.741,108.367 219.021,108.367 219.021,107.528 219.301,107.528 219.301,98.2961 216.223,98.2961 "/>
   </g>
  </g>
 </g>
</svg>
